<svg width="1363" height="163" viewBox="0 0 1363 163" fill="none" xmlns="http://www.w3.org/2000/svg">
<path d="M0 15C0 6.71573 6.71573 0 15 0H37V163H15C6.71573 163 0 156.284 0 148V15Z" fill="#424242"/>
<rect width="1097" height="163" transform="translate(37)" fill="#F0F0F0"/>
<path d="M101.906 53.9219L94.3945 51.2383V48.0859L104.602 52.375V54.6367L101.906 53.9219ZM94.3945 56.1719L101.918 53.4297L104.602 52.7852V55.0352L94.3945 59.3242V56.1719ZM118.137 61H114.422L114.445 58.2578H118.137C119.059 58.2578 119.836 58.0508 120.469 57.6367C121.102 57.2148 121.578 56.6016 121.898 55.7969C122.227 54.9922 122.391 54.0195 122.391 52.8789V52.0469C122.391 51.1719 122.297 50.4023 122.109 49.7383C121.93 49.0742 121.66 48.5156 121.301 48.0625C120.941 47.6094 120.5 47.2695 119.977 47.043C119.453 46.8086 118.852 46.6914 118.172 46.6914H114.352V43.9375H118.172C119.312 43.9375 120.355 44.1328 121.301 44.5234C122.254 44.9062 123.078 45.457 123.773 46.1758C124.469 46.8945 125.004 47.7539 125.379 48.7539C125.762 49.7461 125.953 50.8516 125.953 52.0703V52.8789C125.953 54.0898 125.762 55.1953 125.379 56.1953C125.004 57.1953 124.469 58.0547 123.773 58.7734C123.086 59.4844 122.262 60.0352 121.301 60.4258C120.348 60.8086 119.293 61 118.137 61ZM116.414 43.9375V61H112.898V43.9375H116.414ZM127.758 54.7891V54.543C127.758 53.6133 127.891 52.7578 128.156 51.9766C128.422 51.1875 128.809 50.5039 129.316 49.9258C129.824 49.3477 130.449 48.8984 131.191 48.5781C131.934 48.25 132.785 48.0859 133.746 48.0859C134.707 48.0859 135.562 48.25 136.312 48.5781C137.062 48.8984 137.691 49.3477 138.199 49.9258C138.715 50.5039 139.105 51.1875 139.371 51.9766C139.637 52.7578 139.77 53.6133 139.77 54.543V54.7891C139.77 55.7109 139.637 56.5664 139.371 57.3555C139.105 58.1367 138.715 58.8203 138.199 59.4062C137.691 59.9844 137.066 60.4336 136.324 60.7539C135.582 61.0742 134.73 61.2344 133.77 61.2344C132.809 61.2344 131.953 61.0742 131.203 60.7539C130.461 60.4336 129.832 59.9844 129.316 59.4062C128.809 58.8203 128.422 58.1367 128.156 57.3555C127.891 56.5664 127.758 55.7109 127.758 54.7891ZM131.133 54.543V54.7891C131.133 55.3203 131.18 55.8164 131.273 56.2773C131.367 56.7383 131.516 57.1445 131.719 57.4961C131.93 57.8398 132.203 58.1094 132.539 58.3047C132.875 58.5 133.285 58.5977 133.77 58.5977C134.238 58.5977 134.641 58.5 134.977 58.3047C135.312 58.1094 135.582 57.8398 135.785 57.4961C135.988 57.1445 136.137 56.7383 136.23 56.2773C136.332 55.8164 136.383 55.3203 136.383 54.7891V54.543C136.383 54.0273 136.332 53.543 136.23 53.0898C136.137 52.6289 135.984 52.2227 135.773 51.8711C135.57 51.5117 135.301 51.2305 134.965 51.0273C134.629 50.8242 134.223 50.7227 133.746 50.7227C133.27 50.7227 132.863 50.8242 132.527 51.0273C132.199 51.2305 131.93 51.5117 131.719 51.8711C131.516 52.2227 131.367 52.6289 131.273 53.0898C131.18 53.543 131.133 54.0273 131.133 54.543ZM155.578 52.082V58.8438C155.312 59.1641 154.902 59.5117 154.348 59.8867C153.793 60.2539 153.078 60.5703 152.203 60.8359C151.328 61.1016 150.27 61.2344 149.027 61.2344C147.926 61.2344 146.922 61.0547 146.016 60.6953C145.109 60.3281 144.328 59.793 143.672 59.0898C143.023 58.3867 142.523 57.5273 142.172 56.5117C141.82 55.4883 141.645 54.3203 141.645 53.0078V51.9414C141.645 50.6289 141.812 49.4609 142.148 48.4375C142.492 47.4141 142.98 46.5508 143.613 45.8477C144.246 45.1445 145 44.6094 145.875 44.2422C146.75 43.875 147.723 43.6914 148.793 43.6914C150.277 43.6914 151.496 43.9336 152.449 44.418C153.402 44.8945 154.129 45.5586 154.629 46.4102C155.137 47.2539 155.449 48.2227 155.566 49.3164H152.156C152.07 48.7383 151.906 48.2344 151.664 47.8047C151.422 47.375 151.074 47.0391 150.621 46.7969C150.176 46.5547 149.598 46.4336 148.887 46.4336C148.301 46.4336 147.777 46.5547 147.316 46.7969C146.863 47.0312 146.48 47.3789 146.168 47.8398C145.855 48.3008 145.617 48.8711 145.453 49.5508C145.289 50.2305 145.207 51.0195 145.207 51.918V53.0078C145.207 53.8984 145.293 54.6875 145.465 55.375C145.637 56.0547 145.891 56.6289 146.227 57.0977C146.57 57.5586 146.992 57.9062 147.492 58.1406C147.992 58.375 148.574 58.4922 149.238 58.4922C149.793 58.4922 150.254 58.4453 150.621 58.3516C150.996 58.2578 151.297 58.1445 151.523 58.0117C151.758 57.8711 151.938 57.7383 152.062 57.6133V54.5898H148.852V52.082H155.578ZM157.664 54.7891V54.543C157.664 53.6133 157.797 52.7578 158.062 51.9766C158.328 51.1875 158.715 50.5039 159.223 49.9258C159.73 49.3477 160.355 48.8984 161.098 48.5781C161.84 48.25 162.691 48.0859 163.652 48.0859C164.613 48.0859 165.469 48.25 166.219 48.5781C166.969 48.8984 167.598 49.3477 168.105 49.9258C168.621 50.5039 169.012 51.1875 169.277 51.9766C169.543 52.7578 169.676 53.6133 169.676 54.543V54.7891C169.676 55.7109 169.543 56.5664 169.277 57.3555C169.012 58.1367 168.621 58.8203 168.105 59.4062C167.598 59.9844 166.973 60.4336 166.23 60.7539C165.488 61.0742 164.637 61.2344 163.676 61.2344C162.715 61.2344 161.859 61.0742 161.109 60.7539C160.367 60.4336 159.738 59.9844 159.223 59.4062C158.715 58.8203 158.328 58.1367 158.062 57.3555C157.797 56.5664 157.664 55.7109 157.664 54.7891ZM161.039 54.543V54.7891C161.039 55.3203 161.086 55.8164 161.18 56.2773C161.273 56.7383 161.422 57.1445 161.625 57.4961C161.836 57.8398 162.109 58.1094 162.445 58.3047C162.781 58.5 163.191 58.5977 163.676 58.5977C164.145 58.5977 164.547 58.5 164.883 58.3047C165.219 58.1094 165.488 57.8398 165.691 57.4961C165.895 57.1445 166.043 56.7383 166.137 56.2773C166.238 55.8164 166.289 55.3203 166.289 54.7891V54.543C166.289 54.0273 166.238 53.543 166.137 53.0898C166.043 52.6289 165.891 52.2227 165.68 51.8711C165.477 51.5117 165.207 51.2305 164.871 51.0273C164.535 50.8242 164.129 50.7227 163.652 50.7227C163.176 50.7227 162.77 50.8242 162.434 51.0273C162.105 51.2305 161.836 51.5117 161.625 51.8711C161.422 52.2227 161.273 52.6289 161.18 53.0898C161.086 53.543 161.039 54.0273 161.039 54.543ZM171.211 54.7891V54.543C171.211 53.6133 171.344 52.7578 171.609 51.9766C171.875 51.1875 172.262 50.5039 172.77 49.9258C173.277 49.3477 173.902 48.8984 174.645 48.5781C175.387 48.25 176.238 48.0859 177.199 48.0859C178.16 48.0859 179.016 48.25 179.766 48.5781C180.516 48.8984 181.145 49.3477 181.652 49.9258C182.168 50.5039 182.559 51.1875 182.824 51.9766C183.09 52.7578 183.223 53.6133 183.223 54.543V54.7891C183.223 55.7109 183.09 56.5664 182.824 57.3555C182.559 58.1367 182.168 58.8203 181.652 59.4062C181.145 59.9844 180.52 60.4336 179.777 60.7539C179.035 61.0742 178.184 61.2344 177.223 61.2344C176.262 61.2344 175.406 61.0742 174.656 60.7539C173.914 60.4336 173.285 59.9844 172.77 59.4062C172.262 58.8203 171.875 58.1367 171.609 57.3555C171.344 56.5664 171.211 55.7109 171.211 54.7891ZM174.586 54.543V54.7891C174.586 55.3203 174.633 55.8164 174.727 56.2773C174.82 56.7383 174.969 57.1445 175.172 57.4961C175.383 57.8398 175.656 58.1094 175.992 58.3047C176.328 58.5 176.738 58.5977 177.223 58.5977C177.691 58.5977 178.094 58.5 178.43 58.3047C178.766 58.1094 179.035 57.8398 179.238 57.4961C179.441 57.1445 179.59 56.7383 179.684 56.2773C179.785 55.8164 179.836 55.3203 179.836 54.7891V54.543C179.836 54.0273 179.785 53.543 179.684 53.0898C179.59 52.6289 179.438 52.2227 179.227 51.8711C179.023 51.5117 178.754 51.2305 178.418 51.0273C178.082 50.8242 177.676 50.7227 177.199 50.7227C176.723 50.7227 176.316 50.8242 175.98 51.0273C175.652 51.2305 175.383 51.5117 175.172 51.8711C174.969 52.2227 174.82 52.6289 174.727 53.0898C174.633 53.543 174.586 54.0273 174.586 54.543ZM192.785 58.2344V43H196.184V61H193.125L192.785 58.2344ZM184.77 54.8125V54.5664C184.77 53.5977 184.879 52.7188 185.098 51.9297C185.316 51.1328 185.637 50.4492 186.059 49.8789C186.48 49.3086 187 48.8672 187.617 48.5547C188.234 48.2422 188.938 48.0859 189.727 48.0859C190.469 48.0859 191.117 48.2422 191.672 48.5547C192.234 48.8672 192.711 49.3125 193.102 49.8906C193.5 50.4609 193.82 51.1367 194.062 51.918C194.305 52.6914 194.48 53.5391 194.59 54.4609V55C194.48 55.8828 194.305 56.7031 194.062 57.4609C193.82 58.2188 193.5 58.8828 193.102 59.4531C192.711 60.0156 192.234 60.4531 191.672 60.7656C191.109 61.0781 190.453 61.2344 189.703 61.2344C188.914 61.2344 188.211 61.0742 187.594 60.7539C186.984 60.4336 186.469 59.9844 186.047 59.4062C185.633 58.8281 185.316 58.1484 185.098 57.3672C184.879 56.5859 184.77 55.7344 184.77 54.8125ZM188.145 54.5664V54.8125C188.145 55.3359 188.184 55.8242 188.262 56.2773C188.348 56.7305 188.484 57.1328 188.672 57.4844C188.867 57.8281 189.117 58.0977 189.422 58.293C189.734 58.4805 190.113 58.5742 190.559 58.5742C191.137 58.5742 191.613 58.4453 191.988 58.1875C192.363 57.9219 192.648 57.5586 192.844 57.0977C193.047 56.6367 193.164 56.1055 193.195 55.5039V53.9688C193.172 53.4766 193.102 53.0352 192.984 52.6445C192.875 52.2461 192.711 51.9062 192.492 51.625C192.281 51.3438 192.016 51.125 191.695 50.9688C191.383 50.8125 191.012 50.7344 190.582 50.7344C190.145 50.7344 189.77 50.8359 189.457 51.0391C189.145 51.2344 188.891 51.5039 188.695 51.8477C188.508 52.1914 188.367 52.5977 188.273 53.0664C188.188 53.5273 188.145 54.0273 188.145 54.5664ZM198.984 59.3711C198.984 58.8711 199.156 58.4531 199.5 58.1172C199.852 57.7812 200.316 57.6133 200.895 57.6133C201.473 57.6133 201.934 57.7812 202.277 58.1172C202.629 58.4531 202.805 58.8711 202.805 59.3711C202.805 59.8711 202.629 60.2891 202.277 60.625C201.934 60.9609 201.473 61.1289 200.895 61.1289C200.316 61.1289 199.852 60.9609 199.5 60.625C199.156 60.2891 198.984 59.8711 198.984 59.3711ZM209.344 48.3203V61H205.957V48.3203H209.344ZM205.746 45.0156C205.746 44.5234 205.918 44.1172 206.262 43.7969C206.605 43.4766 207.066 43.3164 207.645 43.3164C208.215 43.3164 208.672 43.4766 209.016 43.7969C209.367 44.1172 209.543 44.5234 209.543 45.0156C209.543 45.5078 209.367 45.9141 209.016 46.2344C208.672 46.5547 208.215 46.7148 207.645 46.7148C207.066 46.7148 206.605 46.5547 206.262 46.2344C205.918 45.9141 205.746 45.5078 205.746 45.0156ZM211.594 54.7891V54.543C211.594 53.6133 211.727 52.7578 211.992 51.9766C212.258 51.1875 212.645 50.5039 213.152 49.9258C213.66 49.3477 214.285 48.8984 215.027 48.5781C215.77 48.25 216.621 48.0859 217.582 48.0859C218.543 48.0859 219.398 48.25 220.148 48.5781C220.898 48.8984 221.527 49.3477 222.035 49.9258C222.551 50.5039 222.941 51.1875 223.207 51.9766C223.473 52.7578 223.605 53.6133 223.605 54.543V54.7891C223.605 55.7109 223.473 56.5664 223.207 57.3555C222.941 58.1367 222.551 58.8203 222.035 59.4062C221.527 59.9844 220.902 60.4336 220.16 60.7539C219.418 61.0742 218.566 61.2344 217.605 61.2344C216.645 61.2344 215.789 61.0742 215.039 60.7539C214.297 60.4336 213.668 59.9844 213.152 59.4062C212.645 58.8203 212.258 58.1367 211.992 57.3555C211.727 56.5664 211.594 55.7109 211.594 54.7891ZM214.969 54.543V54.7891C214.969 55.3203 215.016 55.8164 215.109 56.2773C215.203 56.7383 215.352 57.1445 215.555 57.4961C215.766 57.8398 216.039 58.1094 216.375 58.3047C216.711 58.5 217.121 58.5977 217.605 58.5977C218.074 58.5977 218.477 58.5 218.812 58.3047C219.148 58.1094 219.418 57.8398 219.621 57.4961C219.824 57.1445 219.973 56.7383 220.066 56.2773C220.168 55.8164 220.219 55.3203 220.219 54.7891V54.543C220.219 54.0273 220.168 53.543 220.066 53.0898C219.973 52.6289 219.82 52.2227 219.609 51.8711C219.406 51.5117 219.137 51.2305 218.801 51.0273C218.465 50.8242 218.059 50.7227 217.582 50.7227C217.105 50.7227 216.699 50.8242 216.363 51.0273C216.035 51.2305 215.766 51.5117 215.555 51.8711C215.352 52.2227 215.203 52.6289 215.109 53.0898C215.016 53.543 214.969 54.0273 214.969 54.543Z" fill="#888888"/>
<path d="M112.125 84.875V119H103.898V84.875H112.125ZM122.391 84.875V91.2266H93.8672V84.875H122.391ZM135.68 119.469C133.617 119.469 131.773 119.148 130.148 118.508C128.523 117.852 127.148 116.953 126.023 115.812C124.914 114.672 124.062 113.359 123.469 111.875C122.891 110.391 122.602 108.82 122.602 107.164V106.273C122.602 104.414 122.859 102.695 123.375 101.117C123.891 99.5234 124.656 98.1328 125.672 96.9453C126.688 95.7578 127.961 94.8359 129.492 94.1797C131.023 93.5078 132.805 93.1719 134.836 93.1719C136.633 93.1719 138.242 93.4609 139.664 94.0391C141.086 94.6172 142.289 95.4453 143.273 96.5234C144.273 97.6016 145.031 98.9062 145.547 100.438C146.078 101.969 146.344 103.688 146.344 105.594V108.805H125.625V103.859H138.633V103.25C138.648 102.406 138.5 101.688 138.188 101.094C137.891 100.5 137.453 100.047 136.875 99.7344C136.297 99.4219 135.594 99.2656 134.766 99.2656C133.906 99.2656 133.195 99.4531 132.633 99.8281C132.086 100.203 131.656 100.719 131.344 101.375C131.047 102.016 130.836 102.758 130.711 103.602C130.586 104.445 130.523 105.336 130.523 106.273V107.164C130.523 108.102 130.648 108.953 130.898 109.719C131.164 110.484 131.539 111.141 132.023 111.688C132.523 112.219 133.117 112.633 133.805 112.93C134.508 113.227 135.305 113.375 136.195 113.375C137.273 113.375 138.336 113.172 139.383 112.766C140.43 112.359 141.328 111.688 142.078 110.75L145.664 115.016C145.148 115.75 144.414 116.461 143.461 117.148C142.523 117.836 141.398 118.398 140.086 118.836C138.773 119.258 137.305 119.469 135.68 119.469ZM160.266 113.375C161 113.375 161.625 113.242 162.141 112.977C162.672 112.695 163.07 112.305 163.336 111.805C163.617 111.289 163.75 110.672 163.734 109.953H171.164C171.18 111.859 170.711 113.531 169.758 114.969C168.82 116.391 167.539 117.5 165.914 118.297C164.305 119.078 162.484 119.469 160.453 119.469C158.469 119.469 156.734 119.148 155.25 118.508C153.766 117.852 152.523 116.945 151.523 115.789C150.539 114.617 149.797 113.25 149.297 111.688C148.812 110.125 148.57 108.43 148.57 106.602V106.062C148.57 104.234 148.812 102.539 149.297 100.977C149.797 99.3984 150.539 98.0312 151.523 96.875C152.523 95.7031 153.758 94.7969 155.227 94.1562C156.711 93.5 158.438 93.1719 160.406 93.1719C162.516 93.1719 164.375 93.5703 165.984 94.3672C167.609 95.1641 168.883 96.3203 169.805 97.8359C170.727 99.3516 171.18 101.188 171.164 103.344H163.734C163.75 102.578 163.633 101.891 163.383 101.281C163.133 100.672 162.742 100.188 162.211 99.8281C161.695 99.4531 161.031 99.2656 160.219 99.2656C159.406 99.2656 158.75 99.4453 158.25 99.8047C157.75 100.164 157.367 100.664 157.102 101.305C156.852 101.93 156.68 102.648 156.586 103.461C156.508 104.273 156.469 105.141 156.469 106.062V106.602C156.469 107.539 156.508 108.422 156.586 109.25C156.68 110.062 156.859 110.781 157.125 111.406C157.391 112.016 157.773 112.5 158.273 112.859C158.773 113.203 159.438 113.375 160.266 113.375ZM182.273 83V119H174.375V83H182.273ZM181.336 105.453L179.484 105.5C179.484 103.719 179.703 102.078 180.141 100.578C180.578 99.0781 181.203 97.7734 182.016 96.6641C182.828 95.5547 183.805 94.6953 184.945 94.0859C186.086 93.4766 187.352 93.1719 188.742 93.1719C189.992 93.1719 191.133 93.3516 192.164 93.7109C193.211 94.0703 194.109 94.6484 194.859 95.4453C195.625 96.2422 196.211 97.2812 196.617 98.5625C197.039 99.8438 197.25 101.406 197.25 103.25V119H189.305V103.203C189.305 102.172 189.156 101.375 188.859 100.812C188.578 100.234 188.172 99.8359 187.641 99.6172C187.109 99.3828 186.461 99.2656 185.695 99.2656C184.773 99.2656 184.023 99.4219 183.445 99.7344C182.867 100.047 182.422 100.484 182.109 101.047C181.812 101.594 181.609 102.242 181.5 102.992C181.391 103.742 181.336 104.562 181.336 105.453ZM231.539 109.93C231.539 109.398 231.461 108.922 231.305 108.5C231.148 108.062 230.859 107.656 230.438 107.281C230.016 106.906 229.406 106.531 228.609 106.156C227.828 105.766 226.797 105.359 225.516 104.938C224.016 104.438 222.57 103.875 221.18 103.25C219.789 102.609 218.547 101.867 217.453 101.023C216.359 100.164 215.492 99.1641 214.852 98.0234C214.211 96.8672 213.891 95.5234 213.891 93.9922C213.891 92.5234 214.219 91.2031 214.875 90.0312C215.531 88.8438 216.445 87.8359 217.617 87.0078C218.805 86.1641 220.195 85.5234 221.789 85.0859C223.383 84.6328 225.125 84.4062 227.016 84.4062C229.516 84.4062 231.719 84.8438 233.625 85.7188C235.547 86.5781 237.047 87.8047 238.125 89.3984C239.219 90.9766 239.766 92.8438 239.766 95H231.586C231.586 94.1406 231.406 93.3828 231.047 92.7266C230.703 92.0703 230.18 91.5547 229.477 91.1797C228.773 90.8047 227.891 90.6172 226.828 90.6172C225.797 90.6172 224.93 90.7734 224.227 91.0859C223.523 91.3984 222.992 91.8203 222.633 92.3516C222.273 92.8672 222.094 93.4375 222.094 94.0625C222.094 94.5781 222.234 95.0469 222.516 95.4688C222.812 95.875 223.227 96.2578 223.758 96.6172C224.305 96.9766 224.961 97.3203 225.727 97.6484C226.508 97.9766 227.383 98.2969 228.352 98.6094C230.164 99.1875 231.773 99.8359 233.18 100.555C234.602 101.258 235.797 102.062 236.766 102.969C237.75 103.859 238.492 104.875 238.992 106.016C239.508 107.156 239.766 108.445 239.766 109.883C239.766 111.414 239.469 112.773 238.875 113.961C238.281 115.148 237.43 116.156 236.32 116.984C235.211 117.797 233.883 118.414 232.336 118.836C230.789 119.258 229.062 119.469 227.156 119.469C225.406 119.469 223.68 119.25 221.977 118.812C220.289 118.359 218.758 117.672 217.383 116.75C216.008 115.812 214.906 114.617 214.078 113.164C213.266 111.695 212.859 109.953 212.859 107.938H221.109C221.109 108.938 221.242 109.781 221.508 110.469C221.773 111.156 222.164 111.711 222.68 112.133C223.195 112.539 223.828 112.836 224.578 113.023C225.328 113.195 226.188 113.281 227.156 113.281C228.203 113.281 229.047 113.133 229.688 112.836C230.328 112.523 230.797 112.117 231.094 111.617C231.391 111.102 231.539 110.539 231.539 109.93ZM256.992 93.6406V99.125H241.711V93.6406H256.992ZM244.922 87.3359H252.82V110.727C252.82 111.398 252.898 111.922 253.055 112.297C253.211 112.656 253.477 112.914 253.852 113.07C254.242 113.211 254.758 113.281 255.398 113.281C255.852 113.281 256.227 113.273 256.523 113.258C256.82 113.227 257.102 113.188 257.367 113.141V118.789C256.695 119.008 255.992 119.172 255.258 119.281C254.523 119.406 253.742 119.469 252.914 119.469C251.227 119.469 249.781 119.203 248.578 118.672C247.391 118.141 246.484 117.305 245.859 116.164C245.234 115.023 244.922 113.539 244.922 111.711V87.3359ZM273.305 112.625V102.172C273.305 101.453 273.203 100.836 273 100.32C272.797 99.8047 272.477 99.4062 272.039 99.125C271.602 98.8281 271.016 98.6797 270.281 98.6797C269.688 98.6797 269.18 98.7812 268.758 98.9844C268.336 99.1875 268.016 99.4922 267.797 99.8984C267.578 100.305 267.469 100.82 267.469 101.445H259.57C259.57 100.273 259.828 99.1875 260.344 98.1875C260.875 97.1719 261.625 96.2891 262.594 95.5391C263.578 94.7891 264.75 94.2109 266.109 93.8047C267.484 93.3828 269.016 93.1719 270.703 93.1719C272.719 93.1719 274.516 93.5078 276.094 94.1797C277.688 94.8516 278.945 95.8594 279.867 97.2031C280.789 98.5312 281.25 100.203 281.25 102.219V112.602C281.25 114.258 281.344 115.516 281.531 116.375C281.719 117.219 281.984 117.961 282.328 118.602V119H274.406C274.031 118.219 273.75 117.266 273.562 116.141C273.391 115 273.305 113.828 273.305 112.625ZM274.266 103.508L274.312 107.727H270.82C270.086 107.727 269.461 107.828 268.945 108.031C268.445 108.234 268.039 108.516 267.727 108.875C267.43 109.219 267.211 109.609 267.07 110.047C266.945 110.484 266.883 110.945 266.883 111.43C266.883 111.898 266.992 112.32 267.211 112.695C267.445 113.055 267.758 113.336 268.148 113.539C268.539 113.742 268.977 113.844 269.461 113.844C270.336 113.844 271.078 113.68 271.688 113.352C272.312 113.008 272.789 112.594 273.117 112.109C273.445 111.625 273.609 111.172 273.609 110.75L275.344 113.984C275.031 114.609 274.672 115.242 274.266 115.883C273.875 116.523 273.383 117.117 272.789 117.664C272.211 118.195 271.5 118.633 270.656 118.977C269.812 119.305 268.789 119.469 267.586 119.469C266.023 119.469 264.586 119.148 263.273 118.508C261.977 117.867 260.938 116.977 260.156 115.836C259.375 114.68 258.984 113.352 258.984 111.852C258.984 110.539 259.219 109.367 259.688 108.336C260.172 107.305 260.898 106.43 261.867 105.711C262.836 104.992 264.07 104.445 265.57 104.07C267.07 103.695 268.836 103.508 270.867 103.508H274.266ZM296.344 113.375C297.078 113.375 297.703 113.242 298.219 112.977C298.75 112.695 299.148 112.305 299.414 111.805C299.695 111.289 299.828 110.672 299.812 109.953H307.242C307.258 111.859 306.789 113.531 305.836 114.969C304.898 116.391 303.617 117.5 301.992 118.297C300.383 119.078 298.562 119.469 296.531 119.469C294.547 119.469 292.812 119.148 291.328 118.508C289.844 117.852 288.602 116.945 287.602 115.789C286.617 114.617 285.875 113.25 285.375 111.688C284.891 110.125 284.648 108.43 284.648 106.602V106.062C284.648 104.234 284.891 102.539 285.375 100.977C285.875 99.3984 286.617 98.0312 287.602 96.875C288.602 95.7031 289.836 94.7969 291.305 94.1562C292.789 93.5 294.516 93.1719 296.484 93.1719C298.594 93.1719 300.453 93.5703 302.062 94.3672C303.688 95.1641 304.961 96.3203 305.883 97.8359C306.805 99.3516 307.258 101.188 307.242 103.344H299.812C299.828 102.578 299.711 101.891 299.461 101.281C299.211 100.672 298.82 100.188 298.289 99.8281C297.773 99.4531 297.109 99.2656 296.297 99.2656C295.484 99.2656 294.828 99.4453 294.328 99.8047C293.828 100.164 293.445 100.664 293.18 101.305C292.93 101.93 292.758 102.648 292.664 103.461C292.586 104.273 292.547 105.141 292.547 106.062V106.602C292.547 107.539 292.586 108.422 292.664 109.25C292.758 110.062 292.938 110.781 293.203 111.406C293.469 112.016 293.852 112.5 294.352 112.859C294.852 113.203 295.516 113.375 296.344 113.375ZM318.586 82.9766V119H310.688V82.9766H318.586ZM334.805 93.6406L323.789 106.555L318.023 112.32L314.578 107.305L319.383 101.047L325.336 93.6406H334.805ZM326.344 119L319.57 107.445L325.406 103.297L335.391 119H326.344ZM350.156 111.875C350.156 111.438 350.008 111.062 349.711 110.75C349.43 110.422 348.93 110.125 348.211 109.859C347.492 109.578 346.484 109.297 345.188 109.016C343.953 108.75 342.789 108.398 341.695 107.961C340.617 107.523 339.672 106.992 338.859 106.367C338.047 105.742 337.406 105 336.938 104.141C336.484 103.281 336.258 102.297 336.258 101.188C336.258 100.109 336.484 99.0938 336.938 98.1406C337.406 97.1719 338.086 96.3203 338.977 95.5859C339.883 94.8359 340.984 94.25 342.281 93.8281C343.578 93.3906 345.055 93.1719 346.711 93.1719C348.992 93.1719 350.961 93.5234 352.617 94.2266C354.273 94.9141 355.547 95.8828 356.438 97.1328C357.344 98.3672 357.797 99.7969 357.797 101.422H349.898C349.898 100.781 349.789 100.234 349.57 99.7812C349.367 99.3281 349.031 98.9844 348.562 98.75C348.094 98.5 347.469 98.375 346.688 98.375C346.141 98.375 345.641 98.4766 345.188 98.6797C344.75 98.8828 344.398 99.1641 344.133 99.5234C343.867 99.8828 343.734 100.305 343.734 100.789C343.734 101.133 343.812 101.445 343.969 101.727C344.141 101.992 344.398 102.242 344.742 102.477C345.086 102.695 345.523 102.898 346.055 103.086C346.586 103.258 347.227 103.414 347.977 103.555C349.68 103.867 351.273 104.312 352.758 104.891C354.242 105.469 355.445 106.289 356.367 107.352C357.305 108.414 357.773 109.844 357.773 111.641C357.773 112.766 357.516 113.805 357 114.758C356.484 115.695 355.742 116.523 354.773 117.242C353.805 117.945 352.641 118.492 351.281 118.883C349.922 119.273 348.391 119.469 346.688 119.469C344.266 119.469 342.219 119.039 340.547 118.18C338.875 117.305 337.609 116.211 336.75 114.898C335.906 113.57 335.484 112.227 335.484 110.867H342.844C342.875 111.648 343.062 112.289 343.406 112.789C343.766 113.289 344.242 113.656 344.836 113.891C345.43 114.125 346.117 114.242 346.898 114.242C347.617 114.242 348.211 114.141 348.68 113.938C349.164 113.734 349.531 113.461 349.781 113.117C350.031 112.758 350.156 112.344 350.156 111.875Z" fill="black"/>
<path d="M1134 0H1348C1356.28 0 1363 6.71573 1363 15V148C1363 156.284 1356.28 163 1348 163H1134V0Z" fill="#058789"/>
<path fill-rule="evenodd" clip-rule="evenodd" d="M1219.98 53C1219.85 53 1219.73 53.0527 1219.64 53.1464C1219.55 53.2402 1219.5 53.3674 1219.5 53.5V109.5C1219.5 109.633 1219.55 109.76 1219.64 109.854C1219.73 109.947 1219.85 110 1219.98 110H1277.02C1277.15 110 1277.27 109.947 1277.36 109.854C1277.45 109.76 1277.5 109.633 1277.5 109.5V64C1277.5 63.8674 1277.45 63.7402 1277.36 63.6464C1277.27 63.5527 1277.15 63.5 1277.02 63.5H1248.5C1247.65 63.5 1246.84 63.1045 1246.29 62.4206L1238.77 53H1219.98ZM1215.58 48.9038C1216.74 47.6848 1218.33 47 1219.98 47H1240.11C1240.97 47 1241.77 47.3955 1242.32 48.0794L1249.85 57.5H1277.02C1278.67 57.5 1280.26 58.1848 1281.42 59.4038C1282.59 60.6228 1283.25 62.2761 1283.25 64V109.5C1283.25 111.224 1282.59 112.877 1281.42 114.096C1280.26 115.315 1278.67 116 1277.02 116H1219.98C1218.33 116 1216.74 115.315 1215.58 114.096C1214.41 112.877 1213.75 111.224 1213.75 109.5V53.5C1213.75 51.7761 1214.41 50.1228 1215.58 48.9038Z" fill="white"/>
<path fill-rule="evenodd" clip-rule="evenodd" d="M1244.16 75.5251C1245.47 76.892 1245.47 79.108 1244.16 80.4749L1238.15 86.75L1244.16 93.0251C1245.47 94.392 1245.47 96.608 1244.16 97.9749C1242.85 99.3417 1240.73 99.3417 1239.42 97.9749L1231.03 89.2249C1229.72 87.858 1229.72 85.642 1231.03 84.2751L1239.42 75.5251C1240.73 74.1583 1242.85 74.1583 1244.16 75.5251Z" fill="white"/>
<path fill-rule="evenodd" clip-rule="evenodd" d="M1252.12 97.9749C1250.81 96.608 1250.81 94.392 1252.12 93.0251L1258.13 86.75L1252.12 80.4749C1250.81 79.108 1250.81 76.892 1252.12 75.5251C1253.43 74.1583 1255.55 74.1583 1256.86 75.5251L1265.25 84.2751C1266.56 85.642 1266.56 87.858 1265.25 89.2249L1256.86 97.9749C1255.55 99.3417 1253.43 99.3417 1252.12 97.9749Z" fill="white"/>
</svg>
