<svg width="1363" height="163" viewBox="0 0 1363 163" fill="none" xmlns="http://www.w3.org/2000/svg">
<path d="M0 15C0 6.71573 6.71573 0 15 0H37V163H15C6.71573 163 0 156.284 0 148V15Z" fill="#424242"/>
<rect width="1097" height="163" transform="translate(37)" fill="#F0F0F0"/>
<path d="M101.906 53.9219L94.3945 51.2383V48.0859L104.602 52.375V54.6367L101.906 53.9219ZM94.3945 56.1719L101.918 53.4297L104.602 52.7852V55.0352L94.3945 59.3242V56.1719ZM118.137 61H114.422L114.445 58.2578H118.137C119.059 58.2578 119.836 58.0508 120.469 57.6367C121.102 57.2148 121.578 56.6016 121.898 55.7969C122.227 54.9922 122.391 54.0195 122.391 52.8789V52.0469C122.391 51.1719 122.297 50.4023 122.109 49.7383C121.93 49.0742 121.66 48.5156 121.301 48.0625C120.941 47.6094 120.5 47.2695 119.977 47.043C119.453 46.8086 118.852 46.6914 118.172 46.6914H114.352V43.9375H118.172C119.312 43.9375 120.355 44.1328 121.301 44.5234C122.254 44.9062 123.078 45.457 123.773 46.1758C124.469 46.8945 125.004 47.7539 125.379 48.7539C125.762 49.7461 125.953 50.8516 125.953 52.0703V52.8789C125.953 54.0898 125.762 55.1953 125.379 56.1953C125.004 57.1953 124.469 58.0547 123.773 58.7734C123.086 59.4844 122.262 60.0352 121.301 60.4258C120.348 60.8086 119.293 61 118.137 61ZM116.414 43.9375V61H112.898V43.9375H116.414ZM127.758 54.7891V54.543C127.758 53.6133 127.891 52.7578 128.156 51.9766C128.422 51.1875 128.809 50.5039 129.316 49.9258C129.824 49.3477 130.449 48.8984 131.191 48.5781C131.934 48.25 132.785 48.0859 133.746 48.0859C134.707 48.0859 135.562 48.25 136.312 48.5781C137.062 48.8984 137.691 49.3477 138.199 49.9258C138.715 50.5039 139.105 51.1875 139.371 51.9766C139.637 52.7578 139.77 53.6133 139.77 54.543V54.7891C139.77 55.7109 139.637 56.5664 139.371 57.3555C139.105 58.1367 138.715 58.8203 138.199 59.4062C137.691 59.9844 137.066 60.4336 136.324 60.7539C135.582 61.0742 134.73 61.2344 133.77 61.2344C132.809 61.2344 131.953 61.0742 131.203 60.7539C130.461 60.4336 129.832 59.9844 129.316 59.4062C128.809 58.8203 128.422 58.1367 128.156 57.3555C127.891 56.5664 127.758 55.7109 127.758 54.7891ZM131.133 54.543V54.7891C131.133 55.3203 131.18 55.8164 131.273 56.2773C131.367 56.7383 131.516 57.1445 131.719 57.4961C131.93 57.8398 132.203 58.1094 132.539 58.3047C132.875 58.5 133.285 58.5977 133.77 58.5977C134.238 58.5977 134.641 58.5 134.977 58.3047C135.312 58.1094 135.582 57.8398 135.785 57.4961C135.988 57.1445 136.137 56.7383 136.23 56.2773C136.332 55.8164 136.383 55.3203 136.383 54.7891V54.543C136.383 54.0273 136.332 53.543 136.23 53.0898C136.137 52.6289 135.984 52.2227 135.773 51.8711C135.57 51.5117 135.301 51.2305 134.965 51.0273C134.629 50.8242 134.223 50.7227 133.746 50.7227C133.27 50.7227 132.863 50.8242 132.527 51.0273C132.199 51.2305 131.93 51.5117 131.719 51.8711C131.516 52.2227 131.367 52.6289 131.273 53.0898C131.18 53.543 131.133 54.0273 131.133 54.543ZM155.578 52.082V58.8438C155.312 59.1641 154.902 59.5117 154.348 59.8867C153.793 60.2539 153.078 60.5703 152.203 60.8359C151.328 61.1016 150.27 61.2344 149.027 61.2344C147.926 61.2344 146.922 61.0547 146.016 60.6953C145.109 60.3281 144.328 59.793 143.672 59.0898C143.023 58.3867 142.523 57.5273 142.172 56.5117C141.82 55.4883 141.645 54.3203 141.645 53.0078V51.9414C141.645 50.6289 141.812 49.4609 142.148 48.4375C142.492 47.4141 142.98 46.5508 143.613 45.8477C144.246 45.1445 145 44.6094 145.875 44.2422C146.75 43.875 147.723 43.6914 148.793 43.6914C150.277 43.6914 151.496 43.9336 152.449 44.418C153.402 44.8945 154.129 45.5586 154.629 46.4102C155.137 47.2539 155.449 48.2227 155.566 49.3164H152.156C152.07 48.7383 151.906 48.2344 151.664 47.8047C151.422 47.375 151.074 47.0391 150.621 46.7969C150.176 46.5547 149.598 46.4336 148.887 46.4336C148.301 46.4336 147.777 46.5547 147.316 46.7969C146.863 47.0312 146.48 47.3789 146.168 47.8398C145.855 48.3008 145.617 48.8711 145.453 49.5508C145.289 50.2305 145.207 51.0195 145.207 51.918V53.0078C145.207 53.8984 145.293 54.6875 145.465 55.375C145.637 56.0547 145.891 56.6289 146.227 57.0977C146.57 57.5586 146.992 57.9062 147.492 58.1406C147.992 58.375 148.574 58.4922 149.238 58.4922C149.793 58.4922 150.254 58.4453 150.621 58.3516C150.996 58.2578 151.297 58.1445 151.523 58.0117C151.758 57.8711 151.938 57.7383 152.062 57.6133V54.5898H148.852V52.082H155.578ZM157.664 54.7891V54.543C157.664 53.6133 157.797 52.7578 158.062 51.9766C158.328 51.1875 158.715 50.5039 159.223 49.9258C159.73 49.3477 160.355 48.8984 161.098 48.5781C161.84 48.25 162.691 48.0859 163.652 48.0859C164.613 48.0859 165.469 48.25 166.219 48.5781C166.969 48.8984 167.598 49.3477 168.105 49.9258C168.621 50.5039 169.012 51.1875 169.277 51.9766C169.543 52.7578 169.676 53.6133 169.676 54.543V54.7891C169.676 55.7109 169.543 56.5664 169.277 57.3555C169.012 58.1367 168.621 58.8203 168.105 59.4062C167.598 59.9844 166.973 60.4336 166.23 60.7539C165.488 61.0742 164.637 61.2344 163.676 61.2344C162.715 61.2344 161.859 61.0742 161.109 60.7539C160.367 60.4336 159.738 59.9844 159.223 59.4062C158.715 58.8203 158.328 58.1367 158.062 57.3555C157.797 56.5664 157.664 55.7109 157.664 54.7891ZM161.039 54.543V54.7891C161.039 55.3203 161.086 55.8164 161.18 56.2773C161.273 56.7383 161.422 57.1445 161.625 57.4961C161.836 57.8398 162.109 58.1094 162.445 58.3047C162.781 58.5 163.191 58.5977 163.676 58.5977C164.145 58.5977 164.547 58.5 164.883 58.3047C165.219 58.1094 165.488 57.8398 165.691 57.4961C165.895 57.1445 166.043 56.7383 166.137 56.2773C166.238 55.8164 166.289 55.3203 166.289 54.7891V54.543C166.289 54.0273 166.238 53.543 166.137 53.0898C166.043 52.6289 165.891 52.2227 165.68 51.8711C165.477 51.5117 165.207 51.2305 164.871 51.0273C164.535 50.8242 164.129 50.7227 163.652 50.7227C163.176 50.7227 162.77 50.8242 162.434 51.0273C162.105 51.2305 161.836 51.5117 161.625 51.8711C161.422 52.2227 161.273 52.6289 161.18 53.0898C161.086 53.543 161.039 54.0273 161.039 54.543ZM171.211 54.7891V54.543C171.211 53.6133 171.344 52.7578 171.609 51.9766C171.875 51.1875 172.262 50.5039 172.77 49.9258C173.277 49.3477 173.902 48.8984 174.645 48.5781C175.387 48.25 176.238 48.0859 177.199 48.0859C178.16 48.0859 179.016 48.25 179.766 48.5781C180.516 48.8984 181.145 49.3477 181.652 49.9258C182.168 50.5039 182.559 51.1875 182.824 51.9766C183.09 52.7578 183.223 53.6133 183.223 54.543V54.7891C183.223 55.7109 183.09 56.5664 182.824 57.3555C182.559 58.1367 182.168 58.8203 181.652 59.4062C181.145 59.9844 180.52 60.4336 179.777 60.7539C179.035 61.0742 178.184 61.2344 177.223 61.2344C176.262 61.2344 175.406 61.0742 174.656 60.7539C173.914 60.4336 173.285 59.9844 172.77 59.4062C172.262 58.8203 171.875 58.1367 171.609 57.3555C171.344 56.5664 171.211 55.7109 171.211 54.7891ZM174.586 54.543V54.7891C174.586 55.3203 174.633 55.8164 174.727 56.2773C174.82 56.7383 174.969 57.1445 175.172 57.4961C175.383 57.8398 175.656 58.1094 175.992 58.3047C176.328 58.5 176.738 58.5977 177.223 58.5977C177.691 58.5977 178.094 58.5 178.43 58.3047C178.766 58.1094 179.035 57.8398 179.238 57.4961C179.441 57.1445 179.59 56.7383 179.684 56.2773C179.785 55.8164 179.836 55.3203 179.836 54.7891V54.543C179.836 54.0273 179.785 53.543 179.684 53.0898C179.59 52.6289 179.438 52.2227 179.227 51.8711C179.023 51.5117 178.754 51.2305 178.418 51.0273C178.082 50.8242 177.676 50.7227 177.199 50.7227C176.723 50.7227 176.316 50.8242 175.98 51.0273C175.652 51.2305 175.383 51.5117 175.172 51.8711C174.969 52.2227 174.82 52.6289 174.727 53.0898C174.633 53.543 174.586 54.0273 174.586 54.543ZM192.785 58.2344V43H196.184V61H193.125L192.785 58.2344ZM184.77 54.8125V54.5664C184.77 53.5977 184.879 52.7188 185.098 51.9297C185.316 51.1328 185.637 50.4492 186.059 49.8789C186.48 49.3086 187 48.8672 187.617 48.5547C188.234 48.2422 188.938 48.0859 189.727 48.0859C190.469 48.0859 191.117 48.2422 191.672 48.5547C192.234 48.8672 192.711 49.3125 193.102 49.8906C193.5 50.4609 193.82 51.1367 194.062 51.918C194.305 52.6914 194.48 53.5391 194.59 54.4609V55C194.48 55.8828 194.305 56.7031 194.062 57.4609C193.82 58.2188 193.5 58.8828 193.102 59.4531C192.711 60.0156 192.234 60.4531 191.672 60.7656C191.109 61.0781 190.453 61.2344 189.703 61.2344C188.914 61.2344 188.211 61.0742 187.594 60.7539C186.984 60.4336 186.469 59.9844 186.047 59.4062C185.633 58.8281 185.316 58.1484 185.098 57.3672C184.879 56.5859 184.77 55.7344 184.77 54.8125ZM188.145 54.5664V54.8125C188.145 55.3359 188.184 55.8242 188.262 56.2773C188.348 56.7305 188.484 57.1328 188.672 57.4844C188.867 57.8281 189.117 58.0977 189.422 58.293C189.734 58.4805 190.113 58.5742 190.559 58.5742C191.137 58.5742 191.613 58.4453 191.988 58.1875C192.363 57.9219 192.648 57.5586 192.844 57.0977C193.047 56.6367 193.164 56.1055 193.195 55.5039V53.9688C193.172 53.4766 193.102 53.0352 192.984 52.6445C192.875 52.2461 192.711 51.9062 192.492 51.625C192.281 51.3438 192.016 51.125 191.695 50.9688C191.383 50.8125 191.012 50.7344 190.582 50.7344C190.145 50.7344 189.77 50.8359 189.457 51.0391C189.145 51.2344 188.891 51.5039 188.695 51.8477C188.508 52.1914 188.367 52.5977 188.273 53.0664C188.188 53.5273 188.145 54.0273 188.145 54.5664ZM198.984 59.3711C198.984 58.8711 199.156 58.4531 199.5 58.1172C199.852 57.7812 200.316 57.6133 200.895 57.6133C201.473 57.6133 201.934 57.7812 202.277 58.1172C202.629 58.4531 202.805 58.8711 202.805 59.3711C202.805 59.8711 202.629 60.2891 202.277 60.625C201.934 60.9609 201.473 61.1289 200.895 61.1289C200.316 61.1289 199.852 60.9609 199.5 60.625C199.156 60.2891 198.984 59.8711 198.984 59.3711ZM209.344 48.3203V61H205.957V48.3203H209.344ZM205.746 45.0156C205.746 44.5234 205.918 44.1172 206.262 43.7969C206.605 43.4766 207.066 43.3164 207.645 43.3164C208.215 43.3164 208.672 43.4766 209.016 43.7969C209.367 44.1172 209.543 44.5234 209.543 45.0156C209.543 45.5078 209.367 45.9141 209.016 46.2344C208.672 46.5547 208.215 46.7148 207.645 46.7148C207.066 46.7148 206.605 46.5547 206.262 46.2344C205.918 45.9141 205.746 45.5078 205.746 45.0156ZM211.594 54.7891V54.543C211.594 53.6133 211.727 52.7578 211.992 51.9766C212.258 51.1875 212.645 50.5039 213.152 49.9258C213.66 49.3477 214.285 48.8984 215.027 48.5781C215.77 48.25 216.621 48.0859 217.582 48.0859C218.543 48.0859 219.398 48.25 220.148 48.5781C220.898 48.8984 221.527 49.3477 222.035 49.9258C222.551 50.5039 222.941 51.1875 223.207 51.9766C223.473 52.7578 223.605 53.6133 223.605 54.543V54.7891C223.605 55.7109 223.473 56.5664 223.207 57.3555C222.941 58.1367 222.551 58.8203 222.035 59.4062C221.527 59.9844 220.902 60.4336 220.16 60.7539C219.418 61.0742 218.566 61.2344 217.605 61.2344C216.645 61.2344 215.789 61.0742 215.039 60.7539C214.297 60.4336 213.668 59.9844 213.152 59.4062C212.645 58.8203 212.258 58.1367 211.992 57.3555C211.727 56.5664 211.594 55.7109 211.594 54.7891ZM214.969 54.543V54.7891C214.969 55.3203 215.016 55.8164 215.109 56.2773C215.203 56.7383 215.352 57.1445 215.555 57.4961C215.766 57.8398 216.039 58.1094 216.375 58.3047C216.711 58.5 217.121 58.5977 217.605 58.5977C218.074 58.5977 218.477 58.5 218.812 58.3047C219.148 58.1094 219.418 57.8398 219.621 57.4961C219.824 57.1445 219.973 56.7383 220.066 56.2773C220.168 55.8164 220.219 55.3203 220.219 54.7891V54.543C220.219 54.0273 220.168 53.543 220.066 53.0898C219.973 52.6289 219.82 52.2227 219.609 51.8711C219.406 51.5117 219.137 51.2305 218.801 51.0273C218.465 50.8242 218.059 50.7227 217.582 50.7227C217.105 50.7227 216.699 50.8242 216.363 51.0273C216.035 51.2305 215.766 51.5117 215.555 51.8711C215.352 52.2227 215.203 52.6289 215.109 53.0898C215.016 53.543 214.969 54.0273 214.969 54.543Z" fill="#888888"/>
<path d="M118.594 98.4219V104.75H101.086V98.4219H118.594ZM103.828 84.875V119H95.6016V84.875H103.828ZM124.125 84.875V119H115.922V84.875H124.125ZM127.992 106.578V106.086C127.992 104.227 128.258 102.516 128.789 100.953C129.32 99.375 130.102 98.0078 131.133 96.8516C132.164 95.6953 133.438 94.7969 134.953 94.1562C136.469 93.5 138.219 93.1719 140.203 93.1719C142.203 93.1719 143.961 93.5 145.477 94.1562C147.008 94.7969 148.289 95.6953 149.32 96.8516C150.352 98.0078 151.133 99.375 151.664 100.953C152.195 102.516 152.461 104.227 152.461 106.086V106.578C152.461 108.422 152.195 110.133 151.664 111.711C151.133 113.273 150.352 114.641 149.32 115.812C148.289 116.969 147.016 117.867 145.5 118.508C143.984 119.148 142.234 119.469 140.25 119.469C138.266 119.469 136.508 119.148 134.977 118.508C133.445 117.867 132.164 116.969 131.133 115.812C130.102 114.641 129.32 113.273 128.789 111.711C128.258 110.133 127.992 108.422 127.992 106.578ZM135.891 106.086V106.578C135.891 107.531 135.961 108.422 136.102 109.25C136.242 110.078 136.477 110.805 136.805 111.43C137.133 112.039 137.578 112.516 138.141 112.859C138.703 113.203 139.406 113.375 140.25 113.375C141.078 113.375 141.766 113.203 142.312 112.859C142.875 112.516 143.32 112.039 143.648 111.43C143.977 110.805 144.211 110.078 144.352 109.25C144.492 108.422 144.562 107.531 144.562 106.578V106.086C144.562 105.164 144.492 104.297 144.352 103.484C144.211 102.656 143.977 101.93 143.648 101.305C143.32 100.664 142.875 100.164 142.312 99.8047C141.75 99.4453 141.047 99.2656 140.203 99.2656C139.375 99.2656 138.68 99.4453 138.117 99.8047C137.57 100.164 137.133 100.664 136.805 101.305C136.477 101.93 136.242 102.656 136.102 103.484C135.961 104.297 135.891 105.164 135.891 106.086ZM163.688 111.453L168.375 93.6406H173.32L171.562 102.57L166.922 119H162.961L163.688 111.453ZM161.836 93.6406L164.742 111.312L165.07 119H160.266L154.266 93.6406H161.836ZM177.492 110.938L180.422 93.6406H187.992L182.039 119H177.234L177.492 110.938ZM173.883 93.6406L178.617 111.406L179.344 119H175.336L170.789 102.617L169.102 93.6406H173.883ZM218.297 84.875V119H210.07V84.875H218.297ZM228.562 84.875V91.2266H200.039V84.875H228.562ZM225.773 106.578V106.086C225.773 104.227 226.039 102.516 226.57 100.953C227.102 99.375 227.883 98.0078 228.914 96.8516C229.945 95.6953 231.219 94.7969 232.734 94.1562C234.25 93.5 236 93.1719 237.984 93.1719C239.984 93.1719 241.742 93.5 243.258 94.1562C244.789 94.7969 246.07 95.6953 247.102 96.8516C248.133 98.0078 248.914 99.375 249.445 100.953C249.977 102.516 250.242 104.227 250.242 106.086V106.578C250.242 108.422 249.977 110.133 249.445 111.711C248.914 113.273 248.133 114.641 247.102 115.812C246.07 116.969 244.797 117.867 243.281 118.508C241.766 119.148 240.016 119.469 238.031 119.469C236.047 119.469 234.289 119.148 232.758 118.508C231.227 117.867 229.945 116.969 228.914 115.812C227.883 114.641 227.102 113.273 226.57 111.711C226.039 110.133 225.773 108.422 225.773 106.578ZM233.672 106.086V106.578C233.672 107.531 233.742 108.422 233.883 109.25C234.023 110.078 234.258 110.805 234.586 111.43C234.914 112.039 235.359 112.516 235.922 112.859C236.484 113.203 237.188 113.375 238.031 113.375C238.859 113.375 239.547 113.203 240.094 112.859C240.656 112.516 241.102 112.039 241.43 111.43C241.758 110.805 241.992 110.078 242.133 109.25C242.273 108.422 242.344 107.531 242.344 106.578V106.086C242.344 105.164 242.273 104.297 242.133 103.484C241.992 102.656 241.758 101.93 241.43 101.305C241.102 100.664 240.656 100.164 240.094 99.8047C239.531 99.4453 238.828 99.2656 237.984 99.2656C237.156 99.2656 236.461 99.4453 235.898 99.8047C235.352 100.164 234.914 100.664 234.586 101.305C234.258 101.93 234.023 102.656 233.883 103.484C233.742 104.297 233.672 105.164 233.672 106.086ZM266.086 84.875H279.516C282.141 84.875 284.422 85.2656 286.359 86.0469C288.297 86.8281 289.789 87.9844 290.836 89.5156C291.898 91.0469 292.43 92.9375 292.43 95.1875C292.43 97.1406 292.125 98.7734 291.516 100.086C290.906 101.398 290.055 102.484 288.961 103.344C287.883 104.188 286.625 104.883 285.188 105.43L282.492 106.953H271.219L271.172 100.602H279.516C280.562 100.602 281.43 100.414 282.117 100.039C282.805 99.6641 283.32 99.1328 283.664 98.4453C284.023 97.7422 284.203 96.9062 284.203 95.9375C284.203 94.9531 284.023 94.1094 283.664 93.4062C283.305 92.7031 282.773 92.1641 282.07 91.7891C281.383 91.4141 280.531 91.2266 279.516 91.2266H274.312V119H266.086V84.875ZM284.766 119L277.219 103.906L285.938 103.859L293.578 118.648V119H284.766ZM311.836 112.836V93.6406H319.758V119H312.352L311.836 112.836ZM312.586 107.68L314.648 107.633C314.648 109.336 314.445 110.914 314.039 112.367C313.633 113.805 313.031 115.055 312.234 116.117C311.453 117.18 310.484 118.008 309.328 118.602C308.188 119.18 306.867 119.469 305.367 119.469C304.117 119.469 302.969 119.297 301.922 118.953C300.891 118.594 300 118.039 299.25 117.289C298.5 116.523 297.914 115.547 297.492 114.359C297.086 113.156 296.883 111.719 296.883 110.047V93.6406H304.781V110.094C304.781 110.656 304.852 111.141 304.992 111.547C305.133 111.953 305.336 112.297 305.602 112.578C305.867 112.844 306.195 113.047 306.586 113.188C306.992 113.312 307.453 113.375 307.969 113.375C309.156 113.375 310.086 113.125 310.758 112.625C311.43 112.125 311.898 111.445 312.164 110.586C312.445 109.727 312.586 108.758 312.586 107.68ZM331.875 99.0547V119H323.977V93.6406H331.383L331.875 99.0547ZM330.938 105.453L329.086 105.5C329.086 103.562 329.32 101.836 329.789 100.32C330.258 98.7891 330.922 97.4922 331.781 96.4297C332.641 95.3672 333.664 94.5625 334.852 94.0156C336.055 93.4531 337.391 93.1719 338.859 93.1719C340.031 93.1719 341.102 93.3438 342.07 93.6875C343.055 94.0312 343.898 94.5859 344.602 95.3516C345.32 96.1172 345.867 97.1328 346.242 98.3984C346.633 99.6484 346.828 101.195 346.828 103.039V119H338.883V103.016C338.883 102 338.742 101.227 338.461 100.695C338.18 100.148 337.773 99.7734 337.242 99.5703C336.711 99.3672 336.062 99.2656 335.297 99.2656C334.484 99.2656 333.797 99.4219 333.234 99.7344C332.672 100.047 332.219 100.484 331.875 101.047C331.547 101.594 331.305 102.242 331.148 102.992C331.008 103.742 330.938 104.562 330.938 105.453ZM363.773 108.195H357.047C357.047 106.82 357.141 105.609 357.328 104.562C357.531 103.5 357.875 102.547 358.359 101.703C358.844 100.859 359.5 100.078 360.328 99.3594C361.062 98.75 361.695 98.1641 362.227 97.6016C362.758 97.0391 363.164 96.4688 363.445 95.8906C363.727 95.3125 363.867 94.6953 363.867 94.0391C363.867 93.2266 363.75 92.5625 363.516 92.0469C363.297 91.5312 362.961 91.1484 362.508 90.8984C362.07 90.6328 361.516 90.5 360.844 90.5C360.297 90.5 359.781 90.6328 359.297 90.8984C358.828 91.1641 358.445 91.5781 358.148 92.1406C357.852 92.6875 357.688 93.4141 357.656 94.3203H349.711C349.758 91.9922 350.273 90.1016 351.258 88.6484C352.258 87.1797 353.586 86.1094 355.242 85.4375C356.914 84.75 358.781 84.4062 360.844 84.4062C363.125 84.4062 365.086 84.7578 366.727 85.4609C368.367 86.1641 369.625 87.2109 370.5 88.6016C371.375 89.9766 371.812 91.6719 371.812 93.6875C371.812 95.0312 371.555 96.2031 371.039 97.2031C370.539 98.1875 369.859 99.1094 369 99.9688C368.156 100.812 367.211 101.719 366.164 102.688C365.258 103.484 364.641 104.297 364.312 105.125C363.984 105.938 363.805 106.961 363.773 108.195ZM356.086 115.32C356.086 114.195 356.492 113.258 357.305 112.508C358.117 111.742 359.172 111.359 360.469 111.359C361.766 111.359 362.82 111.742 363.633 112.508C364.445 113.258 364.852 114.195 364.852 115.32C364.852 116.445 364.445 117.391 363.633 118.156C362.82 118.906 361.766 119.281 360.469 119.281C359.172 119.281 358.117 118.906 357.305 118.156C356.492 117.391 356.086 116.445 356.086 115.32Z" fill="black"/>
<path d="M1134 0H1348C1356.28 0 1363 6.71573 1363 15V148C1363 156.284 1356.28 163 1348 163H1134V0Z" fill="#058789"/>
<path d="M1260.62 78.8847C1263.81 78.8847 1266.93 79.805 1269.59 81.5293C1272.25 83.2536 1274.32 85.7044 1275.54 88.5718C1276.76 91.4391 1277.08 94.5943 1276.46 97.6383C1275.84 100.682 1274.3 103.478 1272.04 105.673C1269.78 107.868 1266.9 109.362 1263.77 109.968C1260.63 110.573 1257.39 110.262 1254.43 109.075C1251.48 107.887 1248.96 105.876 1247.18 103.295C1245.41 100.714 1244.46 97.6806 1244.46 94.5769C1244.46 90.4151 1246.16 86.4237 1249.19 83.4808C1252.22 80.538 1256.33 78.8847 1260.62 78.8847ZM1260.62 73.6539C1256.36 73.6539 1252.19 74.881 1248.65 77.1801C1245.11 79.4791 1242.35 82.7469 1240.72 86.57C1239.09 90.3932 1238.66 94.6001 1239.49 98.6588C1240.32 102.717 1242.37 106.446 1245.39 109.372C1248.4 112.298 1252.24 114.291 1256.41 115.098C1260.59 115.905 1264.92 115.491 1268.86 113.907C1272.79 112.324 1276.16 109.642 1278.52 106.201C1280.89 102.76 1282.15 98.7151 1282.15 94.5769C1282.15 89.0278 1279.88 83.706 1275.85 79.7821C1271.81 75.8583 1266.33 73.6539 1260.62 73.6539Z" fill="white"/>
<path d="M1274.08 47.5H1220.23C1218.8 47.5 1217.43 48.0511 1216.42 49.0321C1215.41 50.013 1214.85 51.3435 1214.85 52.7307V105.038C1214.85 106.426 1215.41 107.756 1216.42 108.737C1217.43 109.718 1218.8 110.269 1220.23 110.269H1231V105.038H1220.23V68.423H1279.46V52.7307C1279.46 51.3435 1278.89 50.013 1277.88 49.0321C1276.87 48.0511 1275.5 47.5 1274.08 47.5ZM1220.23 63.1922V52.7307H1274.08V63.1922H1220.23Z" fill="white"/>
<path d="M1255.23 86.731V102.423L1268.69 94.5771L1255.23 86.731Z" fill="white"/>
</svg>
