<svg width="1363" height="163" viewBox="0 0 1363 163" fill="none" xmlns="http://www.w3.org/2000/svg">
<path d="M0 15C0 6.71573 6.71573 0 15 0H37V163H15C6.71573 163 0 156.284 0 148V15Z" fill="#424242"/>
<rect width="1097" height="163" transform="translate(37)" fill="#F0F0F0"/>
<path d="M101.906 53.9219L94.3945 51.2383V48.0859L104.602 52.375V54.6367L101.906 53.9219ZM94.3945 56.1719L101.918 53.4297L104.602 52.7852V55.0352L94.3945 59.3242V56.1719ZM118.137 61H114.422L114.445 58.2578H118.137C119.059 58.2578 119.836 58.0508 120.469 57.6367C121.102 57.2148 121.578 56.6016 121.898 55.7969C122.227 54.9922 122.391 54.0195 122.391 52.8789V52.0469C122.391 51.1719 122.297 50.4023 122.109 49.7383C121.93 49.0742 121.66 48.5156 121.301 48.0625C120.941 47.6094 120.5 47.2695 119.977 47.043C119.453 46.8086 118.852 46.6914 118.172 46.6914H114.352V43.9375H118.172C119.312 43.9375 120.355 44.1328 121.301 44.5234C122.254 44.9062 123.078 45.457 123.773 46.1758C124.469 46.8945 125.004 47.7539 125.379 48.7539C125.762 49.7461 125.953 50.8516 125.953 52.0703V52.8789C125.953 54.0898 125.762 55.1953 125.379 56.1953C125.004 57.1953 124.469 58.0547 123.773 58.7734C123.086 59.4844 122.262 60.0352 121.301 60.4258C120.348 60.8086 119.293 61 118.137 61ZM116.414 43.9375V61H112.898V43.9375H116.414ZM127.758 54.7891V54.543C127.758 53.6133 127.891 52.7578 128.156 51.9766C128.422 51.1875 128.809 50.5039 129.316 49.9258C129.824 49.3477 130.449 48.8984 131.191 48.5781C131.934 48.25 132.785 48.0859 133.746 48.0859C134.707 48.0859 135.562 48.25 136.312 48.5781C137.062 48.8984 137.691 49.3477 138.199 49.9258C138.715 50.5039 139.105 51.1875 139.371 51.9766C139.637 52.7578 139.77 53.6133 139.77 54.543V54.7891C139.77 55.7109 139.637 56.5664 139.371 57.3555C139.105 58.1367 138.715 58.8203 138.199 59.4062C137.691 59.9844 137.066 60.4336 136.324 60.7539C135.582 61.0742 134.73 61.2344 133.77 61.2344C132.809 61.2344 131.953 61.0742 131.203 60.7539C130.461 60.4336 129.832 59.9844 129.316 59.4062C128.809 58.8203 128.422 58.1367 128.156 57.3555C127.891 56.5664 127.758 55.7109 127.758 54.7891ZM131.133 54.543V54.7891C131.133 55.3203 131.18 55.8164 131.273 56.2773C131.367 56.7383 131.516 57.1445 131.719 57.4961C131.93 57.8398 132.203 58.1094 132.539 58.3047C132.875 58.5 133.285 58.5977 133.77 58.5977C134.238 58.5977 134.641 58.5 134.977 58.3047C135.312 58.1094 135.582 57.8398 135.785 57.4961C135.988 57.1445 136.137 56.7383 136.23 56.2773C136.332 55.8164 136.383 55.3203 136.383 54.7891V54.543C136.383 54.0273 136.332 53.543 136.23 53.0898C136.137 52.6289 135.984 52.2227 135.773 51.8711C135.57 51.5117 135.301 51.2305 134.965 51.0273C134.629 50.8242 134.223 50.7227 133.746 50.7227C133.27 50.7227 132.863 50.8242 132.527 51.0273C132.199 51.2305 131.93 51.5117 131.719 51.8711C131.516 52.2227 131.367 52.6289 131.273 53.0898C131.18 53.543 131.133 54.0273 131.133 54.543ZM155.578 52.082V58.8438C155.312 59.1641 154.902 59.5117 154.348 59.8867C153.793 60.2539 153.078 60.5703 152.203 60.8359C151.328 61.1016 150.27 61.2344 149.027 61.2344C147.926 61.2344 146.922 61.0547 146.016 60.6953C145.109 60.3281 144.328 59.793 143.672 59.0898C143.023 58.3867 142.523 57.5273 142.172 56.5117C141.82 55.4883 141.645 54.3203 141.645 53.0078V51.9414C141.645 50.6289 141.812 49.4609 142.148 48.4375C142.492 47.4141 142.98 46.5508 143.613 45.8477C144.246 45.1445 145 44.6094 145.875 44.2422C146.75 43.875 147.723 43.6914 148.793 43.6914C150.277 43.6914 151.496 43.9336 152.449 44.418C153.402 44.8945 154.129 45.5586 154.629 46.4102C155.137 47.2539 155.449 48.2227 155.566 49.3164H152.156C152.07 48.7383 151.906 48.2344 151.664 47.8047C151.422 47.375 151.074 47.0391 150.621 46.7969C150.176 46.5547 149.598 46.4336 148.887 46.4336C148.301 46.4336 147.777 46.5547 147.316 46.7969C146.863 47.0312 146.48 47.3789 146.168 47.8398C145.855 48.3008 145.617 48.8711 145.453 49.5508C145.289 50.2305 145.207 51.0195 145.207 51.918V53.0078C145.207 53.8984 145.293 54.6875 145.465 55.375C145.637 56.0547 145.891 56.6289 146.227 57.0977C146.57 57.5586 146.992 57.9062 147.492 58.1406C147.992 58.375 148.574 58.4922 149.238 58.4922C149.793 58.4922 150.254 58.4453 150.621 58.3516C150.996 58.2578 151.297 58.1445 151.523 58.0117C151.758 57.8711 151.938 57.7383 152.062 57.6133V54.5898H148.852V52.082H155.578ZM157.664 54.7891V54.543C157.664 53.6133 157.797 52.7578 158.062 51.9766C158.328 51.1875 158.715 50.5039 159.223 49.9258C159.73 49.3477 160.355 48.8984 161.098 48.5781C161.84 48.25 162.691 48.0859 163.652 48.0859C164.613 48.0859 165.469 48.25 166.219 48.5781C166.969 48.8984 167.598 49.3477 168.105 49.9258C168.621 50.5039 169.012 51.1875 169.277 51.9766C169.543 52.7578 169.676 53.6133 169.676 54.543V54.7891C169.676 55.7109 169.543 56.5664 169.277 57.3555C169.012 58.1367 168.621 58.8203 168.105 59.4062C167.598 59.9844 166.973 60.4336 166.23 60.7539C165.488 61.0742 164.637 61.2344 163.676 61.2344C162.715 61.2344 161.859 61.0742 161.109 60.7539C160.367 60.4336 159.738 59.9844 159.223 59.4062C158.715 58.8203 158.328 58.1367 158.062 57.3555C157.797 56.5664 157.664 55.7109 157.664 54.7891ZM161.039 54.543V54.7891C161.039 55.3203 161.086 55.8164 161.18 56.2773C161.273 56.7383 161.422 57.1445 161.625 57.4961C161.836 57.8398 162.109 58.1094 162.445 58.3047C162.781 58.5 163.191 58.5977 163.676 58.5977C164.145 58.5977 164.547 58.5 164.883 58.3047C165.219 58.1094 165.488 57.8398 165.691 57.4961C165.895 57.1445 166.043 56.7383 166.137 56.2773C166.238 55.8164 166.289 55.3203 166.289 54.7891V54.543C166.289 54.0273 166.238 53.543 166.137 53.0898C166.043 52.6289 165.891 52.2227 165.68 51.8711C165.477 51.5117 165.207 51.2305 164.871 51.0273C164.535 50.8242 164.129 50.7227 163.652 50.7227C163.176 50.7227 162.77 50.8242 162.434 51.0273C162.105 51.2305 161.836 51.5117 161.625 51.8711C161.422 52.2227 161.273 52.6289 161.18 53.0898C161.086 53.543 161.039 54.0273 161.039 54.543ZM171.211 54.7891V54.543C171.211 53.6133 171.344 52.7578 171.609 51.9766C171.875 51.1875 172.262 50.5039 172.77 49.9258C173.277 49.3477 173.902 48.8984 174.645 48.5781C175.387 48.25 176.238 48.0859 177.199 48.0859C178.16 48.0859 179.016 48.25 179.766 48.5781C180.516 48.8984 181.145 49.3477 181.652 49.9258C182.168 50.5039 182.559 51.1875 182.824 51.9766C183.09 52.7578 183.223 53.6133 183.223 54.543V54.7891C183.223 55.7109 183.09 56.5664 182.824 57.3555C182.559 58.1367 182.168 58.8203 181.652 59.4062C181.145 59.9844 180.52 60.4336 179.777 60.7539C179.035 61.0742 178.184 61.2344 177.223 61.2344C176.262 61.2344 175.406 61.0742 174.656 60.7539C173.914 60.4336 173.285 59.9844 172.77 59.4062C172.262 58.8203 171.875 58.1367 171.609 57.3555C171.344 56.5664 171.211 55.7109 171.211 54.7891ZM174.586 54.543V54.7891C174.586 55.3203 174.633 55.8164 174.727 56.2773C174.82 56.7383 174.969 57.1445 175.172 57.4961C175.383 57.8398 175.656 58.1094 175.992 58.3047C176.328 58.5 176.738 58.5977 177.223 58.5977C177.691 58.5977 178.094 58.5 178.43 58.3047C178.766 58.1094 179.035 57.8398 179.238 57.4961C179.441 57.1445 179.59 56.7383 179.684 56.2773C179.785 55.8164 179.836 55.3203 179.836 54.7891V54.543C179.836 54.0273 179.785 53.543 179.684 53.0898C179.59 52.6289 179.438 52.2227 179.227 51.8711C179.023 51.5117 178.754 51.2305 178.418 51.0273C178.082 50.8242 177.676 50.7227 177.199 50.7227C176.723 50.7227 176.316 50.8242 175.98 51.0273C175.652 51.2305 175.383 51.5117 175.172 51.8711C174.969 52.2227 174.82 52.6289 174.727 53.0898C174.633 53.543 174.586 54.0273 174.586 54.543ZM192.785 58.2344V43H196.184V61H193.125L192.785 58.2344ZM184.77 54.8125V54.5664C184.77 53.5977 184.879 52.7188 185.098 51.9297C185.316 51.1328 185.637 50.4492 186.059 49.8789C186.48 49.3086 187 48.8672 187.617 48.5547C188.234 48.2422 188.938 48.0859 189.727 48.0859C190.469 48.0859 191.117 48.2422 191.672 48.5547C192.234 48.8672 192.711 49.3125 193.102 49.8906C193.5 50.4609 193.82 51.1367 194.062 51.918C194.305 52.6914 194.48 53.5391 194.59 54.4609V55C194.48 55.8828 194.305 56.7031 194.062 57.4609C193.82 58.2188 193.5 58.8828 193.102 59.4531C192.711 60.0156 192.234 60.4531 191.672 60.7656C191.109 61.0781 190.453 61.2344 189.703 61.2344C188.914 61.2344 188.211 61.0742 187.594 60.7539C186.984 60.4336 186.469 59.9844 186.047 59.4062C185.633 58.8281 185.316 58.1484 185.098 57.3672C184.879 56.5859 184.77 55.7344 184.77 54.8125ZM188.145 54.5664V54.8125C188.145 55.3359 188.184 55.8242 188.262 56.2773C188.348 56.7305 188.484 57.1328 188.672 57.4844C188.867 57.8281 189.117 58.0977 189.422 58.293C189.734 58.4805 190.113 58.5742 190.559 58.5742C191.137 58.5742 191.613 58.4453 191.988 58.1875C192.363 57.9219 192.648 57.5586 192.844 57.0977C193.047 56.6367 193.164 56.1055 193.195 55.5039V53.9688C193.172 53.4766 193.102 53.0352 192.984 52.6445C192.875 52.2461 192.711 51.9062 192.492 51.625C192.281 51.3438 192.016 51.125 191.695 50.9688C191.383 50.8125 191.012 50.7344 190.582 50.7344C190.145 50.7344 189.77 50.8359 189.457 51.0391C189.145 51.2344 188.891 51.5039 188.695 51.8477C188.508 52.1914 188.367 52.5977 188.273 53.0664C188.188 53.5273 188.145 54.0273 188.145 54.5664ZM198.984 59.3711C198.984 58.8711 199.156 58.4531 199.5 58.1172C199.852 57.7812 200.316 57.6133 200.895 57.6133C201.473 57.6133 201.934 57.7812 202.277 58.1172C202.629 58.4531 202.805 58.8711 202.805 59.3711C202.805 59.8711 202.629 60.2891 202.277 60.625C201.934 60.9609 201.473 61.1289 200.895 61.1289C200.316 61.1289 199.852 60.9609 199.5 60.625C199.156 60.2891 198.984 59.8711 198.984 59.3711ZM209.344 48.3203V61H205.957V48.3203H209.344ZM205.746 45.0156C205.746 44.5234 205.918 44.1172 206.262 43.7969C206.605 43.4766 207.066 43.3164 207.645 43.3164C208.215 43.3164 208.672 43.4766 209.016 43.7969C209.367 44.1172 209.543 44.5234 209.543 45.0156C209.543 45.5078 209.367 45.9141 209.016 46.2344C208.672 46.5547 208.215 46.7148 207.645 46.7148C207.066 46.7148 206.605 46.5547 206.262 46.2344C205.918 45.9141 205.746 45.5078 205.746 45.0156ZM211.594 54.7891V54.543C211.594 53.6133 211.727 52.7578 211.992 51.9766C212.258 51.1875 212.645 50.5039 213.152 49.9258C213.66 49.3477 214.285 48.8984 215.027 48.5781C215.77 48.25 216.621 48.0859 217.582 48.0859C218.543 48.0859 219.398 48.25 220.148 48.5781C220.898 48.8984 221.527 49.3477 222.035 49.9258C222.551 50.5039 222.941 51.1875 223.207 51.9766C223.473 52.7578 223.605 53.6133 223.605 54.543V54.7891C223.605 55.7109 223.473 56.5664 223.207 57.3555C222.941 58.1367 222.551 58.8203 222.035 59.4062C221.527 59.9844 220.902 60.4336 220.16 60.7539C219.418 61.0742 218.566 61.2344 217.605 61.2344C216.645 61.2344 215.789 61.0742 215.039 60.7539C214.297 60.4336 213.668 59.9844 213.152 59.4062C212.645 58.8203 212.258 58.1367 211.992 57.3555C211.727 56.5664 211.594 55.7109 211.594 54.7891ZM214.969 54.543V54.7891C214.969 55.3203 215.016 55.8164 215.109 56.2773C215.203 56.7383 215.352 57.1445 215.555 57.4961C215.766 57.8398 216.039 58.1094 216.375 58.3047C216.711 58.5 217.121 58.5977 217.605 58.5977C218.074 58.5977 218.477 58.5 218.812 58.3047C219.148 58.1094 219.418 57.8398 219.621 57.4961C219.824 57.1445 219.973 56.7383 220.066 56.2773C220.168 55.8164 220.219 55.3203 220.219 54.7891V54.543C220.219 54.0273 220.168 53.543 220.066 53.0898C219.973 52.6289 219.82 52.2227 219.609 51.8711C219.406 51.5117 219.137 51.2305 218.801 51.0273C218.465 50.8242 218.059 50.7227 217.582 50.7227C217.105 50.7227 216.699 50.8242 216.363 51.0273C216.035 51.2305 215.766 51.5117 215.555 51.8711C215.352 52.2227 215.203 52.6289 215.109 53.0898C215.016 53.543 214.969 54.0273 214.969 54.543Z" fill="#888888"/>
<path d="M114.117 84.875H122.344V107.164C122.344 109.82 121.789 112.07 120.68 113.914C119.57 115.742 118.016 117.125 116.016 118.062C114.016 119 111.664 119.469 108.961 119.469C106.289 119.469 103.938 119 101.906 118.062C99.8906 117.125 98.3125 115.742 97.1719 113.914C96.0469 112.07 95.4844 109.82 95.4844 107.164V84.875H103.734V107.164C103.734 108.57 103.938 109.719 104.344 110.609C104.75 111.484 105.344 112.125 106.125 112.531C106.906 112.938 107.852 113.141 108.961 113.141C110.086 113.141 111.031 112.938 111.797 112.531C112.562 112.125 113.141 111.484 113.531 110.609C113.922 109.719 114.117 108.57 114.117 107.164V84.875ZM136.266 84.875V119H128.062V84.875H136.266ZM172.523 84.875H180.75V107.164C180.75 109.82 180.195 112.07 179.086 113.914C177.977 115.742 176.422 117.125 174.422 118.062C172.422 119 170.07 119.469 167.367 119.469C164.695 119.469 162.344 119 160.312 118.062C158.297 117.125 156.719 115.742 155.578 113.914C154.453 112.07 153.891 109.82 153.891 107.164V84.875H162.141V107.164C162.141 108.57 162.344 109.719 162.75 110.609C163.156 111.484 163.75 112.125 164.531 112.531C165.312 112.938 166.258 113.141 167.367 113.141C168.492 113.141 169.438 112.938 170.203 112.531C170.969 112.125 171.547 111.484 171.938 110.609C172.328 109.719 172.523 108.57 172.523 107.164V84.875ZM193.078 84.875L198.656 96.2188L204.234 84.875H213.609L204.094 101.797L213.867 119H204.398L198.656 107.445L192.914 119H183.422L193.219 101.797L183.68 84.875H193.078Z" fill="black"/>
<path d="M1134 0H1348C1356.28 0 1363 6.71573 1363 15V148C1363 156.284 1356.28 163 1348 163H1134V0Z" fill="#058789"/>
<path d="M1248.5 111.917C1244.51 111.917 1240.55 111.13 1236.86 109.601C1233.17 108.073 1229.82 105.832 1226.99 103.008C1221.29 97.3036 1218.08 89.567 1218.08 81.5C1218.08 73.433 1221.29 65.6964 1226.99 59.9922C1232.7 54.2879 1240.43 51.0833 1248.5 51.0833C1265.23 51.0833 1278.92 63.25 1278.92 78.4583C1278.92 83.2985 1276.99 87.9405 1273.57 91.363C1270.15 94.7856 1265.51 96.7083 1260.67 96.7083H1255.19C1254.28 96.7083 1253.67 97.3167 1253.67 98.2292C1253.67 98.5333 1253.97 98.8375 1253.97 99.1417C1255.19 100.662 1255.8 102.487 1255.8 104.312C1256.1 108.571 1252.76 111.917 1248.5 111.917ZM1248.5 57.1667C1242.05 57.1667 1235.86 59.7303 1231.29 64.2937C1226.73 68.8571 1224.17 75.0464 1224.17 81.5C1224.17 87.9536 1226.73 94.1429 1231.29 98.7063C1235.86 103.27 1242.05 105.833 1248.5 105.833C1249.41 105.833 1250.02 105.225 1250.02 104.312C1250.02 103.704 1249.72 103.4 1249.72 103.096C1248.5 101.575 1247.89 100.054 1247.89 98.2292C1247.89 93.9708 1251.24 90.625 1255.5 90.625H1260.67C1263.89 90.625 1266.99 89.3432 1269.27 87.0615C1271.55 84.7798 1272.83 81.6851 1272.83 78.4583C1272.83 66.5958 1261.88 57.1667 1248.5 57.1667ZM1231.77 75.4167C1234.2 75.4167 1236.33 77.5458 1236.33 79.9792C1236.33 82.4125 1234.2 84.5417 1231.77 84.5417C1229.34 84.5417 1227.21 82.4125 1227.21 79.9792C1227.21 77.5458 1229.34 75.4167 1231.77 75.4167ZM1240.9 63.25C1243.33 63.25 1245.46 65.3792 1245.46 67.8125C1245.46 70.2458 1243.33 72.375 1240.9 72.375C1238.46 72.375 1236.33 70.2458 1236.33 67.8125C1236.33 65.3792 1238.46 63.25 1240.9 63.25ZM1256.1 63.25C1258.54 63.25 1260.67 65.3792 1260.67 67.8125C1260.67 70.2458 1258.54 72.375 1256.1 72.375C1253.67 72.375 1251.54 70.2458 1251.54 67.8125C1251.54 65.3792 1253.67 63.25 1256.1 63.25ZM1265.23 75.4167C1267.66 75.4167 1269.79 77.5458 1269.79 79.9792C1269.79 82.4125 1267.66 84.5417 1265.23 84.5417C1262.8 84.5417 1260.67 82.4125 1260.67 79.9792C1260.67 77.5458 1262.8 75.4167 1265.23 75.4167Z" fill="white"/>
</svg>
