<svg width="1363" height="163" viewBox="0 0 1363 163" fill="none" xmlns="http://www.w3.org/2000/svg">
<path d="M0 15C0 6.71573 6.71573 0 15 0H37V163H15C6.71573 163 0 156.284 0 148V15Z" fill="#424242"/>
<rect width="1097" height="163" transform="translate(37)" fill="#F0F0F0"/>
<path d="M101.906 53.9219L94.3945 51.2383V48.0859L104.602 52.375V54.6367L101.906 53.9219ZM94.3945 56.1719L101.918 53.4297L104.602 52.7852V55.0352L94.3945 59.3242V56.1719ZM118.137 61H114.422L114.445 58.2578H118.137C119.059 58.2578 119.836 58.0508 120.469 57.6367C121.102 57.2148 121.578 56.6016 121.898 55.7969C122.227 54.9922 122.391 54.0195 122.391 52.8789V52.0469C122.391 51.1719 122.297 50.4023 122.109 49.7383C121.93 49.0742 121.66 48.5156 121.301 48.0625C120.941 47.6094 120.5 47.2695 119.977 47.043C119.453 46.8086 118.852 46.6914 118.172 46.6914H114.352V43.9375H118.172C119.312 43.9375 120.355 44.1328 121.301 44.5234C122.254 44.9062 123.078 45.457 123.773 46.1758C124.469 46.8945 125.004 47.7539 125.379 48.7539C125.762 49.7461 125.953 50.8516 125.953 52.0703V52.8789C125.953 54.0898 125.762 55.1953 125.379 56.1953C125.004 57.1953 124.469 58.0547 123.773 58.7734C123.086 59.4844 122.262 60.0352 121.301 60.4258C120.348 60.8086 119.293 61 118.137 61ZM116.414 43.9375V61H112.898V43.9375H116.414ZM127.758 54.7891V54.543C127.758 53.6133 127.891 52.7578 128.156 51.9766C128.422 51.1875 128.809 50.5039 129.316 49.9258C129.824 49.3477 130.449 48.8984 131.191 48.5781C131.934 48.25 132.785 48.0859 133.746 48.0859C134.707 48.0859 135.562 48.25 136.312 48.5781C137.062 48.8984 137.691 49.3477 138.199 49.9258C138.715 50.5039 139.105 51.1875 139.371 51.9766C139.637 52.7578 139.77 53.6133 139.77 54.543V54.7891C139.77 55.7109 139.637 56.5664 139.371 57.3555C139.105 58.1367 138.715 58.8203 138.199 59.4062C137.691 59.9844 137.066 60.4336 136.324 60.7539C135.582 61.0742 134.73 61.2344 133.77 61.2344C132.809 61.2344 131.953 61.0742 131.203 60.7539C130.461 60.4336 129.832 59.9844 129.316 59.4062C128.809 58.8203 128.422 58.1367 128.156 57.3555C127.891 56.5664 127.758 55.7109 127.758 54.7891ZM131.133 54.543V54.7891C131.133 55.3203 131.18 55.8164 131.273 56.2773C131.367 56.7383 131.516 57.1445 131.719 57.4961C131.93 57.8398 132.203 58.1094 132.539 58.3047C132.875 58.5 133.285 58.5977 133.77 58.5977C134.238 58.5977 134.641 58.5 134.977 58.3047C135.312 58.1094 135.582 57.8398 135.785 57.4961C135.988 57.1445 136.137 56.7383 136.23 56.2773C136.332 55.8164 136.383 55.3203 136.383 54.7891V54.543C136.383 54.0273 136.332 53.543 136.23 53.0898C136.137 52.6289 135.984 52.2227 135.773 51.8711C135.57 51.5117 135.301 51.2305 134.965 51.0273C134.629 50.8242 134.223 50.7227 133.746 50.7227C133.27 50.7227 132.863 50.8242 132.527 51.0273C132.199 51.2305 131.93 51.5117 131.719 51.8711C131.516 52.2227 131.367 52.6289 131.273 53.0898C131.18 53.543 131.133 54.0273 131.133 54.543ZM155.578 52.082V58.8438C155.312 59.1641 154.902 59.5117 154.348 59.8867C153.793 60.2539 153.078 60.5703 152.203 60.8359C151.328 61.1016 150.27 61.2344 149.027 61.2344C147.926 61.2344 146.922 61.0547 146.016 60.6953C145.109 60.3281 144.328 59.793 143.672 59.0898C143.023 58.3867 142.523 57.5273 142.172 56.5117C141.82 55.4883 141.645 54.3203 141.645 53.0078V51.9414C141.645 50.6289 141.812 49.4609 142.148 48.4375C142.492 47.4141 142.98 46.5508 143.613 45.8477C144.246 45.1445 145 44.6094 145.875 44.2422C146.75 43.875 147.723 43.6914 148.793 43.6914C150.277 43.6914 151.496 43.9336 152.449 44.418C153.402 44.8945 154.129 45.5586 154.629 46.4102C155.137 47.2539 155.449 48.2227 155.566 49.3164H152.156C152.07 48.7383 151.906 48.2344 151.664 47.8047C151.422 47.375 151.074 47.0391 150.621 46.7969C150.176 46.5547 149.598 46.4336 148.887 46.4336C148.301 46.4336 147.777 46.5547 147.316 46.7969C146.863 47.0312 146.48 47.3789 146.168 47.8398C145.855 48.3008 145.617 48.8711 145.453 49.5508C145.289 50.2305 145.207 51.0195 145.207 51.918V53.0078C145.207 53.8984 145.293 54.6875 145.465 55.375C145.637 56.0547 145.891 56.6289 146.227 57.0977C146.57 57.5586 146.992 57.9062 147.492 58.1406C147.992 58.375 148.574 58.4922 149.238 58.4922C149.793 58.4922 150.254 58.4453 150.621 58.3516C150.996 58.2578 151.297 58.1445 151.523 58.0117C151.758 57.8711 151.938 57.7383 152.062 57.6133V54.5898H148.852V52.082H155.578ZM157.664 54.7891V54.543C157.664 53.6133 157.797 52.7578 158.062 51.9766C158.328 51.1875 158.715 50.5039 159.223 49.9258C159.73 49.3477 160.355 48.8984 161.098 48.5781C161.84 48.25 162.691 48.0859 163.652 48.0859C164.613 48.0859 165.469 48.25 166.219 48.5781C166.969 48.8984 167.598 49.3477 168.105 49.9258C168.621 50.5039 169.012 51.1875 169.277 51.9766C169.543 52.7578 169.676 53.6133 169.676 54.543V54.7891C169.676 55.7109 169.543 56.5664 169.277 57.3555C169.012 58.1367 168.621 58.8203 168.105 59.4062C167.598 59.9844 166.973 60.4336 166.23 60.7539C165.488 61.0742 164.637 61.2344 163.676 61.2344C162.715 61.2344 161.859 61.0742 161.109 60.7539C160.367 60.4336 159.738 59.9844 159.223 59.4062C158.715 58.8203 158.328 58.1367 158.062 57.3555C157.797 56.5664 157.664 55.7109 157.664 54.7891ZM161.039 54.543V54.7891C161.039 55.3203 161.086 55.8164 161.18 56.2773C161.273 56.7383 161.422 57.1445 161.625 57.4961C161.836 57.8398 162.109 58.1094 162.445 58.3047C162.781 58.5 163.191 58.5977 163.676 58.5977C164.145 58.5977 164.547 58.5 164.883 58.3047C165.219 58.1094 165.488 57.8398 165.691 57.4961C165.895 57.1445 166.043 56.7383 166.137 56.2773C166.238 55.8164 166.289 55.3203 166.289 54.7891V54.543C166.289 54.0273 166.238 53.543 166.137 53.0898C166.043 52.6289 165.891 52.2227 165.68 51.8711C165.477 51.5117 165.207 51.2305 164.871 51.0273C164.535 50.8242 164.129 50.7227 163.652 50.7227C163.176 50.7227 162.77 50.8242 162.434 51.0273C162.105 51.2305 161.836 51.5117 161.625 51.8711C161.422 52.2227 161.273 52.6289 161.18 53.0898C161.086 53.543 161.039 54.0273 161.039 54.543ZM171.211 54.7891V54.543C171.211 53.6133 171.344 52.7578 171.609 51.9766C171.875 51.1875 172.262 50.5039 172.77 49.9258C173.277 49.3477 173.902 48.8984 174.645 48.5781C175.387 48.25 176.238 48.0859 177.199 48.0859C178.16 48.0859 179.016 48.25 179.766 48.5781C180.516 48.8984 181.145 49.3477 181.652 49.9258C182.168 50.5039 182.559 51.1875 182.824 51.9766C183.09 52.7578 183.223 53.6133 183.223 54.543V54.7891C183.223 55.7109 183.09 56.5664 182.824 57.3555C182.559 58.1367 182.168 58.8203 181.652 59.4062C181.145 59.9844 180.52 60.4336 179.777 60.7539C179.035 61.0742 178.184 61.2344 177.223 61.2344C176.262 61.2344 175.406 61.0742 174.656 60.7539C173.914 60.4336 173.285 59.9844 172.77 59.4062C172.262 58.8203 171.875 58.1367 171.609 57.3555C171.344 56.5664 171.211 55.7109 171.211 54.7891ZM174.586 54.543V54.7891C174.586 55.3203 174.633 55.8164 174.727 56.2773C174.82 56.7383 174.969 57.1445 175.172 57.4961C175.383 57.8398 175.656 58.1094 175.992 58.3047C176.328 58.5 176.738 58.5977 177.223 58.5977C177.691 58.5977 178.094 58.5 178.43 58.3047C178.766 58.1094 179.035 57.8398 179.238 57.4961C179.441 57.1445 179.59 56.7383 179.684 56.2773C179.785 55.8164 179.836 55.3203 179.836 54.7891V54.543C179.836 54.0273 179.785 53.543 179.684 53.0898C179.59 52.6289 179.438 52.2227 179.227 51.8711C179.023 51.5117 178.754 51.2305 178.418 51.0273C178.082 50.8242 177.676 50.7227 177.199 50.7227C176.723 50.7227 176.316 50.8242 175.98 51.0273C175.652 51.2305 175.383 51.5117 175.172 51.8711C174.969 52.2227 174.82 52.6289 174.727 53.0898C174.633 53.543 174.586 54.0273 174.586 54.543ZM192.785 58.2344V43H196.184V61H193.125L192.785 58.2344ZM184.77 54.8125V54.5664C184.77 53.5977 184.879 52.7188 185.098 51.9297C185.316 51.1328 185.637 50.4492 186.059 49.8789C186.48 49.3086 187 48.8672 187.617 48.5547C188.234 48.2422 188.938 48.0859 189.727 48.0859C190.469 48.0859 191.117 48.2422 191.672 48.5547C192.234 48.8672 192.711 49.3125 193.102 49.8906C193.5 50.4609 193.82 51.1367 194.062 51.918C194.305 52.6914 194.48 53.5391 194.59 54.4609V55C194.48 55.8828 194.305 56.7031 194.062 57.4609C193.82 58.2188 193.5 58.8828 193.102 59.4531C192.711 60.0156 192.234 60.4531 191.672 60.7656C191.109 61.0781 190.453 61.2344 189.703 61.2344C188.914 61.2344 188.211 61.0742 187.594 60.7539C186.984 60.4336 186.469 59.9844 186.047 59.4062C185.633 58.8281 185.316 58.1484 185.098 57.3672C184.879 56.5859 184.77 55.7344 184.77 54.8125ZM188.145 54.5664V54.8125C188.145 55.3359 188.184 55.8242 188.262 56.2773C188.348 56.7305 188.484 57.1328 188.672 57.4844C188.867 57.8281 189.117 58.0977 189.422 58.293C189.734 58.4805 190.113 58.5742 190.559 58.5742C191.137 58.5742 191.613 58.4453 191.988 58.1875C192.363 57.9219 192.648 57.5586 192.844 57.0977C193.047 56.6367 193.164 56.1055 193.195 55.5039V53.9688C193.172 53.4766 193.102 53.0352 192.984 52.6445C192.875 52.2461 192.711 51.9062 192.492 51.625C192.281 51.3438 192.016 51.125 191.695 50.9688C191.383 50.8125 191.012 50.7344 190.582 50.7344C190.145 50.7344 189.77 50.8359 189.457 51.0391C189.145 51.2344 188.891 51.5039 188.695 51.8477C188.508 52.1914 188.367 52.5977 188.273 53.0664C188.188 53.5273 188.145 54.0273 188.145 54.5664ZM198.984 59.3711C198.984 58.8711 199.156 58.4531 199.5 58.1172C199.852 57.7812 200.316 57.6133 200.895 57.6133C201.473 57.6133 201.934 57.7812 202.277 58.1172C202.629 58.4531 202.805 58.8711 202.805 59.3711C202.805 59.8711 202.629 60.2891 202.277 60.625C201.934 60.9609 201.473 61.1289 200.895 61.1289C200.316 61.1289 199.852 60.9609 199.5 60.625C199.156 60.2891 198.984 59.8711 198.984 59.3711ZM209.344 48.3203V61H205.957V48.3203H209.344ZM205.746 45.0156C205.746 44.5234 205.918 44.1172 206.262 43.7969C206.605 43.4766 207.066 43.3164 207.645 43.3164C208.215 43.3164 208.672 43.4766 209.016 43.7969C209.367 44.1172 209.543 44.5234 209.543 45.0156C209.543 45.5078 209.367 45.9141 209.016 46.2344C208.672 46.5547 208.215 46.7148 207.645 46.7148C207.066 46.7148 206.605 46.5547 206.262 46.2344C205.918 45.9141 205.746 45.5078 205.746 45.0156ZM211.594 54.7891V54.543C211.594 53.6133 211.727 52.7578 211.992 51.9766C212.258 51.1875 212.645 50.5039 213.152 49.9258C213.66 49.3477 214.285 48.8984 215.027 48.5781C215.77 48.25 216.621 48.0859 217.582 48.0859C218.543 48.0859 219.398 48.25 220.148 48.5781C220.898 48.8984 221.527 49.3477 222.035 49.9258C222.551 50.5039 222.941 51.1875 223.207 51.9766C223.473 52.7578 223.605 53.6133 223.605 54.543V54.7891C223.605 55.7109 223.473 56.5664 223.207 57.3555C222.941 58.1367 222.551 58.8203 222.035 59.4062C221.527 59.9844 220.902 60.4336 220.16 60.7539C219.418 61.0742 218.566 61.2344 217.605 61.2344C216.645 61.2344 215.789 61.0742 215.039 60.7539C214.297 60.4336 213.668 59.9844 213.152 59.4062C212.645 58.8203 212.258 58.1367 211.992 57.3555C211.727 56.5664 211.594 55.7109 211.594 54.7891ZM214.969 54.543V54.7891C214.969 55.3203 215.016 55.8164 215.109 56.2773C215.203 56.7383 215.352 57.1445 215.555 57.4961C215.766 57.8398 216.039 58.1094 216.375 58.3047C216.711 58.5 217.121 58.5977 217.605 58.5977C218.074 58.5977 218.477 58.5 218.812 58.3047C219.148 58.1094 219.418 57.8398 219.621 57.4961C219.824 57.1445 219.973 56.7383 220.066 56.2773C220.168 55.8164 220.219 55.3203 220.219 54.7891V54.543C220.219 54.0273 220.168 53.543 220.066 53.0898C219.973 52.6289 219.82 52.2227 219.609 51.8711C219.406 51.5117 219.137 51.2305 218.801 51.0273C218.465 50.8242 218.059 50.7227 217.582 50.7227C217.105 50.7227 216.699 50.8242 216.363 51.0273C216.035 51.2305 215.766 51.5117 215.555 51.8711C215.352 52.2227 215.203 52.6289 215.109 53.0898C215.016 53.543 214.969 54.0273 214.969 54.543Z" fill="#888888"/>
<path d="M104.344 84.875V119H96.1406V84.875H104.344ZM117.727 99.0078V119H109.828V93.6406H117.234L117.727 99.0078ZM116.766 105.453L114.961 105.5C114.961 103.719 115.172 102.078 115.594 100.578C116.016 99.0781 116.641 97.7734 117.469 96.6641C118.297 95.5547 119.312 94.6953 120.516 94.0859C121.734 93.4766 123.141 93.1719 124.734 93.1719C125.844 93.1719 126.852 93.3438 127.758 93.6875C128.664 94.0156 129.445 94.5391 130.102 95.2578C130.758 95.9609 131.258 96.8828 131.602 98.0234C131.961 99.1484 132.141 100.5 132.141 102.078V119H124.242V103.086C124.242 102.008 124.117 101.195 123.867 100.648C123.633 100.102 123.289 99.7344 122.836 99.5469C122.383 99.3594 121.828 99.2656 121.172 99.2656C120.484 99.2656 119.867 99.4219 119.32 99.7344C118.773 100.047 118.305 100.484 117.914 101.047C117.539 101.594 117.25 102.242 117.047 102.992C116.859 103.742 116.766 104.562 116.766 105.453ZM131.25 105.453L129.047 105.5C129.047 103.719 129.242 102.078 129.633 100.578C130.039 99.0781 130.641 97.7734 131.438 96.6641C132.25 95.5547 133.258 94.6953 134.461 94.0859C135.664 93.4766 137.062 93.1719 138.656 93.1719C139.812 93.1719 140.875 93.3438 141.844 93.6875C142.812 94.0312 143.648 94.5859 144.352 95.3516C145.055 96.1172 145.602 97.1328 145.992 98.3984C146.383 99.6484 146.578 101.195 146.578 103.039V119H138.656V103.039C138.656 101.992 138.531 101.203 138.281 100.672C138.047 100.125 137.703 99.7578 137.25 99.5703C136.797 99.3672 136.258 99.2656 135.633 99.2656C134.883 99.2656 134.234 99.4219 133.688 99.7344C133.141 100.047 132.68 100.484 132.305 101.047C131.945 101.594 131.68 102.242 131.508 102.992C131.336 103.742 131.25 104.562 131.25 105.453ZM159.07 98.5156V128.75H151.172V93.6406H158.531L159.07 98.5156ZM174.633 106.016V106.508C174.633 108.352 174.422 110.062 174 111.641C173.578 113.219 172.953 114.594 172.125 115.766C171.297 116.938 170.266 117.852 169.031 118.508C167.812 119.148 166.398 119.469 164.789 119.469C163.273 119.469 161.969 119.133 160.875 118.461C159.781 117.789 158.867 116.859 158.133 115.672C157.398 114.484 156.805 113.125 156.352 111.594C155.898 110.062 155.539 108.445 155.273 106.742V106.109C155.539 104.281 155.898 102.586 156.352 101.023C156.805 99.4453 157.398 98.0703 158.133 96.8984C158.867 95.7266 159.773 94.8125 160.852 94.1562C161.945 93.5 163.25 93.1719 164.766 93.1719C166.375 93.1719 167.789 93.4766 169.008 94.0859C170.242 94.6953 171.273 95.5703 172.102 96.7109C172.945 97.8359 173.578 99.1875 174 100.766C174.422 102.344 174.633 104.094 174.633 106.016ZM166.734 106.508V106.016C166.734 105.031 166.664 104.133 166.523 103.32C166.383 102.492 166.156 101.773 165.844 101.164C165.547 100.555 165.148 100.086 164.648 99.7578C164.148 99.4297 163.531 99.2656 162.797 99.2656C161.953 99.2656 161.242 99.3984 160.664 99.6641C160.102 99.9141 159.648 100.305 159.305 100.836C158.977 101.352 158.742 102 158.602 102.781C158.477 103.547 158.422 104.445 158.438 105.477V107.398C158.406 108.586 158.523 109.633 158.789 110.539C159.055 111.43 159.516 112.125 160.172 112.625C160.828 113.125 161.719 113.375 162.844 113.375C163.594 113.375 164.219 113.203 164.719 112.859C165.219 112.5 165.617 112.008 165.914 111.383C166.211 110.742 166.422 110.008 166.547 109.18C166.672 108.352 166.734 107.461 166.734 106.508ZM186.492 83V119H178.57V83H186.492ZM203.648 119.469C201.586 119.469 199.742 119.148 198.117 118.508C196.492 117.852 195.117 116.953 193.992 115.812C192.883 114.672 192.031 113.359 191.438 111.875C190.859 110.391 190.57 108.82 190.57 107.164V106.273C190.57 104.414 190.828 102.695 191.344 101.117C191.859 99.5234 192.625 98.1328 193.641 96.9453C194.656 95.7578 195.93 94.8359 197.461 94.1797C198.992 93.5078 200.773 93.1719 202.805 93.1719C204.602 93.1719 206.211 93.4609 207.633 94.0391C209.055 94.6172 210.258 95.4453 211.242 96.5234C212.242 97.6016 213 98.9062 213.516 100.438C214.047 101.969 214.312 103.688 214.312 105.594V108.805H193.594V103.859H206.602V103.25C206.617 102.406 206.469 101.688 206.156 101.094C205.859 100.5 205.422 100.047 204.844 99.7344C204.266 99.4219 203.562 99.2656 202.734 99.2656C201.875 99.2656 201.164 99.4531 200.602 99.8281C200.055 100.203 199.625 100.719 199.312 101.375C199.016 102.016 198.805 102.758 198.68 103.602C198.555 104.445 198.492 105.336 198.492 106.273V107.164C198.492 108.102 198.617 108.953 198.867 109.719C199.133 110.484 199.508 111.141 199.992 111.688C200.492 112.219 201.086 112.633 201.773 112.93C202.477 113.227 203.273 113.375 204.164 113.375C205.242 113.375 206.305 113.172 207.352 112.766C208.398 112.359 209.297 111.688 210.047 110.75L213.633 115.016C213.117 115.75 212.383 116.461 211.43 117.148C210.492 117.836 209.367 118.398 208.055 118.836C206.742 119.258 205.273 119.469 203.648 119.469ZM225.492 99.0078V119H217.594V93.6406H225L225.492 99.0078ZM224.531 105.453L222.727 105.5C222.727 103.719 222.938 102.078 223.359 100.578C223.781 99.0781 224.406 97.7734 225.234 96.6641C226.062 95.5547 227.078 94.6953 228.281 94.0859C229.5 93.4766 230.906 93.1719 232.5 93.1719C233.609 93.1719 234.617 93.3438 235.523 93.6875C236.43 94.0156 237.211 94.5391 237.867 95.2578C238.523 95.9609 239.023 96.8828 239.367 98.0234C239.727 99.1484 239.906 100.5 239.906 102.078V119H232.008V103.086C232.008 102.008 231.883 101.195 231.633 100.648C231.398 100.102 231.055 99.7344 230.602 99.5469C230.148 99.3594 229.594 99.2656 228.938 99.2656C228.25 99.2656 227.633 99.4219 227.086 99.7344C226.539 100.047 226.07 100.484 225.68 101.047C225.305 101.594 225.016 102.242 224.812 102.992C224.625 103.742 224.531 104.562 224.531 105.453ZM239.016 105.453L236.812 105.5C236.812 103.719 237.008 102.078 237.398 100.578C237.805 99.0781 238.406 97.7734 239.203 96.6641C240.016 95.5547 241.023 94.6953 242.227 94.0859C243.43 93.4766 244.828 93.1719 246.422 93.1719C247.578 93.1719 248.641 93.3438 249.609 93.6875C250.578 94.0312 251.414 94.5859 252.117 95.3516C252.82 96.1172 253.367 97.1328 253.758 98.3984C254.148 99.6484 254.344 101.195 254.344 103.039V119H246.422V103.039C246.422 101.992 246.297 101.203 246.047 100.672C245.812 100.125 245.469 99.7578 245.016 99.5703C244.562 99.3672 244.023 99.2656 243.398 99.2656C242.648 99.2656 242 99.4219 241.453 99.7344C240.906 100.047 240.445 100.484 240.07 101.047C239.711 101.594 239.445 102.242 239.273 102.992C239.102 103.742 239.016 104.562 239.016 105.453ZM271.148 119.469C269.086 119.469 267.242 119.148 265.617 118.508C263.992 117.852 262.617 116.953 261.492 115.812C260.383 114.672 259.531 113.359 258.938 111.875C258.359 110.391 258.07 108.82 258.07 107.164V106.273C258.07 104.414 258.328 102.695 258.844 101.117C259.359 99.5234 260.125 98.1328 261.141 96.9453C262.156 95.7578 263.43 94.8359 264.961 94.1797C266.492 93.5078 268.273 93.1719 270.305 93.1719C272.102 93.1719 273.711 93.4609 275.133 94.0391C276.555 94.6172 277.758 95.4453 278.742 96.5234C279.742 97.6016 280.5 98.9062 281.016 100.438C281.547 101.969 281.812 103.688 281.812 105.594V108.805H261.094V103.859H274.102V103.25C274.117 102.406 273.969 101.688 273.656 101.094C273.359 100.5 272.922 100.047 272.344 99.7344C271.766 99.4219 271.062 99.2656 270.234 99.2656C269.375 99.2656 268.664 99.4531 268.102 99.8281C267.555 100.203 267.125 100.719 266.812 101.375C266.516 102.016 266.305 102.758 266.18 103.602C266.055 104.445 265.992 105.336 265.992 106.273V107.164C265.992 108.102 266.117 108.953 266.367 109.719C266.633 110.484 267.008 111.141 267.492 111.688C267.992 112.219 268.586 112.633 269.273 112.93C269.977 113.227 270.773 113.375 271.664 113.375C272.742 113.375 273.805 113.172 274.852 112.766C275.898 112.359 276.797 111.688 277.547 110.75L281.133 115.016C280.617 115.75 279.883 116.461 278.93 117.148C277.992 117.836 276.867 118.398 275.555 118.836C274.242 119.258 272.773 119.469 271.148 119.469ZM292.781 99.0547V119H284.883V93.6406H292.289L292.781 99.0547ZM291.844 105.453L289.992 105.5C289.992 103.562 290.227 101.836 290.695 100.32C291.164 98.7891 291.828 97.4922 292.688 96.4297C293.547 95.3672 294.57 94.5625 295.758 94.0156C296.961 93.4531 298.297 93.1719 299.766 93.1719C300.938 93.1719 302.008 93.3438 302.977 93.6875C303.961 94.0312 304.805 94.5859 305.508 95.3516C306.227 96.1172 306.773 97.1328 307.148 98.3984C307.539 99.6484 307.734 101.195 307.734 103.039V119H299.789V103.016C299.789 102 299.648 101.227 299.367 100.695C299.086 100.148 298.68 99.7734 298.148 99.5703C297.617 99.3672 296.969 99.2656 296.203 99.2656C295.391 99.2656 294.703 99.4219 294.141 99.7344C293.578 100.047 293.125 100.484 292.781 101.047C292.453 101.594 292.211 102.242 292.055 102.992C291.914 103.742 291.844 104.562 291.844 105.453ZM325.477 93.6406V99.125H310.195V93.6406H325.477ZM313.406 87.3359H321.305V110.727C321.305 111.398 321.383 111.922 321.539 112.297C321.695 112.656 321.961 112.914 322.336 113.07C322.727 113.211 323.242 113.281 323.883 113.281C324.336 113.281 324.711 113.273 325.008 113.258C325.305 113.227 325.586 113.188 325.852 113.141V118.789C325.18 119.008 324.477 119.172 323.742 119.281C323.008 119.406 322.227 119.469 321.398 119.469C319.711 119.469 318.266 119.203 317.062 118.672C315.875 118.141 314.969 117.305 314.344 116.164C313.719 115.023 313.406 113.539 313.406 111.711V87.3359ZM341.789 112.625V102.172C341.789 101.453 341.688 100.836 341.484 100.32C341.281 99.8047 340.961 99.4062 340.523 99.125C340.086 98.8281 339.5 98.6797 338.766 98.6797C338.172 98.6797 337.664 98.7812 337.242 98.9844C336.82 99.1875 336.5 99.4922 336.281 99.8984C336.062 100.305 335.953 100.82 335.953 101.445H328.055C328.055 100.273 328.312 99.1875 328.828 98.1875C329.359 97.1719 330.109 96.2891 331.078 95.5391C332.062 94.7891 333.234 94.2109 334.594 93.8047C335.969 93.3828 337.5 93.1719 339.188 93.1719C341.203 93.1719 343 93.5078 344.578 94.1797C346.172 94.8516 347.43 95.8594 348.352 97.2031C349.273 98.5312 349.734 100.203 349.734 102.219V112.602C349.734 114.258 349.828 115.516 350.016 116.375C350.203 117.219 350.469 117.961 350.812 118.602V119H342.891C342.516 118.219 342.234 117.266 342.047 116.141C341.875 115 341.789 113.828 341.789 112.625ZM342.75 103.508L342.797 107.727H339.305C338.57 107.727 337.945 107.828 337.43 108.031C336.93 108.234 336.523 108.516 336.211 108.875C335.914 109.219 335.695 109.609 335.555 110.047C335.43 110.484 335.367 110.945 335.367 111.43C335.367 111.898 335.477 112.32 335.695 112.695C335.93 113.055 336.242 113.336 336.633 113.539C337.023 113.742 337.461 113.844 337.945 113.844C338.82 113.844 339.562 113.68 340.172 113.352C340.797 113.008 341.273 112.594 341.602 112.109C341.93 111.625 342.094 111.172 342.094 110.75L343.828 113.984C343.516 114.609 343.156 115.242 342.75 115.883C342.359 116.523 341.867 117.117 341.273 117.664C340.695 118.195 339.984 118.633 339.141 118.977C338.297 119.305 337.273 119.469 336.07 119.469C334.508 119.469 333.07 119.148 331.758 118.508C330.461 117.867 329.422 116.977 328.641 115.836C327.859 114.68 327.469 113.352 327.469 111.852C327.469 110.539 327.703 109.367 328.172 108.336C328.656 107.305 329.383 106.43 330.352 105.711C331.32 104.992 332.555 104.445 334.055 104.07C335.555 103.695 337.32 103.508 339.352 103.508H342.75ZM367.477 93.6406V99.125H352.195V93.6406H367.477ZM355.406 87.3359H363.305V110.727C363.305 111.398 363.383 111.922 363.539 112.297C363.695 112.656 363.961 112.914 364.336 113.07C364.727 113.211 365.242 113.281 365.883 113.281C366.336 113.281 366.711 113.273 367.008 113.258C367.305 113.227 367.586 113.188 367.852 113.141V118.789C367.18 119.008 366.477 119.172 365.742 119.281C365.008 119.406 364.227 119.469 363.398 119.469C361.711 119.469 360.266 119.203 359.062 118.672C357.875 118.141 356.969 117.305 356.344 116.164C355.719 115.023 355.406 113.539 355.406 111.711V87.3359ZM378.961 93.6406V119H371.039V93.6406H378.961ZM370.57 87.1016C370.57 85.9766 370.977 85.0547 371.789 84.3359C372.602 83.6172 373.656 83.2578 374.953 83.2578C376.25 83.2578 377.305 83.6172 378.117 84.3359C378.93 85.0547 379.336 85.9766 379.336 87.1016C379.336 88.2266 378.93 89.1484 378.117 89.8672C377.305 90.5859 376.25 90.9453 374.953 90.9453C373.656 90.9453 372.602 90.5859 371.789 89.8672C370.977 89.1484 370.57 88.2266 370.57 87.1016ZM382.852 106.578V106.086C382.852 104.227 383.117 102.516 383.648 100.953C384.18 99.375 384.961 98.0078 385.992 96.8516C387.023 95.6953 388.297 94.7969 389.812 94.1562C391.328 93.5 393.078 93.1719 395.062 93.1719C397.062 93.1719 398.82 93.5 400.336 94.1562C401.867 94.7969 403.148 95.6953 404.18 96.8516C405.211 98.0078 405.992 99.375 406.523 100.953C407.055 102.516 407.32 104.227 407.32 106.086V106.578C407.32 108.422 407.055 110.133 406.523 111.711C405.992 113.273 405.211 114.641 404.18 115.812C403.148 116.969 401.875 117.867 400.359 118.508C398.844 119.148 397.094 119.469 395.109 119.469C393.125 119.469 391.367 119.148 389.836 118.508C388.305 117.867 387.023 116.969 385.992 115.812C384.961 114.641 384.18 113.273 383.648 111.711C383.117 110.133 382.852 108.422 382.852 106.578ZM390.75 106.086V106.578C390.75 107.531 390.82 108.422 390.961 109.25C391.102 110.078 391.336 110.805 391.664 111.43C391.992 112.039 392.438 112.516 393 112.859C393.562 113.203 394.266 113.375 395.109 113.375C395.938 113.375 396.625 113.203 397.172 112.859C397.734 112.516 398.18 112.039 398.508 111.43C398.836 110.805 399.07 110.078 399.211 109.25C399.352 108.422 399.422 107.531 399.422 106.578V106.086C399.422 105.164 399.352 104.297 399.211 103.484C399.07 102.656 398.836 101.93 398.508 101.305C398.18 100.664 397.734 100.164 397.172 99.8047C396.609 99.4453 395.906 99.2656 395.062 99.2656C394.234 99.2656 393.539 99.4453 392.977 99.8047C392.43 100.164 391.992 100.664 391.664 101.305C391.336 101.93 391.102 102.656 390.961 103.484C390.82 104.297 390.75 105.164 390.75 106.086ZM418.594 99.0547V119H410.695V93.6406H418.102L418.594 99.0547ZM417.656 105.453L415.805 105.5C415.805 103.562 416.039 101.836 416.508 100.32C416.977 98.7891 417.641 97.4922 418.5 96.4297C419.359 95.3672 420.383 94.5625 421.57 94.0156C422.773 93.4531 424.109 93.1719 425.578 93.1719C426.75 93.1719 427.82 93.3438 428.789 93.6875C429.773 94.0312 430.617 94.5859 431.32 95.3516C432.039 96.1172 432.586 97.1328 432.961 98.3984C433.352 99.6484 433.547 101.195 433.547 103.039V119H425.602V103.016C425.602 102 425.461 101.227 425.18 100.695C424.898 100.148 424.492 99.7734 423.961 99.5703C423.43 99.3672 422.781 99.2656 422.016 99.2656C421.203 99.2656 420.516 99.4219 419.953 99.7344C419.391 100.047 418.938 100.484 418.594 101.047C418.266 101.594 418.023 102.242 417.867 102.992C417.727 103.742 417.656 104.562 417.656 105.453Z" fill="black"/>
<path d="M1134 0H1348C1356.28 0 1363 6.71573 1363 15V148C1363 156.284 1356.28 163 1348 163H1134V0Z" fill="#058789"/>
<path d="M1280.07 47.5H1216.93L1214.5 49.9286V113.071L1216.93 115.5H1280.07L1282.5 113.071V49.9286L1280.07 47.5ZM1277.64 110.643H1233.93V100.929H1245.1C1246.56 103.843 1249.96 105.786 1253.36 105.786C1258.7 105.786 1263.07 101.414 1263.07 96.0714C1263.07 90.7286 1258.7 86.3571 1253.36 86.3571C1248.01 86.3571 1243.64 90.7286 1243.64 96.0714H1229.07V110.643H1219.36V52.3571H1229.07V63.5286C1226.16 64.9857 1224.21 68.3857 1224.21 71.7857C1224.21 77.1286 1228.59 81.5 1233.93 81.5C1239.27 81.5 1243.64 77.1286 1243.64 71.7857H1253.36C1253.36 77.1286 1257.73 81.5 1263.07 81.5C1268.41 81.5 1272.79 77.1286 1272.79 71.7857C1272.79 66.4429 1268.41 62.0714 1263.07 62.0714C1259.67 62.0714 1256.27 64.0143 1254.81 66.9286H1242.19C1240.73 64.0143 1237.33 62.0714 1233.93 62.0714V52.3571H1277.64V110.643ZM1248.5 96.0714C1248.5 93.1571 1250.44 91.2143 1253.36 91.2143C1256.27 91.2143 1258.21 93.1571 1258.21 96.0714C1258.21 98.9857 1256.27 100.929 1253.36 100.929C1250.44 100.929 1248.5 98.9857 1248.5 96.0714ZM1233.93 66.9286C1236.84 66.9286 1238.79 68.8714 1238.79 71.7857C1238.79 74.7 1236.84 76.6429 1233.93 76.6429C1231.01 76.6429 1229.07 74.7 1229.07 71.7857C1229.07 68.8714 1231.01 66.9286 1233.93 66.9286ZM1263.07 66.9286C1265.99 66.9286 1267.93 68.8714 1267.93 71.7857C1267.93 74.7 1265.99 76.6429 1263.07 76.6429C1260.16 76.6429 1258.21 74.7 1258.21 71.7857C1258.21 68.8714 1260.16 66.9286 1263.07 66.9286Z" fill="white"/>
</svg>
