<svg width="1363" height="163" viewBox="0 0 1363 163" fill="none" xmlns="http://www.w3.org/2000/svg">
<path d="M0 15C0 6.71573 6.71573 0 15 0H37V163H15C6.71573 163 0 156.284 0 148V15Z" fill="#424242"/>
<rect width="1097" height="163" transform="translate(37)" fill="#F0F0F0"/>
<path d="M101.906 53.9219L94.3945 51.2383V48.0859L104.602 52.375V54.6367L101.906 53.9219ZM94.3945 56.1719L101.918 53.4297L104.602 52.7852V55.0352L94.3945 59.3242V56.1719ZM122.789 55.3398H126.293C126.223 56.4883 125.906 57.5078 125.344 58.3984C124.789 59.2891 124.012 59.9844 123.012 60.4844C122.02 60.9844 120.824 61.2344 119.426 61.2344C118.332 61.2344 117.352 61.0469 116.484 60.6719C115.617 60.2891 114.875 59.7422 114.258 59.0312C113.648 58.3203 113.184 57.4609 112.863 56.4531C112.543 55.4453 112.383 54.3164 112.383 53.0664V51.8828C112.383 50.6328 112.547 49.5039 112.875 48.4961C113.211 47.4805 113.688 46.6172 114.305 45.9062C114.93 45.1953 115.676 44.6484 116.543 44.2656C117.41 43.8828 118.379 43.6914 119.449 43.6914C120.871 43.6914 122.07 43.9492 123.047 44.4648C124.031 44.9805 124.793 45.6914 125.332 46.5977C125.879 47.5039 126.207 48.5352 126.316 49.6914H122.801C122.762 49.0039 122.625 48.4219 122.391 47.9453C122.156 47.4609 121.801 47.0977 121.324 46.8555C120.855 46.6055 120.23 46.4805 119.449 46.4805C118.863 46.4805 118.352 46.5898 117.914 46.8086C117.477 47.0273 117.109 47.3594 116.812 47.8047C116.516 48.25 116.293 48.8125 116.145 49.4922C116.004 50.1641 115.934 50.9531 115.934 51.8594V53.0664C115.934 53.9492 116 54.7266 116.133 55.3984C116.266 56.0625 116.469 56.625 116.742 57.0859C117.023 57.5391 117.383 57.8828 117.82 58.1172C118.266 58.3438 118.801 58.457 119.426 58.457C120.16 58.457 120.766 58.3398 121.242 58.1055C121.719 57.8711 122.082 57.5234 122.332 57.0625C122.59 56.6016 122.742 56.0273 122.789 55.3398ZM131.953 43V61H128.566V43H131.953ZM140.578 61.2344C139.594 61.2344 138.711 61.0781 137.93 60.7656C137.148 60.4453 136.484 60.0039 135.938 59.4414C135.398 58.8789 134.984 58.2266 134.695 57.4844C134.406 56.7344 134.262 55.9375 134.262 55.0938V54.625C134.262 53.6641 134.398 52.7852 134.672 51.9883C134.945 51.1914 135.336 50.5 135.844 49.9141C136.359 49.3281 136.984 48.8789 137.719 48.5664C138.453 48.2461 139.281 48.0859 140.203 48.0859C141.102 48.0859 141.898 48.2344 142.594 48.5312C143.289 48.8281 143.871 49.25 144.34 49.7969C144.816 50.3438 145.176 51 145.418 51.7656C145.66 52.5234 145.781 53.3672 145.781 54.2969V55.7031H135.703V53.4531H142.465V53.1953C142.465 52.7266 142.379 52.3086 142.207 51.9414C142.043 51.5664 141.793 51.2695 141.457 51.0508C141.121 50.832 140.691 50.7227 140.168 50.7227C139.723 50.7227 139.34 50.8203 139.02 51.0156C138.699 51.2109 138.438 51.4844 138.234 51.8359C138.039 52.1875 137.891 52.6016 137.789 53.0781C137.695 53.5469 137.648 54.0625 137.648 54.625V55.0938C137.648 55.6016 137.719 56.0703 137.859 56.5C138.008 56.9297 138.215 57.3008 138.48 57.6133C138.754 57.9258 139.082 58.168 139.465 58.3398C139.855 58.5117 140.297 58.5977 140.789 58.5977C141.398 58.5977 141.965 58.4805 142.488 58.2461C143.02 58.0039 143.477 57.6406 143.859 57.1562L145.5 58.9375C145.234 59.3203 144.871 59.6875 144.41 60.0391C143.957 60.3906 143.41 60.6797 142.77 60.9062C142.129 61.125 141.398 61.2344 140.578 61.2344ZM151.852 58.5391L154.664 48.3203H158.191L153.914 61H151.781L151.852 58.5391ZM149.918 48.3203L152.742 58.5508L152.801 61H150.656L146.379 48.3203H149.918ZM165.375 61.2344C164.391 61.2344 163.508 61.0781 162.727 60.7656C161.945 60.4453 161.281 60.0039 160.734 59.4414C160.195 58.8789 159.781 58.2266 159.492 57.4844C159.203 56.7344 159.059 55.9375 159.059 55.0938V54.625C159.059 53.6641 159.195 52.7852 159.469 51.9883C159.742 51.1914 160.133 50.5 160.641 49.9141C161.156 49.3281 161.781 48.8789 162.516 48.5664C163.25 48.2461 164.078 48.0859 165 48.0859C165.898 48.0859 166.695 48.2344 167.391 48.5312C168.086 48.8281 168.668 49.25 169.137 49.7969C169.613 50.3438 169.973 51 170.215 51.7656C170.457 52.5234 170.578 53.3672 170.578 54.2969V55.7031H160.5V53.4531H167.262V53.1953C167.262 52.7266 167.176 52.3086 167.004 51.9414C166.84 51.5664 166.59 51.2695 166.254 51.0508C165.918 50.832 165.488 50.7227 164.965 50.7227C164.52 50.7227 164.137 50.8203 163.816 51.0156C163.496 51.2109 163.234 51.4844 163.031 51.8359C162.836 52.1875 162.688 52.6016 162.586 53.0781C162.492 53.5469 162.445 54.0625 162.445 54.625V55.0938C162.445 55.6016 162.516 56.0703 162.656 56.5C162.805 56.9297 163.012 57.3008 163.277 57.6133C163.551 57.9258 163.879 58.168 164.262 58.3398C164.652 58.5117 165.094 58.5977 165.586 58.5977C166.195 58.5977 166.762 58.4805 167.285 58.2461C167.816 58.0039 168.273 57.6406 168.656 57.1562L170.297 58.9375C170.031 59.3203 169.668 59.6875 169.207 60.0391C168.754 60.3906 168.207 60.6797 167.566 60.9062C166.926 61.125 166.195 61.2344 165.375 61.2344ZM175.875 51.0859V61H172.5V48.3203H175.676L175.875 51.0859ZM179.695 48.2383L179.637 51.3672C179.473 51.3438 179.273 51.3242 179.039 51.3086C178.812 51.2852 178.605 51.2734 178.418 51.2734C177.941 51.2734 177.527 51.3359 177.176 51.4609C176.832 51.5781 176.543 51.7539 176.309 51.9883C176.082 52.2227 175.91 52.5078 175.793 52.8438C175.684 53.1797 175.621 53.5625 175.605 53.9922L174.926 53.7812C174.926 52.9609 175.008 52.207 175.172 51.5195C175.336 50.8242 175.574 50.2188 175.887 49.7031C176.207 49.1875 176.598 48.7891 177.059 48.5078C177.52 48.2266 178.047 48.0859 178.641 48.0859C178.828 48.0859 179.02 48.1016 179.215 48.1328C179.41 48.1562 179.57 48.1914 179.695 48.2383ZM190.992 43.9375V61H187.477V43.9375H190.992ZM201.211 43.9375L194.449 52.3633L190.547 56.5586L189.914 53.2305L192.551 49.6211L196.898 43.9375H201.211ZM197.215 61L192.188 53.1133L194.789 50.9336L201.375 61H197.215ZM209.367 58.1406V52.4922C209.367 52.0859 209.301 51.7383 209.168 51.4492C209.035 51.1523 208.828 50.9219 208.547 50.7578C208.273 50.5938 207.918 50.5117 207.48 50.5117C207.105 50.5117 206.781 50.5781 206.508 50.7109C206.234 50.8359 206.023 51.0195 205.875 51.2617C205.727 51.4961 205.652 51.7734 205.652 52.0938H202.277C202.277 51.5547 202.402 51.043 202.652 50.5586C202.902 50.0742 203.266 49.6484 203.742 49.2812C204.219 48.9062 204.785 48.6133 205.441 48.4023C206.105 48.1914 206.848 48.0859 207.668 48.0859C208.652 48.0859 209.527 48.25 210.293 48.5781C211.059 48.9062 211.66 49.3984 212.098 50.0547C212.543 50.7109 212.766 51.5312 212.766 52.5156V57.9414C212.766 58.6367 212.809 59.207 212.895 59.6523C212.98 60.0898 213.105 60.4727 213.27 60.8008V61H209.859C209.695 60.6562 209.57 60.2266 209.484 59.7109C209.406 59.1875 209.367 58.6641 209.367 58.1406ZM209.812 53.2773L209.836 55.1875H207.949C207.504 55.1875 207.117 55.2383 206.789 55.3398C206.461 55.4414 206.191 55.5859 205.98 55.7734C205.77 55.9531 205.613 56.1641 205.512 56.4062C205.418 56.6484 205.371 56.9141 205.371 57.2031C205.371 57.4922 205.438 57.7539 205.57 57.9883C205.703 58.2148 205.895 58.3945 206.145 58.5273C206.395 58.6523 206.688 58.7148 207.023 58.7148C207.531 58.7148 207.973 58.6133 208.348 58.4102C208.723 58.207 209.012 57.957 209.215 57.6602C209.426 57.3633 209.535 57.082 209.543 56.8164L210.434 58.2461C210.309 58.5664 210.137 58.8984 209.918 59.2422C209.707 59.5859 209.438 59.9102 209.109 60.2148C208.781 60.5117 208.387 60.7578 207.926 60.9531C207.465 61.1406 206.918 61.2344 206.285 61.2344C205.48 61.2344 204.75 61.0742 204.094 60.7539C203.445 60.4258 202.93 59.9766 202.547 59.4062C202.172 58.8281 201.984 58.1719 201.984 57.4375C201.984 56.7734 202.109 56.1836 202.359 55.668C202.609 55.1523 202.977 54.7188 203.461 54.3672C203.953 54.0078 204.566 53.7383 205.301 53.5586C206.035 53.3711 206.887 53.2773 207.855 53.2773H209.812ZM218.742 51.0859V61H215.367V48.3203H218.543L218.742 51.0859ZM222.562 48.2383L222.504 51.3672C222.34 51.3438 222.141 51.3242 221.906 51.3086C221.68 51.2852 221.473 51.2734 221.285 51.2734C220.809 51.2734 220.395 51.3359 220.043 51.4609C219.699 51.5781 219.41 51.7539 219.176 51.9883C218.949 52.2227 218.777 52.5078 218.66 52.8438C218.551 53.1797 218.488 53.5625 218.473 53.9922L217.793 53.7812C217.793 52.9609 217.875 52.207 218.039 51.5195C218.203 50.8242 218.441 50.2188 218.754 49.7031C219.074 49.1875 219.465 48.7891 219.926 48.5078C220.387 48.2266 220.914 48.0859 221.508 48.0859C221.695 48.0859 221.887 48.1016 222.082 48.1328C222.277 48.1562 222.438 48.1914 222.562 48.2383ZM227.531 50.9453V61H224.145V48.3203H227.32L227.531 50.9453ZM227.062 54.2148H226.125C226.125 53.332 226.23 52.5195 226.441 51.7773C226.66 51.0273 226.977 50.3789 227.391 49.832C227.812 49.2773 228.332 48.8477 228.949 48.543C229.566 48.2383 230.281 48.0859 231.094 48.0859C231.656 48.0859 232.172 48.1719 232.641 48.3438C233.109 48.5078 233.512 48.7695 233.848 49.1289C234.191 49.4805 234.457 49.9414 234.645 50.5117C234.832 51.0742 234.926 51.75 234.926 52.5391V61H231.551V52.9141C231.551 52.3359 231.473 51.8906 231.316 51.5781C231.16 51.2656 230.938 51.0469 230.648 50.9219C230.367 50.7969 230.027 50.7344 229.629 50.7344C229.191 50.7344 228.809 50.8242 228.48 51.0039C228.16 51.1836 227.895 51.4336 227.684 51.7539C227.473 52.0664 227.316 52.4336 227.215 52.8555C227.113 53.2773 227.062 53.7305 227.062 54.2148ZM234.609 53.8281L233.402 53.9805C233.402 53.1523 233.504 52.3828 233.707 51.6719C233.918 50.9609 234.227 50.3359 234.633 49.7969C235.047 49.2578 235.559 48.8398 236.168 48.543C236.777 48.2383 237.48 48.0859 238.277 48.0859C238.887 48.0859 239.441 48.1758 239.941 48.3555C240.441 48.5273 240.867 48.8047 241.219 49.1875C241.578 49.5625 241.852 50.0547 242.039 50.6641C242.234 51.2734 242.332 52.0195 242.332 52.9023V61H238.945V52.9023C238.945 52.3164 238.867 51.8711 238.711 51.5664C238.562 51.2539 238.344 51.0391 238.055 50.9219C237.773 50.7969 237.438 50.7344 237.047 50.7344C236.641 50.7344 236.285 50.8164 235.98 50.9805C235.676 51.1367 235.422 51.3555 235.219 51.6367C235.016 51.918 234.863 52.2461 234.762 52.6211C234.66 52.9883 234.609 53.3906 234.609 53.8281ZM251.789 58.1406V52.4922C251.789 52.0859 251.723 51.7383 251.59 51.4492C251.457 51.1523 251.25 50.9219 250.969 50.7578C250.695 50.5938 250.34 50.5117 249.902 50.5117C249.527 50.5117 249.203 50.5781 248.93 50.7109C248.656 50.8359 248.445 51.0195 248.297 51.2617C248.148 51.4961 248.074 51.7734 248.074 52.0938H244.699C244.699 51.5547 244.824 51.043 245.074 50.5586C245.324 50.0742 245.688 49.6484 246.164 49.2812C246.641 48.9062 247.207 48.6133 247.863 48.4023C248.527 48.1914 249.27 48.0859 250.09 48.0859C251.074 48.0859 251.949 48.25 252.715 48.5781C253.48 48.9062 254.082 49.3984 254.52 50.0547C254.965 50.7109 255.188 51.5312 255.188 52.5156V57.9414C255.188 58.6367 255.23 59.207 255.316 59.6523C255.402 60.0898 255.527 60.4727 255.691 60.8008V61H252.281C252.117 60.6562 251.992 60.2266 251.906 59.7109C251.828 59.1875 251.789 58.6641 251.789 58.1406ZM252.234 53.2773L252.258 55.1875H250.371C249.926 55.1875 249.539 55.2383 249.211 55.3398C248.883 55.4414 248.613 55.5859 248.402 55.7734C248.191 55.9531 248.035 56.1641 247.934 56.4062C247.84 56.6484 247.793 56.9141 247.793 57.2031C247.793 57.4922 247.859 57.7539 247.992 57.9883C248.125 58.2148 248.316 58.3945 248.566 58.5273C248.816 58.6523 249.109 58.7148 249.445 58.7148C249.953 58.7148 250.395 58.6133 250.77 58.4102C251.145 58.207 251.434 57.957 251.637 57.6602C251.848 57.3633 251.957 57.082 251.965 56.8164L252.855 58.2461C252.73 58.5664 252.559 58.8984 252.34 59.2422C252.129 59.5859 251.859 59.9102 251.531 60.2148C251.203 60.5117 250.809 60.7578 250.348 60.9531C249.887 61.1406 249.34 61.2344 248.707 61.2344C247.902 61.2344 247.172 61.0742 246.516 60.7539C245.867 60.4258 245.352 59.9766 244.969 59.4062C244.594 58.8281 244.406 58.1719 244.406 57.4375C244.406 56.7734 244.531 56.1836 244.781 55.668C245.031 55.1523 245.398 54.7188 245.883 54.3672C246.375 54.0078 246.988 53.7383 247.723 53.5586C248.457 53.3711 249.309 53.2773 250.277 53.2773H252.234Z" fill="#888888"/>
<path d="M104.344 84.875V119H96.1406V84.875H104.344ZM117.727 99.0078V119H109.828V93.6406H117.234L117.727 99.0078ZM116.766 105.453L114.961 105.5C114.961 103.719 115.172 102.078 115.594 100.578C116.016 99.0781 116.641 97.7734 117.469 96.6641C118.297 95.5547 119.312 94.6953 120.516 94.0859C121.734 93.4766 123.141 93.1719 124.734 93.1719C125.844 93.1719 126.852 93.3438 127.758 93.6875C128.664 94.0156 129.445 94.5391 130.102 95.2578C130.758 95.9609 131.258 96.8828 131.602 98.0234C131.961 99.1484 132.141 100.5 132.141 102.078V119H124.242V103.086C124.242 102.008 124.117 101.195 123.867 100.648C123.633 100.102 123.289 99.7344 122.836 99.5469C122.383 99.3594 121.828 99.2656 121.172 99.2656C120.484 99.2656 119.867 99.4219 119.32 99.7344C118.773 100.047 118.305 100.484 117.914 101.047C117.539 101.594 117.25 102.242 117.047 102.992C116.859 103.742 116.766 104.562 116.766 105.453ZM131.25 105.453L129.047 105.5C129.047 103.719 129.242 102.078 129.633 100.578C130.039 99.0781 130.641 97.7734 131.438 96.6641C132.25 95.5547 133.258 94.6953 134.461 94.0859C135.664 93.4766 137.062 93.1719 138.656 93.1719C139.812 93.1719 140.875 93.3438 141.844 93.6875C142.812 94.0312 143.648 94.5859 144.352 95.3516C145.055 96.1172 145.602 97.1328 145.992 98.3984C146.383 99.6484 146.578 101.195 146.578 103.039V119H138.656V103.039C138.656 101.992 138.531 101.203 138.281 100.672C138.047 100.125 137.703 99.7578 137.25 99.5703C136.797 99.3672 136.258 99.2656 135.633 99.2656C134.883 99.2656 134.234 99.4219 133.688 99.7344C133.141 100.047 132.68 100.484 132.305 101.047C131.945 101.594 131.68 102.242 131.508 102.992C131.336 103.742 131.25 104.562 131.25 105.453ZM159.07 98.5156V128.75H151.172V93.6406H158.531L159.07 98.5156ZM174.633 106.016V106.508C174.633 108.352 174.422 110.062 174 111.641C173.578 113.219 172.953 114.594 172.125 115.766C171.297 116.938 170.266 117.852 169.031 118.508C167.812 119.148 166.398 119.469 164.789 119.469C163.273 119.469 161.969 119.133 160.875 118.461C159.781 117.789 158.867 116.859 158.133 115.672C157.398 114.484 156.805 113.125 156.352 111.594C155.898 110.062 155.539 108.445 155.273 106.742V106.109C155.539 104.281 155.898 102.586 156.352 101.023C156.805 99.4453 157.398 98.0703 158.133 96.8984C158.867 95.7266 159.773 94.8125 160.852 94.1562C161.945 93.5 163.25 93.1719 164.766 93.1719C166.375 93.1719 167.789 93.4766 169.008 94.0859C170.242 94.6953 171.273 95.5703 172.102 96.7109C172.945 97.8359 173.578 99.1875 174 100.766C174.422 102.344 174.633 104.094 174.633 106.016ZM166.734 106.508V106.016C166.734 105.031 166.664 104.133 166.523 103.32C166.383 102.492 166.156 101.773 165.844 101.164C165.547 100.555 165.148 100.086 164.648 99.7578C164.148 99.4297 163.531 99.2656 162.797 99.2656C161.953 99.2656 161.242 99.3984 160.664 99.6641C160.102 99.9141 159.648 100.305 159.305 100.836C158.977 101.352 158.742 102 158.602 102.781C158.477 103.547 158.422 104.445 158.438 105.477V107.398C158.406 108.586 158.523 109.633 158.789 110.539C159.055 111.43 159.516 112.125 160.172 112.625C160.828 113.125 161.719 113.375 162.844 113.375C163.594 113.375 164.219 113.203 164.719 112.859C165.219 112.5 165.617 112.008 165.914 111.383C166.211 110.742 166.422 110.008 166.547 109.18C166.672 108.352 166.734 107.461 166.734 106.508ZM186.492 83V119H178.57V83H186.492ZM203.648 119.469C201.586 119.469 199.742 119.148 198.117 118.508C196.492 117.852 195.117 116.953 193.992 115.812C192.883 114.672 192.031 113.359 191.438 111.875C190.859 110.391 190.57 108.82 190.57 107.164V106.273C190.57 104.414 190.828 102.695 191.344 101.117C191.859 99.5234 192.625 98.1328 193.641 96.9453C194.656 95.7578 195.93 94.8359 197.461 94.1797C198.992 93.5078 200.773 93.1719 202.805 93.1719C204.602 93.1719 206.211 93.4609 207.633 94.0391C209.055 94.6172 210.258 95.4453 211.242 96.5234C212.242 97.6016 213 98.9062 213.516 100.438C214.047 101.969 214.312 103.688 214.312 105.594V108.805H193.594V103.859H206.602V103.25C206.617 102.406 206.469 101.688 206.156 101.094C205.859 100.5 205.422 100.047 204.844 99.7344C204.266 99.4219 203.562 99.2656 202.734 99.2656C201.875 99.2656 201.164 99.4531 200.602 99.8281C200.055 100.203 199.625 100.719 199.312 101.375C199.016 102.016 198.805 102.758 198.68 103.602C198.555 104.445 198.492 105.336 198.492 106.273V107.164C198.492 108.102 198.617 108.953 198.867 109.719C199.133 110.484 199.508 111.141 199.992 111.688C200.492 112.219 201.086 112.633 201.773 112.93C202.477 113.227 203.273 113.375 204.164 113.375C205.242 113.375 206.305 113.172 207.352 112.766C208.398 112.359 209.297 111.688 210.047 110.75L213.633 115.016C213.117 115.75 212.383 116.461 211.43 117.148C210.492 117.836 209.367 118.398 208.055 118.836C206.742 119.258 205.273 119.469 203.648 119.469ZM225.492 99.0078V119H217.594V93.6406H225L225.492 99.0078ZM224.531 105.453L222.727 105.5C222.727 103.719 222.938 102.078 223.359 100.578C223.781 99.0781 224.406 97.7734 225.234 96.6641C226.062 95.5547 227.078 94.6953 228.281 94.0859C229.5 93.4766 230.906 93.1719 232.5 93.1719C233.609 93.1719 234.617 93.3438 235.523 93.6875C236.43 94.0156 237.211 94.5391 237.867 95.2578C238.523 95.9609 239.023 96.8828 239.367 98.0234C239.727 99.1484 239.906 100.5 239.906 102.078V119H232.008V103.086C232.008 102.008 231.883 101.195 231.633 100.648C231.398 100.102 231.055 99.7344 230.602 99.5469C230.148 99.3594 229.594 99.2656 228.938 99.2656C228.25 99.2656 227.633 99.4219 227.086 99.7344C226.539 100.047 226.07 100.484 225.68 101.047C225.305 101.594 225.016 102.242 224.812 102.992C224.625 103.742 224.531 104.562 224.531 105.453ZM239.016 105.453L236.812 105.5C236.812 103.719 237.008 102.078 237.398 100.578C237.805 99.0781 238.406 97.7734 239.203 96.6641C240.016 95.5547 241.023 94.6953 242.227 94.0859C243.43 93.4766 244.828 93.1719 246.422 93.1719C247.578 93.1719 248.641 93.3438 249.609 93.6875C250.578 94.0312 251.414 94.5859 252.117 95.3516C252.82 96.1172 253.367 97.1328 253.758 98.3984C254.148 99.6484 254.344 101.195 254.344 103.039V119H246.422V103.039C246.422 101.992 246.297 101.203 246.047 100.672C245.812 100.125 245.469 99.7578 245.016 99.5703C244.562 99.3672 244.023 99.2656 243.398 99.2656C242.648 99.2656 242 99.4219 241.453 99.7344C240.906 100.047 240.445 100.484 240.07 101.047C239.711 101.594 239.445 102.242 239.273 102.992C239.102 103.742 239.016 104.562 239.016 105.453ZM271.148 119.469C269.086 119.469 267.242 119.148 265.617 118.508C263.992 117.852 262.617 116.953 261.492 115.812C260.383 114.672 259.531 113.359 258.938 111.875C258.359 110.391 258.07 108.82 258.07 107.164V106.273C258.07 104.414 258.328 102.695 258.844 101.117C259.359 99.5234 260.125 98.1328 261.141 96.9453C262.156 95.7578 263.43 94.8359 264.961 94.1797C266.492 93.5078 268.273 93.1719 270.305 93.1719C272.102 93.1719 273.711 93.4609 275.133 94.0391C276.555 94.6172 277.758 95.4453 278.742 96.5234C279.742 97.6016 280.5 98.9062 281.016 100.438C281.547 101.969 281.812 103.688 281.812 105.594V108.805H261.094V103.859H274.102V103.25C274.117 102.406 273.969 101.688 273.656 101.094C273.359 100.5 272.922 100.047 272.344 99.7344C271.766 99.4219 271.062 99.2656 270.234 99.2656C269.375 99.2656 268.664 99.4531 268.102 99.8281C267.555 100.203 267.125 100.719 266.812 101.375C266.516 102.016 266.305 102.758 266.18 103.602C266.055 104.445 265.992 105.336 265.992 106.273V107.164C265.992 108.102 266.117 108.953 266.367 109.719C266.633 110.484 267.008 111.141 267.492 111.688C267.992 112.219 268.586 112.633 269.273 112.93C269.977 113.227 270.773 113.375 271.664 113.375C272.742 113.375 273.805 113.172 274.852 112.766C275.898 112.359 276.797 111.688 277.547 110.75L281.133 115.016C280.617 115.75 279.883 116.461 278.93 117.148C277.992 117.836 276.867 118.398 275.555 118.836C274.242 119.258 272.773 119.469 271.148 119.469ZM292.781 99.0547V119H284.883V93.6406H292.289L292.781 99.0547ZM291.844 105.453L289.992 105.5C289.992 103.562 290.227 101.836 290.695 100.32C291.164 98.7891 291.828 97.4922 292.688 96.4297C293.547 95.3672 294.57 94.5625 295.758 94.0156C296.961 93.4531 298.297 93.1719 299.766 93.1719C300.938 93.1719 302.008 93.3438 302.977 93.6875C303.961 94.0312 304.805 94.5859 305.508 95.3516C306.227 96.1172 306.773 97.1328 307.148 98.3984C307.539 99.6484 307.734 101.195 307.734 103.039V119H299.789V103.016C299.789 102 299.648 101.227 299.367 100.695C299.086 100.148 298.68 99.7734 298.148 99.5703C297.617 99.3672 296.969 99.2656 296.203 99.2656C295.391 99.2656 294.703 99.4219 294.141 99.7344C293.578 100.047 293.125 100.484 292.781 101.047C292.453 101.594 292.211 102.242 292.055 102.992C291.914 103.742 291.844 104.562 291.844 105.453ZM325.477 93.6406V99.125H310.195V93.6406H325.477ZM313.406 87.3359H321.305V110.727C321.305 111.398 321.383 111.922 321.539 112.297C321.695 112.656 321.961 112.914 322.336 113.07C322.727 113.211 323.242 113.281 323.883 113.281C324.336 113.281 324.711 113.273 325.008 113.258C325.305 113.227 325.586 113.188 325.852 113.141V118.789C325.18 119.008 324.477 119.172 323.742 119.281C323.008 119.406 322.227 119.469 321.398 119.469C319.711 119.469 318.266 119.203 317.062 118.672C315.875 118.141 314.969 117.305 314.344 116.164C313.719 115.023 313.406 113.539 313.406 111.711V87.3359ZM341.789 112.625V102.172C341.789 101.453 341.688 100.836 341.484 100.32C341.281 99.8047 340.961 99.4062 340.523 99.125C340.086 98.8281 339.5 98.6797 338.766 98.6797C338.172 98.6797 337.664 98.7812 337.242 98.9844C336.82 99.1875 336.5 99.4922 336.281 99.8984C336.062 100.305 335.953 100.82 335.953 101.445H328.055C328.055 100.273 328.312 99.1875 328.828 98.1875C329.359 97.1719 330.109 96.2891 331.078 95.5391C332.062 94.7891 333.234 94.2109 334.594 93.8047C335.969 93.3828 337.5 93.1719 339.188 93.1719C341.203 93.1719 343 93.5078 344.578 94.1797C346.172 94.8516 347.43 95.8594 348.352 97.2031C349.273 98.5312 349.734 100.203 349.734 102.219V112.602C349.734 114.258 349.828 115.516 350.016 116.375C350.203 117.219 350.469 117.961 350.812 118.602V119H342.891C342.516 118.219 342.234 117.266 342.047 116.141C341.875 115 341.789 113.828 341.789 112.625ZM342.75 103.508L342.797 107.727H339.305C338.57 107.727 337.945 107.828 337.43 108.031C336.93 108.234 336.523 108.516 336.211 108.875C335.914 109.219 335.695 109.609 335.555 110.047C335.43 110.484 335.367 110.945 335.367 111.43C335.367 111.898 335.477 112.32 335.695 112.695C335.93 113.055 336.242 113.336 336.633 113.539C337.023 113.742 337.461 113.844 337.945 113.844C338.82 113.844 339.562 113.68 340.172 113.352C340.797 113.008 341.273 112.594 341.602 112.109C341.93 111.625 342.094 111.172 342.094 110.75L343.828 113.984C343.516 114.609 343.156 115.242 342.75 115.883C342.359 116.523 341.867 117.117 341.273 117.664C340.695 118.195 339.984 118.633 339.141 118.977C338.297 119.305 337.273 119.469 336.07 119.469C334.508 119.469 333.07 119.148 331.758 118.508C330.461 117.867 329.422 116.977 328.641 115.836C327.859 114.68 327.469 113.352 327.469 111.852C327.469 110.539 327.703 109.367 328.172 108.336C328.656 107.305 329.383 106.43 330.352 105.711C331.32 104.992 332.555 104.445 334.055 104.07C335.555 103.695 337.32 103.508 339.352 103.508H342.75ZM367.477 93.6406V99.125H352.195V93.6406H367.477ZM355.406 87.3359H363.305V110.727C363.305 111.398 363.383 111.922 363.539 112.297C363.695 112.656 363.961 112.914 364.336 113.07C364.727 113.211 365.242 113.281 365.883 113.281C366.336 113.281 366.711 113.273 367.008 113.258C367.305 113.227 367.586 113.188 367.852 113.141V118.789C367.18 119.008 366.477 119.172 365.742 119.281C365.008 119.406 364.227 119.469 363.398 119.469C361.711 119.469 360.266 119.203 359.062 118.672C357.875 118.141 356.969 117.305 356.344 116.164C355.719 115.023 355.406 113.539 355.406 111.711V87.3359ZM378.961 93.6406V119H371.039V93.6406H378.961ZM370.57 87.1016C370.57 85.9766 370.977 85.0547 371.789 84.3359C372.602 83.6172 373.656 83.2578 374.953 83.2578C376.25 83.2578 377.305 83.6172 378.117 84.3359C378.93 85.0547 379.336 85.9766 379.336 87.1016C379.336 88.2266 378.93 89.1484 378.117 89.8672C377.305 90.5859 376.25 90.9453 374.953 90.9453C373.656 90.9453 372.602 90.5859 371.789 89.8672C370.977 89.1484 370.57 88.2266 370.57 87.1016ZM382.852 106.578V106.086C382.852 104.227 383.117 102.516 383.648 100.953C384.18 99.375 384.961 98.0078 385.992 96.8516C387.023 95.6953 388.297 94.7969 389.812 94.1562C391.328 93.5 393.078 93.1719 395.062 93.1719C397.062 93.1719 398.82 93.5 400.336 94.1562C401.867 94.7969 403.148 95.6953 404.18 96.8516C405.211 98.0078 405.992 99.375 406.523 100.953C407.055 102.516 407.32 104.227 407.32 106.086V106.578C407.32 108.422 407.055 110.133 406.523 111.711C405.992 113.273 405.211 114.641 404.18 115.812C403.148 116.969 401.875 117.867 400.359 118.508C398.844 119.148 397.094 119.469 395.109 119.469C393.125 119.469 391.367 119.148 389.836 118.508C388.305 117.867 387.023 116.969 385.992 115.812C384.961 114.641 384.18 113.273 383.648 111.711C383.117 110.133 382.852 108.422 382.852 106.578ZM390.75 106.086V106.578C390.75 107.531 390.82 108.422 390.961 109.25C391.102 110.078 391.336 110.805 391.664 111.43C391.992 112.039 392.438 112.516 393 112.859C393.562 113.203 394.266 113.375 395.109 113.375C395.938 113.375 396.625 113.203 397.172 112.859C397.734 112.516 398.18 112.039 398.508 111.43C398.836 110.805 399.07 110.078 399.211 109.25C399.352 108.422 399.422 107.531 399.422 106.578V106.086C399.422 105.164 399.352 104.297 399.211 103.484C399.07 102.656 398.836 101.93 398.508 101.305C398.18 100.664 397.734 100.164 397.172 99.8047C396.609 99.4453 395.906 99.2656 395.062 99.2656C394.234 99.2656 393.539 99.4453 392.977 99.8047C392.43 100.164 391.992 100.664 391.664 101.305C391.336 101.93 391.102 102.656 390.961 103.484C390.82 104.297 390.75 105.164 390.75 106.086ZM418.594 99.0547V119H410.695V93.6406H418.102L418.594 99.0547ZM417.656 105.453L415.805 105.5C415.805 103.562 416.039 101.836 416.508 100.32C416.977 98.7891 417.641 97.4922 418.5 96.4297C419.359 95.3672 420.383 94.5625 421.57 94.0156C422.773 93.4531 424.109 93.1719 425.578 93.1719C426.75 93.1719 427.82 93.3438 428.789 93.6875C429.773 94.0312 430.617 94.5859 431.32 95.3516C432.039 96.1172 432.586 97.1328 432.961 98.3984C433.352 99.6484 433.547 101.195 433.547 103.039V119H425.602V103.016C425.602 102 425.461 101.227 425.18 100.695C424.898 100.148 424.492 99.7734 423.961 99.5703C423.43 99.3672 422.781 99.2656 422.016 99.2656C421.203 99.2656 420.516 99.4219 419.953 99.7344C419.391 100.047 418.938 100.484 418.594 101.047C418.266 101.594 418.023 102.242 417.867 102.992C417.727 103.742 417.656 104.562 417.656 105.453Z" fill="black"/>
<path d="M1134 0H1348C1356.28 0 1363 6.71573 1363 15V148C1363 156.284 1356.28 163 1348 163H1134V0Z" fill="#058789"/>
<path d="M1280.07 47.5H1216.93L1214.5 49.9286V113.071L1216.93 115.5H1280.07L1282.5 113.071V49.9286L1280.07 47.5ZM1277.64 110.643H1233.93V100.929H1245.1C1246.56 103.843 1249.96 105.786 1253.36 105.786C1258.7 105.786 1263.07 101.414 1263.07 96.0714C1263.07 90.7286 1258.7 86.3571 1253.36 86.3571C1248.01 86.3571 1243.64 90.7286 1243.64 96.0714H1229.07V110.643H1219.36V52.3571H1229.07V63.5286C1226.16 64.9857 1224.21 68.3857 1224.21 71.7857C1224.21 77.1286 1228.59 81.5 1233.93 81.5C1239.27 81.5 1243.64 77.1286 1243.64 71.7857H1253.36C1253.36 77.1286 1257.73 81.5 1263.07 81.5C1268.41 81.5 1272.79 77.1286 1272.79 71.7857C1272.79 66.4429 1268.41 62.0714 1263.07 62.0714C1259.67 62.0714 1256.27 64.0143 1254.81 66.9286H1242.19C1240.73 64.0143 1237.33 62.0714 1233.93 62.0714V52.3571H1277.64V110.643ZM1248.5 96.0714C1248.5 93.1571 1250.44 91.2143 1253.36 91.2143C1256.27 91.2143 1258.21 93.1571 1258.21 96.0714C1258.21 98.9857 1256.27 100.929 1253.36 100.929C1250.44 100.929 1248.5 98.9857 1248.5 96.0714ZM1233.93 66.9286C1236.84 66.9286 1238.79 68.8714 1238.79 71.7857C1238.79 74.7 1236.84 76.6429 1233.93 76.6429C1231.01 76.6429 1229.07 74.7 1229.07 71.7857C1229.07 68.8714 1231.01 66.9286 1233.93 66.9286ZM1263.07 66.9286C1265.99 66.9286 1267.93 68.8714 1267.93 71.7857C1267.93 74.7 1265.99 76.6429 1263.07 76.6429C1260.16 76.6429 1258.21 74.7 1258.21 71.7857C1258.21 68.8714 1260.16 66.9286 1263.07 66.9286Z" fill="white"/>
</svg>
