<svg width="1363" height="163" viewBox="0 0 1363 163" fill="none" xmlns="http://www.w3.org/2000/svg">
<path d="M0 15C0 6.71573 6.71573 0 15 0H37V163H15C6.71573 163 0 156.284 0 148V15Z" fill="#424242"/>
<rect width="1097" height="163" transform="translate(37)" fill="#F0F0F0"/>
<path d="M101.906 53.9219L94.3945 51.2383V48.0859L104.602 52.375V54.6367L101.906 53.9219ZM94.3945 56.1719L101.918 53.4297L104.602 52.7852V55.0352L94.3945 59.3242V56.1719ZM122.789 55.3398H126.293C126.223 56.4883 125.906 57.5078 125.344 58.3984C124.789 59.2891 124.012 59.9844 123.012 60.4844C122.02 60.9844 120.824 61.2344 119.426 61.2344C118.332 61.2344 117.352 61.0469 116.484 60.6719C115.617 60.2891 114.875 59.7422 114.258 59.0312C113.648 58.3203 113.184 57.4609 112.863 56.4531C112.543 55.4453 112.383 54.3164 112.383 53.0664V51.8828C112.383 50.6328 112.547 49.5039 112.875 48.4961C113.211 47.4805 113.688 46.6172 114.305 45.9062C114.93 45.1953 115.676 44.6484 116.543 44.2656C117.41 43.8828 118.379 43.6914 119.449 43.6914C120.871 43.6914 122.07 43.9492 123.047 44.4648C124.031 44.9805 124.793 45.6914 125.332 46.5977C125.879 47.5039 126.207 48.5352 126.316 49.6914H122.801C122.762 49.0039 122.625 48.4219 122.391 47.9453C122.156 47.4609 121.801 47.0977 121.324 46.8555C120.855 46.6055 120.23 46.4805 119.449 46.4805C118.863 46.4805 118.352 46.5898 117.914 46.8086C117.477 47.0273 117.109 47.3594 116.812 47.8047C116.516 48.25 116.293 48.8125 116.145 49.4922C116.004 50.1641 115.934 50.9531 115.934 51.8594V53.0664C115.934 53.9492 116 54.7266 116.133 55.3984C116.266 56.0625 116.469 56.625 116.742 57.0859C117.023 57.5391 117.383 57.8828 117.82 58.1172C118.266 58.3438 118.801 58.457 119.426 58.457C120.16 58.457 120.766 58.3398 121.242 58.1055C121.719 57.8711 122.082 57.5234 122.332 57.0625C122.59 56.6016 122.742 56.0273 122.789 55.3398ZM131.953 43V61H128.566V43H131.953ZM140.578 61.2344C139.594 61.2344 138.711 61.0781 137.93 60.7656C137.148 60.4453 136.484 60.0039 135.938 59.4414C135.398 58.8789 134.984 58.2266 134.695 57.4844C134.406 56.7344 134.262 55.9375 134.262 55.0938V54.625C134.262 53.6641 134.398 52.7852 134.672 51.9883C134.945 51.1914 135.336 50.5 135.844 49.9141C136.359 49.3281 136.984 48.8789 137.719 48.5664C138.453 48.2461 139.281 48.0859 140.203 48.0859C141.102 48.0859 141.898 48.2344 142.594 48.5312C143.289 48.8281 143.871 49.25 144.34 49.7969C144.816 50.3438 145.176 51 145.418 51.7656C145.66 52.5234 145.781 53.3672 145.781 54.2969V55.7031H135.703V53.4531H142.465V53.1953C142.465 52.7266 142.379 52.3086 142.207 51.9414C142.043 51.5664 141.793 51.2695 141.457 51.0508C141.121 50.832 140.691 50.7227 140.168 50.7227C139.723 50.7227 139.34 50.8203 139.02 51.0156C138.699 51.2109 138.438 51.4844 138.234 51.8359C138.039 52.1875 137.891 52.6016 137.789 53.0781C137.695 53.5469 137.648 54.0625 137.648 54.625V55.0938C137.648 55.6016 137.719 56.0703 137.859 56.5C138.008 56.9297 138.215 57.3008 138.48 57.6133C138.754 57.9258 139.082 58.168 139.465 58.3398C139.855 58.5117 140.297 58.5977 140.789 58.5977C141.398 58.5977 141.965 58.4805 142.488 58.2461C143.02 58.0039 143.477 57.6406 143.859 57.1562L145.5 58.9375C145.234 59.3203 144.871 59.6875 144.41 60.0391C143.957 60.3906 143.41 60.6797 142.77 60.9062C142.129 61.125 141.398 61.2344 140.578 61.2344ZM151.852 58.5391L154.664 48.3203H158.191L153.914 61H151.781L151.852 58.5391ZM149.918 48.3203L152.742 58.5508L152.801 61H150.656L146.379 48.3203H149.918ZM165.375 61.2344C164.391 61.2344 163.508 61.0781 162.727 60.7656C161.945 60.4453 161.281 60.0039 160.734 59.4414C160.195 58.8789 159.781 58.2266 159.492 57.4844C159.203 56.7344 159.059 55.9375 159.059 55.0938V54.625C159.059 53.6641 159.195 52.7852 159.469 51.9883C159.742 51.1914 160.133 50.5 160.641 49.9141C161.156 49.3281 161.781 48.8789 162.516 48.5664C163.25 48.2461 164.078 48.0859 165 48.0859C165.898 48.0859 166.695 48.2344 167.391 48.5312C168.086 48.8281 168.668 49.25 169.137 49.7969C169.613 50.3438 169.973 51 170.215 51.7656C170.457 52.5234 170.578 53.3672 170.578 54.2969V55.7031H160.5V53.4531H167.262V53.1953C167.262 52.7266 167.176 52.3086 167.004 51.9414C166.84 51.5664 166.59 51.2695 166.254 51.0508C165.918 50.832 165.488 50.7227 164.965 50.7227C164.52 50.7227 164.137 50.8203 163.816 51.0156C163.496 51.2109 163.234 51.4844 163.031 51.8359C162.836 52.1875 162.688 52.6016 162.586 53.0781C162.492 53.5469 162.445 54.0625 162.445 54.625V55.0938C162.445 55.6016 162.516 56.0703 162.656 56.5C162.805 56.9297 163.012 57.3008 163.277 57.6133C163.551 57.9258 163.879 58.168 164.262 58.3398C164.652 58.5117 165.094 58.5977 165.586 58.5977C166.195 58.5977 166.762 58.4805 167.285 58.2461C167.816 58.0039 168.273 57.6406 168.656 57.1562L170.297 58.9375C170.031 59.3203 169.668 59.6875 169.207 60.0391C168.754 60.3906 168.207 60.6797 167.566 60.9062C166.926 61.125 166.195 61.2344 165.375 61.2344ZM175.875 51.0859V61H172.5V48.3203H175.676L175.875 51.0859ZM179.695 48.2383L179.637 51.3672C179.473 51.3438 179.273 51.3242 179.039 51.3086C178.812 51.2852 178.605 51.2734 178.418 51.2734C177.941 51.2734 177.527 51.3359 177.176 51.4609C176.832 51.5781 176.543 51.7539 176.309 51.9883C176.082 52.2227 175.91 52.5078 175.793 52.8438C175.684 53.1797 175.621 53.5625 175.605 53.9922L174.926 53.7812C174.926 52.9609 175.008 52.207 175.172 51.5195C175.336 50.8242 175.574 50.2188 175.887 49.7031C176.207 49.1875 176.598 48.7891 177.059 48.5078C177.52 48.2266 178.047 48.0859 178.641 48.0859C178.828 48.0859 179.02 48.1016 179.215 48.1328C179.41 48.1562 179.57 48.1914 179.695 48.2383ZM190.992 43.9375V61H187.477V43.9375H190.992ZM201.211 43.9375L194.449 52.3633L190.547 56.5586L189.914 53.2305L192.551 49.6211L196.898 43.9375H201.211ZM197.215 61L192.188 53.1133L194.789 50.9336L201.375 61H197.215ZM209.367 58.1406V52.4922C209.367 52.0859 209.301 51.7383 209.168 51.4492C209.035 51.1523 208.828 50.9219 208.547 50.7578C208.273 50.5938 207.918 50.5117 207.48 50.5117C207.105 50.5117 206.781 50.5781 206.508 50.7109C206.234 50.8359 206.023 51.0195 205.875 51.2617C205.727 51.4961 205.652 51.7734 205.652 52.0938H202.277C202.277 51.5547 202.402 51.043 202.652 50.5586C202.902 50.0742 203.266 49.6484 203.742 49.2812C204.219 48.9062 204.785 48.6133 205.441 48.4023C206.105 48.1914 206.848 48.0859 207.668 48.0859C208.652 48.0859 209.527 48.25 210.293 48.5781C211.059 48.9062 211.66 49.3984 212.098 50.0547C212.543 50.7109 212.766 51.5312 212.766 52.5156V57.9414C212.766 58.6367 212.809 59.207 212.895 59.6523C212.98 60.0898 213.105 60.4727 213.27 60.8008V61H209.859C209.695 60.6562 209.57 60.2266 209.484 59.7109C209.406 59.1875 209.367 58.6641 209.367 58.1406ZM209.812 53.2773L209.836 55.1875H207.949C207.504 55.1875 207.117 55.2383 206.789 55.3398C206.461 55.4414 206.191 55.5859 205.98 55.7734C205.77 55.9531 205.613 56.1641 205.512 56.4062C205.418 56.6484 205.371 56.9141 205.371 57.2031C205.371 57.4922 205.438 57.7539 205.57 57.9883C205.703 58.2148 205.895 58.3945 206.145 58.5273C206.395 58.6523 206.688 58.7148 207.023 58.7148C207.531 58.7148 207.973 58.6133 208.348 58.4102C208.723 58.207 209.012 57.957 209.215 57.6602C209.426 57.3633 209.535 57.082 209.543 56.8164L210.434 58.2461C210.309 58.5664 210.137 58.8984 209.918 59.2422C209.707 59.5859 209.438 59.9102 209.109 60.2148C208.781 60.5117 208.387 60.7578 207.926 60.9531C207.465 61.1406 206.918 61.2344 206.285 61.2344C205.48 61.2344 204.75 61.0742 204.094 60.7539C203.445 60.4258 202.93 59.9766 202.547 59.4062C202.172 58.8281 201.984 58.1719 201.984 57.4375C201.984 56.7734 202.109 56.1836 202.359 55.668C202.609 55.1523 202.977 54.7188 203.461 54.3672C203.953 54.0078 204.566 53.7383 205.301 53.5586C206.035 53.3711 206.887 53.2773 207.855 53.2773H209.812ZM218.742 51.0859V61H215.367V48.3203H218.543L218.742 51.0859ZM222.562 48.2383L222.504 51.3672C222.34 51.3438 222.141 51.3242 221.906 51.3086C221.68 51.2852 221.473 51.2734 221.285 51.2734C220.809 51.2734 220.395 51.3359 220.043 51.4609C219.699 51.5781 219.41 51.7539 219.176 51.9883C218.949 52.2227 218.777 52.5078 218.66 52.8438C218.551 53.1797 218.488 53.5625 218.473 53.9922L217.793 53.7812C217.793 52.9609 217.875 52.207 218.039 51.5195C218.203 50.8242 218.441 50.2188 218.754 49.7031C219.074 49.1875 219.465 48.7891 219.926 48.5078C220.387 48.2266 220.914 48.0859 221.508 48.0859C221.695 48.0859 221.887 48.1016 222.082 48.1328C222.277 48.1562 222.438 48.1914 222.562 48.2383ZM227.531 50.9453V61H224.145V48.3203H227.32L227.531 50.9453ZM227.062 54.2148H226.125C226.125 53.332 226.23 52.5195 226.441 51.7773C226.66 51.0273 226.977 50.3789 227.391 49.832C227.812 49.2773 228.332 48.8477 228.949 48.543C229.566 48.2383 230.281 48.0859 231.094 48.0859C231.656 48.0859 232.172 48.1719 232.641 48.3438C233.109 48.5078 233.512 48.7695 233.848 49.1289C234.191 49.4805 234.457 49.9414 234.645 50.5117C234.832 51.0742 234.926 51.75 234.926 52.5391V61H231.551V52.9141C231.551 52.3359 231.473 51.8906 231.316 51.5781C231.16 51.2656 230.938 51.0469 230.648 50.9219C230.367 50.7969 230.027 50.7344 229.629 50.7344C229.191 50.7344 228.809 50.8242 228.48 51.0039C228.16 51.1836 227.895 51.4336 227.684 51.7539C227.473 52.0664 227.316 52.4336 227.215 52.8555C227.113 53.2773 227.062 53.7305 227.062 54.2148ZM234.609 53.8281L233.402 53.9805C233.402 53.1523 233.504 52.3828 233.707 51.6719C233.918 50.9609 234.227 50.3359 234.633 49.7969C235.047 49.2578 235.559 48.8398 236.168 48.543C236.777 48.2383 237.48 48.0859 238.277 48.0859C238.887 48.0859 239.441 48.1758 239.941 48.3555C240.441 48.5273 240.867 48.8047 241.219 49.1875C241.578 49.5625 241.852 50.0547 242.039 50.6641C242.234 51.2734 242.332 52.0195 242.332 52.9023V61H238.945V52.9023C238.945 52.3164 238.867 51.8711 238.711 51.5664C238.562 51.2539 238.344 51.0391 238.055 50.9219C237.773 50.7969 237.438 50.7344 237.047 50.7344C236.641 50.7344 236.285 50.8164 235.98 50.9805C235.676 51.1367 235.422 51.3555 235.219 51.6367C235.016 51.918 234.863 52.2461 234.762 52.6211C234.66 52.9883 234.609 53.3906 234.609 53.8281ZM251.789 58.1406V52.4922C251.789 52.0859 251.723 51.7383 251.59 51.4492C251.457 51.1523 251.25 50.9219 250.969 50.7578C250.695 50.5938 250.34 50.5117 249.902 50.5117C249.527 50.5117 249.203 50.5781 248.93 50.7109C248.656 50.8359 248.445 51.0195 248.297 51.2617C248.148 51.4961 248.074 51.7734 248.074 52.0938H244.699C244.699 51.5547 244.824 51.043 245.074 50.5586C245.324 50.0742 245.688 49.6484 246.164 49.2812C246.641 48.9062 247.207 48.6133 247.863 48.4023C248.527 48.1914 249.27 48.0859 250.09 48.0859C251.074 48.0859 251.949 48.25 252.715 48.5781C253.48 48.9062 254.082 49.3984 254.52 50.0547C254.965 50.7109 255.188 51.5312 255.188 52.5156V57.9414C255.188 58.6367 255.23 59.207 255.316 59.6523C255.402 60.0898 255.527 60.4727 255.691 60.8008V61H252.281C252.117 60.6562 251.992 60.2266 251.906 59.7109C251.828 59.1875 251.789 58.6641 251.789 58.1406ZM252.234 53.2773L252.258 55.1875H250.371C249.926 55.1875 249.539 55.2383 249.211 55.3398C248.883 55.4414 248.613 55.5859 248.402 55.7734C248.191 55.9531 248.035 56.1641 247.934 56.4062C247.84 56.6484 247.793 56.9141 247.793 57.2031C247.793 57.4922 247.859 57.7539 247.992 57.9883C248.125 58.2148 248.316 58.3945 248.566 58.5273C248.816 58.6523 249.109 58.7148 249.445 58.7148C249.953 58.7148 250.395 58.6133 250.77 58.4102C251.145 58.207 251.434 57.957 251.637 57.6602C251.848 57.3633 251.957 57.082 251.965 56.8164L252.855 58.2461C252.73 58.5664 252.559 58.8984 252.34 59.2422C252.129 59.5859 251.859 59.9102 251.531 60.2148C251.203 60.5117 250.809 60.7578 250.348 60.9531C249.887 61.1406 249.34 61.2344 248.707 61.2344C247.902 61.2344 247.172 61.0742 246.516 60.7539C245.867 60.4258 245.352 59.9766 244.969 59.4062C244.594 58.8281 244.406 58.1719 244.406 57.4375C244.406 56.7734 244.531 56.1836 244.781 55.668C245.031 55.1523 245.398 54.7188 245.883 54.3672C246.375 54.0078 246.988 53.7383 247.723 53.5586C248.457 53.3711 249.309 53.2773 250.277 53.2773H252.234Z" fill="#888888"/>
<path d="M114.117 84.875H122.344V107.164C122.344 109.82 121.789 112.07 120.68 113.914C119.57 115.742 118.016 117.125 116.016 118.062C114.016 119 111.664 119.469 108.961 119.469C106.289 119.469 103.938 119 101.906 118.062C99.8906 117.125 98.3125 115.742 97.1719 113.914C96.0469 112.07 95.4844 109.82 95.4844 107.164V84.875H103.734V107.164C103.734 108.57 103.938 109.719 104.344 110.609C104.75 111.484 105.344 112.125 106.125 112.531C106.906 112.938 107.852 113.141 108.961 113.141C110.086 113.141 111.031 112.938 111.797 112.531C112.562 112.125 113.141 111.484 113.531 110.609C113.922 109.719 114.117 108.57 114.117 107.164V84.875ZM136.266 84.875V119H128.062V84.875H136.266ZM172.523 84.875H180.75V107.164C180.75 109.82 180.195 112.07 179.086 113.914C177.977 115.742 176.422 117.125 174.422 118.062C172.422 119 170.07 119.469 167.367 119.469C164.695 119.469 162.344 119 160.312 118.062C158.297 117.125 156.719 115.742 155.578 113.914C154.453 112.07 153.891 109.82 153.891 107.164V84.875H162.141V107.164C162.141 108.57 162.344 109.719 162.75 110.609C163.156 111.484 163.75 112.125 164.531 112.531C165.312 112.938 166.258 113.141 167.367 113.141C168.492 113.141 169.438 112.938 170.203 112.531C170.969 112.125 171.547 111.484 171.938 110.609C172.328 109.719 172.523 108.57 172.523 107.164V84.875ZM193.078 84.875L198.656 96.2188L204.234 84.875H213.609L204.094 101.797L213.867 119H204.398L198.656 107.445L192.914 119H183.422L193.219 101.797L183.68 84.875H193.078Z" fill="black"/>
<path d="M1134 0H1348C1356.28 0 1363 6.71573 1363 15V148C1363 156.284 1356.28 163 1348 163H1134V0Z" fill="#058789"/>
<path d="M1248.5 111.917C1244.51 111.917 1240.55 111.13 1236.86 109.601C1233.17 108.073 1229.82 105.832 1226.99 103.008C1221.29 97.3036 1218.08 89.567 1218.08 81.5C1218.08 73.433 1221.29 65.6964 1226.99 59.9922C1232.7 54.2879 1240.43 51.0833 1248.5 51.0833C1265.23 51.0833 1278.92 63.25 1278.92 78.4583C1278.92 83.2985 1276.99 87.9405 1273.57 91.363C1270.15 94.7856 1265.51 96.7083 1260.67 96.7083H1255.19C1254.28 96.7083 1253.67 97.3167 1253.67 98.2292C1253.67 98.5333 1253.97 98.8375 1253.97 99.1417C1255.19 100.662 1255.8 102.487 1255.8 104.312C1256.1 108.571 1252.76 111.917 1248.5 111.917ZM1248.5 57.1667C1242.05 57.1667 1235.86 59.7303 1231.29 64.2937C1226.73 68.8571 1224.17 75.0464 1224.17 81.5C1224.17 87.9536 1226.73 94.1429 1231.29 98.7063C1235.86 103.27 1242.05 105.833 1248.5 105.833C1249.41 105.833 1250.02 105.225 1250.02 104.312C1250.02 103.704 1249.72 103.4 1249.72 103.096C1248.5 101.575 1247.89 100.054 1247.89 98.2292C1247.89 93.9708 1251.24 90.625 1255.5 90.625H1260.67C1263.89 90.625 1266.99 89.3432 1269.27 87.0615C1271.55 84.7798 1272.83 81.6851 1272.83 78.4583C1272.83 66.5958 1261.88 57.1667 1248.5 57.1667ZM1231.77 75.4167C1234.2 75.4167 1236.33 77.5458 1236.33 79.9792C1236.33 82.4125 1234.2 84.5417 1231.77 84.5417C1229.34 84.5417 1227.21 82.4125 1227.21 79.9792C1227.21 77.5458 1229.34 75.4167 1231.77 75.4167ZM1240.9 63.25C1243.33 63.25 1245.46 65.3792 1245.46 67.8125C1245.46 70.2458 1243.33 72.375 1240.9 72.375C1238.46 72.375 1236.33 70.2458 1236.33 67.8125C1236.33 65.3792 1238.46 63.25 1240.9 63.25ZM1256.1 63.25C1258.54 63.25 1260.67 65.3792 1260.67 67.8125C1260.67 70.2458 1258.54 72.375 1256.1 72.375C1253.67 72.375 1251.54 70.2458 1251.54 67.8125C1251.54 65.3792 1253.67 63.25 1256.1 63.25ZM1265.23 75.4167C1267.66 75.4167 1269.79 77.5458 1269.79 79.9792C1269.79 82.4125 1267.66 84.5417 1265.23 84.5417C1262.8 84.5417 1260.67 82.4125 1260.67 79.9792C1260.67 77.5458 1262.8 75.4167 1265.23 75.4167Z" fill="white"/>
</svg>
