<svg width="1363" height="163" viewBox="0 0 1363 163" fill="none" xmlns="http://www.w3.org/2000/svg">
<path d="M0 15C0 6.71573 6.71573 0 15 0H37V163H15C6.71573 163 0 156.284 0 148V15Z" fill="#424242"/>
<rect width="1097" height="163" transform="translate(37)" fill="#F0F0F0"/>
<path d="M101.906 53.9219L94.3945 51.2383V48.0859L104.602 52.375V54.6367L101.906 53.9219ZM94.3945 56.1719L101.918 53.4297L104.602 52.7852V55.0352L94.3945 59.3242V56.1719ZM122.789 55.3398H126.293C126.223 56.4883 125.906 57.5078 125.344 58.3984C124.789 59.2891 124.012 59.9844 123.012 60.4844C122.02 60.9844 120.824 61.2344 119.426 61.2344C118.332 61.2344 117.352 61.0469 116.484 60.6719C115.617 60.2891 114.875 59.7422 114.258 59.0312C113.648 58.3203 113.184 57.4609 112.863 56.4531C112.543 55.4453 112.383 54.3164 112.383 53.0664V51.8828C112.383 50.6328 112.547 49.5039 112.875 48.4961C113.211 47.4805 113.688 46.6172 114.305 45.9062C114.93 45.1953 115.676 44.6484 116.543 44.2656C117.41 43.8828 118.379 43.6914 119.449 43.6914C120.871 43.6914 122.07 43.9492 123.047 44.4648C124.031 44.9805 124.793 45.6914 125.332 46.5977C125.879 47.5039 126.207 48.5352 126.316 49.6914H122.801C122.762 49.0039 122.625 48.4219 122.391 47.9453C122.156 47.4609 121.801 47.0977 121.324 46.8555C120.855 46.6055 120.23 46.4805 119.449 46.4805C118.863 46.4805 118.352 46.5898 117.914 46.8086C117.477 47.0273 117.109 47.3594 116.812 47.8047C116.516 48.25 116.293 48.8125 116.145 49.4922C116.004 50.1641 115.934 50.9531 115.934 51.8594V53.0664C115.934 53.9492 116 54.7266 116.133 55.3984C116.266 56.0625 116.469 56.625 116.742 57.0859C117.023 57.5391 117.383 57.8828 117.82 58.1172C118.266 58.3438 118.801 58.457 119.426 58.457C120.16 58.457 120.766 58.3398 121.242 58.1055C121.719 57.8711 122.082 57.5234 122.332 57.0625C122.59 56.6016 122.742 56.0273 122.789 55.3398ZM131.953 43V61H128.566V43H131.953ZM140.578 61.2344C139.594 61.2344 138.711 61.0781 137.93 60.7656C137.148 60.4453 136.484 60.0039 135.938 59.4414C135.398 58.8789 134.984 58.2266 134.695 57.4844C134.406 56.7344 134.262 55.9375 134.262 55.0938V54.625C134.262 53.6641 134.398 52.7852 134.672 51.9883C134.945 51.1914 135.336 50.5 135.844 49.9141C136.359 49.3281 136.984 48.8789 137.719 48.5664C138.453 48.2461 139.281 48.0859 140.203 48.0859C141.102 48.0859 141.898 48.2344 142.594 48.5312C143.289 48.8281 143.871 49.25 144.34 49.7969C144.816 50.3438 145.176 51 145.418 51.7656C145.66 52.5234 145.781 53.3672 145.781 54.2969V55.7031H135.703V53.4531H142.465V53.1953C142.465 52.7266 142.379 52.3086 142.207 51.9414C142.043 51.5664 141.793 51.2695 141.457 51.0508C141.121 50.832 140.691 50.7227 140.168 50.7227C139.723 50.7227 139.34 50.8203 139.02 51.0156C138.699 51.2109 138.438 51.4844 138.234 51.8359C138.039 52.1875 137.891 52.6016 137.789 53.0781C137.695 53.5469 137.648 54.0625 137.648 54.625V55.0938C137.648 55.6016 137.719 56.0703 137.859 56.5C138.008 56.9297 138.215 57.3008 138.48 57.6133C138.754 57.9258 139.082 58.168 139.465 58.3398C139.855 58.5117 140.297 58.5977 140.789 58.5977C141.398 58.5977 141.965 58.4805 142.488 58.2461C143.02 58.0039 143.477 57.6406 143.859 57.1562L145.5 58.9375C145.234 59.3203 144.871 59.6875 144.41 60.0391C143.957 60.3906 143.41 60.6797 142.77 60.9062C142.129 61.125 141.398 61.2344 140.578 61.2344ZM151.852 58.5391L154.664 48.3203H158.191L153.914 61H151.781L151.852 58.5391ZM149.918 48.3203L152.742 58.5508L152.801 61H150.656L146.379 48.3203H149.918ZM165.375 61.2344C164.391 61.2344 163.508 61.0781 162.727 60.7656C161.945 60.4453 161.281 60.0039 160.734 59.4414C160.195 58.8789 159.781 58.2266 159.492 57.4844C159.203 56.7344 159.059 55.9375 159.059 55.0938V54.625C159.059 53.6641 159.195 52.7852 159.469 51.9883C159.742 51.1914 160.133 50.5 160.641 49.9141C161.156 49.3281 161.781 48.8789 162.516 48.5664C163.25 48.2461 164.078 48.0859 165 48.0859C165.898 48.0859 166.695 48.2344 167.391 48.5312C168.086 48.8281 168.668 49.25 169.137 49.7969C169.613 50.3438 169.973 51 170.215 51.7656C170.457 52.5234 170.578 53.3672 170.578 54.2969V55.7031H160.5V53.4531H167.262V53.1953C167.262 52.7266 167.176 52.3086 167.004 51.9414C166.84 51.5664 166.59 51.2695 166.254 51.0508C165.918 50.832 165.488 50.7227 164.965 50.7227C164.52 50.7227 164.137 50.8203 163.816 51.0156C163.496 51.2109 163.234 51.4844 163.031 51.8359C162.836 52.1875 162.688 52.6016 162.586 53.0781C162.492 53.5469 162.445 54.0625 162.445 54.625V55.0938C162.445 55.6016 162.516 56.0703 162.656 56.5C162.805 56.9297 163.012 57.3008 163.277 57.6133C163.551 57.9258 163.879 58.168 164.262 58.3398C164.652 58.5117 165.094 58.5977 165.586 58.5977C166.195 58.5977 166.762 58.4805 167.285 58.2461C167.816 58.0039 168.273 57.6406 168.656 57.1562L170.297 58.9375C170.031 59.3203 169.668 59.6875 169.207 60.0391C168.754 60.3906 168.207 60.6797 167.566 60.9062C166.926 61.125 166.195 61.2344 165.375 61.2344ZM175.875 51.0859V61H172.5V48.3203H175.676L175.875 51.0859ZM179.695 48.2383L179.637 51.3672C179.473 51.3438 179.273 51.3242 179.039 51.3086C178.812 51.2852 178.605 51.2734 178.418 51.2734C177.941 51.2734 177.527 51.3359 177.176 51.4609C176.832 51.5781 176.543 51.7539 176.309 51.9883C176.082 52.2227 175.91 52.5078 175.793 52.8438C175.684 53.1797 175.621 53.5625 175.605 53.9922L174.926 53.7812C174.926 52.9609 175.008 52.207 175.172 51.5195C175.336 50.8242 175.574 50.2188 175.887 49.7031C176.207 49.1875 176.598 48.7891 177.059 48.5078C177.52 48.2266 178.047 48.0859 178.641 48.0859C178.828 48.0859 179.02 48.1016 179.215 48.1328C179.41 48.1562 179.57 48.1914 179.695 48.2383ZM190.992 43.9375V61H187.477V43.9375H190.992ZM201.211 43.9375L194.449 52.3633L190.547 56.5586L189.914 53.2305L192.551 49.6211L196.898 43.9375H201.211ZM197.215 61L192.188 53.1133L194.789 50.9336L201.375 61H197.215ZM209.367 58.1406V52.4922C209.367 52.0859 209.301 51.7383 209.168 51.4492C209.035 51.1523 208.828 50.9219 208.547 50.7578C208.273 50.5938 207.918 50.5117 207.48 50.5117C207.105 50.5117 206.781 50.5781 206.508 50.7109C206.234 50.8359 206.023 51.0195 205.875 51.2617C205.727 51.4961 205.652 51.7734 205.652 52.0938H202.277C202.277 51.5547 202.402 51.043 202.652 50.5586C202.902 50.0742 203.266 49.6484 203.742 49.2812C204.219 48.9062 204.785 48.6133 205.441 48.4023C206.105 48.1914 206.848 48.0859 207.668 48.0859C208.652 48.0859 209.527 48.25 210.293 48.5781C211.059 48.9062 211.66 49.3984 212.098 50.0547C212.543 50.7109 212.766 51.5312 212.766 52.5156V57.9414C212.766 58.6367 212.809 59.207 212.895 59.6523C212.98 60.0898 213.105 60.4727 213.27 60.8008V61H209.859C209.695 60.6562 209.57 60.2266 209.484 59.7109C209.406 59.1875 209.367 58.6641 209.367 58.1406ZM209.812 53.2773L209.836 55.1875H207.949C207.504 55.1875 207.117 55.2383 206.789 55.3398C206.461 55.4414 206.191 55.5859 205.98 55.7734C205.77 55.9531 205.613 56.1641 205.512 56.4062C205.418 56.6484 205.371 56.9141 205.371 57.2031C205.371 57.4922 205.438 57.7539 205.57 57.9883C205.703 58.2148 205.895 58.3945 206.145 58.5273C206.395 58.6523 206.688 58.7148 207.023 58.7148C207.531 58.7148 207.973 58.6133 208.348 58.4102C208.723 58.207 209.012 57.957 209.215 57.6602C209.426 57.3633 209.535 57.082 209.543 56.8164L210.434 58.2461C210.309 58.5664 210.137 58.8984 209.918 59.2422C209.707 59.5859 209.438 59.9102 209.109 60.2148C208.781 60.5117 208.387 60.7578 207.926 60.9531C207.465 61.1406 206.918 61.2344 206.285 61.2344C205.48 61.2344 204.75 61.0742 204.094 60.7539C203.445 60.4258 202.93 59.9766 202.547 59.4062C202.172 58.8281 201.984 58.1719 201.984 57.4375C201.984 56.7734 202.109 56.1836 202.359 55.668C202.609 55.1523 202.977 54.7188 203.461 54.3672C203.953 54.0078 204.566 53.7383 205.301 53.5586C206.035 53.3711 206.887 53.2773 207.855 53.2773H209.812ZM218.742 51.0859V61H215.367V48.3203H218.543L218.742 51.0859ZM222.562 48.2383L222.504 51.3672C222.34 51.3438 222.141 51.3242 221.906 51.3086C221.68 51.2852 221.473 51.2734 221.285 51.2734C220.809 51.2734 220.395 51.3359 220.043 51.4609C219.699 51.5781 219.41 51.7539 219.176 51.9883C218.949 52.2227 218.777 52.5078 218.66 52.8438C218.551 53.1797 218.488 53.5625 218.473 53.9922L217.793 53.7812C217.793 52.9609 217.875 52.207 218.039 51.5195C218.203 50.8242 218.441 50.2188 218.754 49.7031C219.074 49.1875 219.465 48.7891 219.926 48.5078C220.387 48.2266 220.914 48.0859 221.508 48.0859C221.695 48.0859 221.887 48.1016 222.082 48.1328C222.277 48.1562 222.438 48.1914 222.562 48.2383ZM227.531 50.9453V61H224.145V48.3203H227.32L227.531 50.9453ZM227.062 54.2148H226.125C226.125 53.332 226.23 52.5195 226.441 51.7773C226.66 51.0273 226.977 50.3789 227.391 49.832C227.812 49.2773 228.332 48.8477 228.949 48.543C229.566 48.2383 230.281 48.0859 231.094 48.0859C231.656 48.0859 232.172 48.1719 232.641 48.3438C233.109 48.5078 233.512 48.7695 233.848 49.1289C234.191 49.4805 234.457 49.9414 234.645 50.5117C234.832 51.0742 234.926 51.75 234.926 52.5391V61H231.551V52.9141C231.551 52.3359 231.473 51.8906 231.316 51.5781C231.16 51.2656 230.938 51.0469 230.648 50.9219C230.367 50.7969 230.027 50.7344 229.629 50.7344C229.191 50.7344 228.809 50.8242 228.48 51.0039C228.16 51.1836 227.895 51.4336 227.684 51.7539C227.473 52.0664 227.316 52.4336 227.215 52.8555C227.113 53.2773 227.062 53.7305 227.062 54.2148ZM234.609 53.8281L233.402 53.9805C233.402 53.1523 233.504 52.3828 233.707 51.6719C233.918 50.9609 234.227 50.3359 234.633 49.7969C235.047 49.2578 235.559 48.8398 236.168 48.543C236.777 48.2383 237.48 48.0859 238.277 48.0859C238.887 48.0859 239.441 48.1758 239.941 48.3555C240.441 48.5273 240.867 48.8047 241.219 49.1875C241.578 49.5625 241.852 50.0547 242.039 50.6641C242.234 51.2734 242.332 52.0195 242.332 52.9023V61H238.945V52.9023C238.945 52.3164 238.867 51.8711 238.711 51.5664C238.562 51.2539 238.344 51.0391 238.055 50.9219C237.773 50.7969 237.438 50.7344 237.047 50.7344C236.641 50.7344 236.285 50.8164 235.98 50.9805C235.676 51.1367 235.422 51.3555 235.219 51.6367C235.016 51.918 234.863 52.2461 234.762 52.6211C234.66 52.9883 234.609 53.3906 234.609 53.8281ZM251.789 58.1406V52.4922C251.789 52.0859 251.723 51.7383 251.59 51.4492C251.457 51.1523 251.25 50.9219 250.969 50.7578C250.695 50.5938 250.34 50.5117 249.902 50.5117C249.527 50.5117 249.203 50.5781 248.93 50.7109C248.656 50.8359 248.445 51.0195 248.297 51.2617C248.148 51.4961 248.074 51.7734 248.074 52.0938H244.699C244.699 51.5547 244.824 51.043 245.074 50.5586C245.324 50.0742 245.688 49.6484 246.164 49.2812C246.641 48.9062 247.207 48.6133 247.863 48.4023C248.527 48.1914 249.27 48.0859 250.09 48.0859C251.074 48.0859 251.949 48.25 252.715 48.5781C253.48 48.9062 254.082 49.3984 254.52 50.0547C254.965 50.7109 255.188 51.5312 255.188 52.5156V57.9414C255.188 58.6367 255.23 59.207 255.316 59.6523C255.402 60.0898 255.527 60.4727 255.691 60.8008V61H252.281C252.117 60.6562 251.992 60.2266 251.906 59.7109C251.828 59.1875 251.789 58.6641 251.789 58.1406ZM252.234 53.2773L252.258 55.1875H250.371C249.926 55.1875 249.539 55.2383 249.211 55.3398C248.883 55.4414 248.613 55.5859 248.402 55.7734C248.191 55.9531 248.035 56.1641 247.934 56.4062C247.84 56.6484 247.793 56.9141 247.793 57.2031C247.793 57.4922 247.859 57.7539 247.992 57.9883C248.125 58.2148 248.316 58.3945 248.566 58.5273C248.816 58.6523 249.109 58.7148 249.445 58.7148C249.953 58.7148 250.395 58.6133 250.77 58.4102C251.145 58.207 251.434 57.957 251.637 57.6602C251.848 57.3633 251.957 57.082 251.965 56.8164L252.855 58.2461C252.73 58.5664 252.559 58.8984 252.34 59.2422C252.129 59.5859 251.859 59.9102 251.531 60.2148C251.203 60.5117 250.809 60.7578 250.348 60.9531C249.887 61.1406 249.34 61.2344 248.707 61.2344C247.902 61.2344 247.172 61.0742 246.516 60.7539C245.867 60.4258 245.352 59.9766 244.969 59.4062C244.594 58.8281 244.406 58.1719 244.406 57.4375C244.406 56.7734 244.531 56.1836 244.781 55.668C245.031 55.1523 245.398 54.7188 245.883 54.3672C246.375 54.0078 246.988 53.7383 247.723 53.5586C248.457 53.3711 249.309 53.2773 250.277 53.2773H252.234Z" fill="#888888"/>
<path d="M118.594 98.4219V104.75H101.086V98.4219H118.594ZM103.828 84.875V119H95.6016V84.875H103.828ZM124.125 84.875V119H115.922V84.875H124.125ZM127.992 106.578V106.086C127.992 104.227 128.258 102.516 128.789 100.953C129.32 99.375 130.102 98.0078 131.133 96.8516C132.164 95.6953 133.438 94.7969 134.953 94.1562C136.469 93.5 138.219 93.1719 140.203 93.1719C142.203 93.1719 143.961 93.5 145.477 94.1562C147.008 94.7969 148.289 95.6953 149.32 96.8516C150.352 98.0078 151.133 99.375 151.664 100.953C152.195 102.516 152.461 104.227 152.461 106.086V106.578C152.461 108.422 152.195 110.133 151.664 111.711C151.133 113.273 150.352 114.641 149.32 115.812C148.289 116.969 147.016 117.867 145.5 118.508C143.984 119.148 142.234 119.469 140.25 119.469C138.266 119.469 136.508 119.148 134.977 118.508C133.445 117.867 132.164 116.969 131.133 115.812C130.102 114.641 129.32 113.273 128.789 111.711C128.258 110.133 127.992 108.422 127.992 106.578ZM135.891 106.086V106.578C135.891 107.531 135.961 108.422 136.102 109.25C136.242 110.078 136.477 110.805 136.805 111.43C137.133 112.039 137.578 112.516 138.141 112.859C138.703 113.203 139.406 113.375 140.25 113.375C141.078 113.375 141.766 113.203 142.312 112.859C142.875 112.516 143.32 112.039 143.648 111.43C143.977 110.805 144.211 110.078 144.352 109.25C144.492 108.422 144.562 107.531 144.562 106.578V106.086C144.562 105.164 144.492 104.297 144.352 103.484C144.211 102.656 143.977 101.93 143.648 101.305C143.32 100.664 142.875 100.164 142.312 99.8047C141.75 99.4453 141.047 99.2656 140.203 99.2656C139.375 99.2656 138.68 99.4453 138.117 99.8047C137.57 100.164 137.133 100.664 136.805 101.305C136.477 101.93 136.242 102.656 136.102 103.484C135.961 104.297 135.891 105.164 135.891 106.086ZM163.688 111.453L168.375 93.6406H173.32L171.562 102.57L166.922 119H162.961L163.688 111.453ZM161.836 93.6406L164.742 111.312L165.07 119H160.266L154.266 93.6406H161.836ZM177.492 110.938L180.422 93.6406H187.992L182.039 119H177.234L177.492 110.938ZM173.883 93.6406L178.617 111.406L179.344 119H175.336L170.789 102.617L169.102 93.6406H173.883ZM218.297 84.875V119H210.07V84.875H218.297ZM228.562 84.875V91.2266H200.039V84.875H228.562ZM225.773 106.578V106.086C225.773 104.227 226.039 102.516 226.57 100.953C227.102 99.375 227.883 98.0078 228.914 96.8516C229.945 95.6953 231.219 94.7969 232.734 94.1562C234.25 93.5 236 93.1719 237.984 93.1719C239.984 93.1719 241.742 93.5 243.258 94.1562C244.789 94.7969 246.07 95.6953 247.102 96.8516C248.133 98.0078 248.914 99.375 249.445 100.953C249.977 102.516 250.242 104.227 250.242 106.086V106.578C250.242 108.422 249.977 110.133 249.445 111.711C248.914 113.273 248.133 114.641 247.102 115.812C246.07 116.969 244.797 117.867 243.281 118.508C241.766 119.148 240.016 119.469 238.031 119.469C236.047 119.469 234.289 119.148 232.758 118.508C231.227 117.867 229.945 116.969 228.914 115.812C227.883 114.641 227.102 113.273 226.57 111.711C226.039 110.133 225.773 108.422 225.773 106.578ZM233.672 106.086V106.578C233.672 107.531 233.742 108.422 233.883 109.25C234.023 110.078 234.258 110.805 234.586 111.43C234.914 112.039 235.359 112.516 235.922 112.859C236.484 113.203 237.188 113.375 238.031 113.375C238.859 113.375 239.547 113.203 240.094 112.859C240.656 112.516 241.102 112.039 241.43 111.43C241.758 110.805 241.992 110.078 242.133 109.25C242.273 108.422 242.344 107.531 242.344 106.578V106.086C242.344 105.164 242.273 104.297 242.133 103.484C241.992 102.656 241.758 101.93 241.43 101.305C241.102 100.664 240.656 100.164 240.094 99.8047C239.531 99.4453 238.828 99.2656 237.984 99.2656C237.156 99.2656 236.461 99.4453 235.898 99.8047C235.352 100.164 234.914 100.664 234.586 101.305C234.258 101.93 234.023 102.656 233.883 103.484C233.742 104.297 233.672 105.164 233.672 106.086ZM266.086 84.875H279.516C282.141 84.875 284.422 85.2656 286.359 86.0469C288.297 86.8281 289.789 87.9844 290.836 89.5156C291.898 91.0469 292.43 92.9375 292.43 95.1875C292.43 97.1406 292.125 98.7734 291.516 100.086C290.906 101.398 290.055 102.484 288.961 103.344C287.883 104.188 286.625 104.883 285.188 105.43L282.492 106.953H271.219L271.172 100.602H279.516C280.562 100.602 281.43 100.414 282.117 100.039C282.805 99.6641 283.32 99.1328 283.664 98.4453C284.023 97.7422 284.203 96.9062 284.203 95.9375C284.203 94.9531 284.023 94.1094 283.664 93.4062C283.305 92.7031 282.773 92.1641 282.07 91.7891C281.383 91.4141 280.531 91.2266 279.516 91.2266H274.312V119H266.086V84.875ZM284.766 119L277.219 103.906L285.938 103.859L293.578 118.648V119H284.766ZM311.836 112.836V93.6406H319.758V119H312.352L311.836 112.836ZM312.586 107.68L314.648 107.633C314.648 109.336 314.445 110.914 314.039 112.367C313.633 113.805 313.031 115.055 312.234 116.117C311.453 117.18 310.484 118.008 309.328 118.602C308.188 119.18 306.867 119.469 305.367 119.469C304.117 119.469 302.969 119.297 301.922 118.953C300.891 118.594 300 118.039 299.25 117.289C298.5 116.523 297.914 115.547 297.492 114.359C297.086 113.156 296.883 111.719 296.883 110.047V93.6406H304.781V110.094C304.781 110.656 304.852 111.141 304.992 111.547C305.133 111.953 305.336 112.297 305.602 112.578C305.867 112.844 306.195 113.047 306.586 113.188C306.992 113.312 307.453 113.375 307.969 113.375C309.156 113.375 310.086 113.125 310.758 112.625C311.43 112.125 311.898 111.445 312.164 110.586C312.445 109.727 312.586 108.758 312.586 107.68ZM331.875 99.0547V119H323.977V93.6406H331.383L331.875 99.0547ZM330.938 105.453L329.086 105.5C329.086 103.562 329.32 101.836 329.789 100.32C330.258 98.7891 330.922 97.4922 331.781 96.4297C332.641 95.3672 333.664 94.5625 334.852 94.0156C336.055 93.4531 337.391 93.1719 338.859 93.1719C340.031 93.1719 341.102 93.3438 342.07 93.6875C343.055 94.0312 343.898 94.5859 344.602 95.3516C345.32 96.1172 345.867 97.1328 346.242 98.3984C346.633 99.6484 346.828 101.195 346.828 103.039V119H338.883V103.016C338.883 102 338.742 101.227 338.461 100.695C338.18 100.148 337.773 99.7734 337.242 99.5703C336.711 99.3672 336.062 99.2656 335.297 99.2656C334.484 99.2656 333.797 99.4219 333.234 99.7344C332.672 100.047 332.219 100.484 331.875 101.047C331.547 101.594 331.305 102.242 331.148 102.992C331.008 103.742 330.938 104.562 330.938 105.453ZM363.773 108.195H357.047C357.047 106.82 357.141 105.609 357.328 104.562C357.531 103.5 357.875 102.547 358.359 101.703C358.844 100.859 359.5 100.078 360.328 99.3594C361.062 98.75 361.695 98.1641 362.227 97.6016C362.758 97.0391 363.164 96.4688 363.445 95.8906C363.727 95.3125 363.867 94.6953 363.867 94.0391C363.867 93.2266 363.75 92.5625 363.516 92.0469C363.297 91.5312 362.961 91.1484 362.508 90.8984C362.07 90.6328 361.516 90.5 360.844 90.5C360.297 90.5 359.781 90.6328 359.297 90.8984C358.828 91.1641 358.445 91.5781 358.148 92.1406C357.852 92.6875 357.688 93.4141 357.656 94.3203H349.711C349.758 91.9922 350.273 90.1016 351.258 88.6484C352.258 87.1797 353.586 86.1094 355.242 85.4375C356.914 84.75 358.781 84.4062 360.844 84.4062C363.125 84.4062 365.086 84.7578 366.727 85.4609C368.367 86.1641 369.625 87.2109 370.5 88.6016C371.375 89.9766 371.812 91.6719 371.812 93.6875C371.812 95.0312 371.555 96.2031 371.039 97.2031C370.539 98.1875 369.859 99.1094 369 99.9688C368.156 100.812 367.211 101.719 366.164 102.688C365.258 103.484 364.641 104.297 364.312 105.125C363.984 105.938 363.805 106.961 363.773 108.195ZM356.086 115.32C356.086 114.195 356.492 113.258 357.305 112.508C358.117 111.742 359.172 111.359 360.469 111.359C361.766 111.359 362.82 111.742 363.633 112.508C364.445 113.258 364.852 114.195 364.852 115.32C364.852 116.445 364.445 117.391 363.633 118.156C362.82 118.906 361.766 119.281 360.469 119.281C359.172 119.281 358.117 118.906 357.305 118.156C356.492 117.391 356.086 116.445 356.086 115.32Z" fill="black"/>
<path d="M1134 0H1348C1356.28 0 1363 6.71573 1363 15V148C1363 156.284 1356.28 163 1348 163H1134V0Z" fill="#058789"/>
<path d="M1260.62 78.8847C1263.81 78.8847 1266.93 79.805 1269.59 81.5293C1272.25 83.2536 1274.32 85.7044 1275.54 88.5718C1276.76 91.4391 1277.08 94.5943 1276.46 97.6383C1275.84 100.682 1274.3 103.478 1272.04 105.673C1269.78 107.868 1266.9 109.362 1263.77 109.968C1260.63 110.573 1257.39 110.262 1254.43 109.075C1251.48 107.887 1248.96 105.876 1247.18 103.295C1245.41 100.714 1244.46 97.6806 1244.46 94.5769C1244.46 90.4151 1246.16 86.4237 1249.19 83.4808C1252.22 80.538 1256.33 78.8847 1260.62 78.8847ZM1260.62 73.6539C1256.36 73.6539 1252.19 74.881 1248.65 77.1801C1245.11 79.4791 1242.35 82.7469 1240.72 86.57C1239.09 90.3932 1238.66 94.6001 1239.49 98.6588C1240.32 102.717 1242.37 106.446 1245.39 109.372C1248.4 112.298 1252.24 114.291 1256.41 115.098C1260.59 115.905 1264.92 115.491 1268.86 113.907C1272.79 112.324 1276.16 109.642 1278.52 106.201C1280.89 102.76 1282.15 98.7151 1282.15 94.5769C1282.15 89.0278 1279.88 83.706 1275.85 79.7821C1271.81 75.8583 1266.33 73.6539 1260.62 73.6539Z" fill="white"/>
<path d="M1274.08 47.5H1220.23C1218.8 47.5 1217.43 48.0511 1216.42 49.0321C1215.41 50.013 1214.85 51.3435 1214.85 52.7307V105.038C1214.85 106.426 1215.41 107.756 1216.42 108.737C1217.43 109.718 1218.8 110.269 1220.23 110.269H1231V105.038H1220.23V68.423H1279.46V52.7307C1279.46 51.3435 1278.89 50.013 1277.88 49.0321C1276.87 48.0511 1275.5 47.5 1274.08 47.5ZM1220.23 63.1922V52.7307H1274.08V63.1922H1220.23Z" fill="white"/>
<path d="M1255.23 86.731V102.423L1268.69 94.5771L1255.23 86.731Z" fill="white"/>
</svg>
