<svg width="1363" height="163" viewBox="0 0 1363 163" fill="none" xmlns="http://www.w3.org/2000/svg">
<path d="M0 15C0 6.71573 6.71573 0 15 0H37V163H15C6.71573 163 0 156.284 0 148V15Z" fill="#424242"/>
<rect width="1097" height="163" transform="translate(37)" fill="#F0F0F0"/>
<path d="M101.906 53.9219L94.3945 51.2383V48.0859L104.602 52.375V54.6367L101.906 53.9219ZM94.3945 56.1719L101.918 53.4297L104.602 52.7852V55.0352L94.3945 59.3242V56.1719ZM122.789 55.3398H126.293C126.223 56.4883 125.906 57.5078 125.344 58.3984C124.789 59.2891 124.012 59.9844 123.012 60.4844C122.02 60.9844 120.824 61.2344 119.426 61.2344C118.332 61.2344 117.352 61.0469 116.484 60.6719C115.617 60.2891 114.875 59.7422 114.258 59.0312C113.648 58.3203 113.184 57.4609 112.863 56.4531C112.543 55.4453 112.383 54.3164 112.383 53.0664V51.8828C112.383 50.6328 112.547 49.5039 112.875 48.4961C113.211 47.4805 113.688 46.6172 114.305 45.9062C114.93 45.1953 115.676 44.6484 116.543 44.2656C117.41 43.8828 118.379 43.6914 119.449 43.6914C120.871 43.6914 122.07 43.9492 123.047 44.4648C124.031 44.9805 124.793 45.6914 125.332 46.5977C125.879 47.5039 126.207 48.5352 126.316 49.6914H122.801C122.762 49.0039 122.625 48.4219 122.391 47.9453C122.156 47.4609 121.801 47.0977 121.324 46.8555C120.855 46.6055 120.23 46.4805 119.449 46.4805C118.863 46.4805 118.352 46.5898 117.914 46.8086C117.477 47.0273 117.109 47.3594 116.812 47.8047C116.516 48.25 116.293 48.8125 116.145 49.4922C116.004 50.1641 115.934 50.9531 115.934 51.8594V53.0664C115.934 53.9492 116 54.7266 116.133 55.3984C116.266 56.0625 116.469 56.625 116.742 57.0859C117.023 57.5391 117.383 57.8828 117.82 58.1172C118.266 58.3438 118.801 58.457 119.426 58.457C120.16 58.457 120.766 58.3398 121.242 58.1055C121.719 57.8711 122.082 57.5234 122.332 57.0625C122.59 56.6016 122.742 56.0273 122.789 55.3398ZM131.953 43V61H128.566V43H131.953ZM140.578 61.2344C139.594 61.2344 138.711 61.0781 137.93 60.7656C137.148 60.4453 136.484 60.0039 135.938 59.4414C135.398 58.8789 134.984 58.2266 134.695 57.4844C134.406 56.7344 134.262 55.9375 134.262 55.0938V54.625C134.262 53.6641 134.398 52.7852 134.672 51.9883C134.945 51.1914 135.336 50.5 135.844 49.9141C136.359 49.3281 136.984 48.8789 137.719 48.5664C138.453 48.2461 139.281 48.0859 140.203 48.0859C141.102 48.0859 141.898 48.2344 142.594 48.5312C143.289 48.8281 143.871 49.25 144.34 49.7969C144.816 50.3438 145.176 51 145.418 51.7656C145.66 52.5234 145.781 53.3672 145.781 54.2969V55.7031H135.703V53.4531H142.465V53.1953C142.465 52.7266 142.379 52.3086 142.207 51.9414C142.043 51.5664 141.793 51.2695 141.457 51.0508C141.121 50.832 140.691 50.7227 140.168 50.7227C139.723 50.7227 139.34 50.8203 139.02 51.0156C138.699 51.2109 138.438 51.4844 138.234 51.8359C138.039 52.1875 137.891 52.6016 137.789 53.0781C137.695 53.5469 137.648 54.0625 137.648 54.625V55.0938C137.648 55.6016 137.719 56.0703 137.859 56.5C138.008 56.9297 138.215 57.3008 138.48 57.6133C138.754 57.9258 139.082 58.168 139.465 58.3398C139.855 58.5117 140.297 58.5977 140.789 58.5977C141.398 58.5977 141.965 58.4805 142.488 58.2461C143.02 58.0039 143.477 57.6406 143.859 57.1562L145.5 58.9375C145.234 59.3203 144.871 59.6875 144.41 60.0391C143.957 60.3906 143.41 60.6797 142.77 60.9062C142.129 61.125 141.398 61.2344 140.578 61.2344ZM151.852 58.5391L154.664 48.3203H158.191L153.914 61H151.781L151.852 58.5391ZM149.918 48.3203L152.742 58.5508L152.801 61H150.656L146.379 48.3203H149.918ZM165.375 61.2344C164.391 61.2344 163.508 61.0781 162.727 60.7656C161.945 60.4453 161.281 60.0039 160.734 59.4414C160.195 58.8789 159.781 58.2266 159.492 57.4844C159.203 56.7344 159.059 55.9375 159.059 55.0938V54.625C159.059 53.6641 159.195 52.7852 159.469 51.9883C159.742 51.1914 160.133 50.5 160.641 49.9141C161.156 49.3281 161.781 48.8789 162.516 48.5664C163.25 48.2461 164.078 48.0859 165 48.0859C165.898 48.0859 166.695 48.2344 167.391 48.5312C168.086 48.8281 168.668 49.25 169.137 49.7969C169.613 50.3438 169.973 51 170.215 51.7656C170.457 52.5234 170.578 53.3672 170.578 54.2969V55.7031H160.5V53.4531H167.262V53.1953C167.262 52.7266 167.176 52.3086 167.004 51.9414C166.84 51.5664 166.59 51.2695 166.254 51.0508C165.918 50.832 165.488 50.7227 164.965 50.7227C164.52 50.7227 164.137 50.8203 163.816 51.0156C163.496 51.2109 163.234 51.4844 163.031 51.8359C162.836 52.1875 162.688 52.6016 162.586 53.0781C162.492 53.5469 162.445 54.0625 162.445 54.625V55.0938C162.445 55.6016 162.516 56.0703 162.656 56.5C162.805 56.9297 163.012 57.3008 163.277 57.6133C163.551 57.9258 163.879 58.168 164.262 58.3398C164.652 58.5117 165.094 58.5977 165.586 58.5977C166.195 58.5977 166.762 58.4805 167.285 58.2461C167.816 58.0039 168.273 57.6406 168.656 57.1562L170.297 58.9375C170.031 59.3203 169.668 59.6875 169.207 60.0391C168.754 60.3906 168.207 60.6797 167.566 60.9062C166.926 61.125 166.195 61.2344 165.375 61.2344ZM175.875 51.0859V61H172.5V48.3203H175.676L175.875 51.0859ZM179.695 48.2383L179.637 51.3672C179.473 51.3438 179.273 51.3242 179.039 51.3086C178.812 51.2852 178.605 51.2734 178.418 51.2734C177.941 51.2734 177.527 51.3359 177.176 51.4609C176.832 51.5781 176.543 51.7539 176.309 51.9883C176.082 52.2227 175.91 52.5078 175.793 52.8438C175.684 53.1797 175.621 53.5625 175.605 53.9922L174.926 53.7812C174.926 52.9609 175.008 52.207 175.172 51.5195C175.336 50.8242 175.574 50.2188 175.887 49.7031C176.207 49.1875 176.598 48.7891 177.059 48.5078C177.52 48.2266 178.047 48.0859 178.641 48.0859C178.828 48.0859 179.02 48.1016 179.215 48.1328C179.41 48.1562 179.57 48.1914 179.695 48.2383ZM190.992 43.9375V61H187.477V43.9375H190.992ZM201.211 43.9375L194.449 52.3633L190.547 56.5586L189.914 53.2305L192.551 49.6211L196.898 43.9375H201.211ZM197.215 61L192.188 53.1133L194.789 50.9336L201.375 61H197.215ZM209.367 58.1406V52.4922C209.367 52.0859 209.301 51.7383 209.168 51.4492C209.035 51.1523 208.828 50.9219 208.547 50.7578C208.273 50.5938 207.918 50.5117 207.48 50.5117C207.105 50.5117 206.781 50.5781 206.508 50.7109C206.234 50.8359 206.023 51.0195 205.875 51.2617C205.727 51.4961 205.652 51.7734 205.652 52.0938H202.277C202.277 51.5547 202.402 51.043 202.652 50.5586C202.902 50.0742 203.266 49.6484 203.742 49.2812C204.219 48.9062 204.785 48.6133 205.441 48.4023C206.105 48.1914 206.848 48.0859 207.668 48.0859C208.652 48.0859 209.527 48.25 210.293 48.5781C211.059 48.9062 211.66 49.3984 212.098 50.0547C212.543 50.7109 212.766 51.5312 212.766 52.5156V57.9414C212.766 58.6367 212.809 59.207 212.895 59.6523C212.98 60.0898 213.105 60.4727 213.27 60.8008V61H209.859C209.695 60.6562 209.57 60.2266 209.484 59.7109C209.406 59.1875 209.367 58.6641 209.367 58.1406ZM209.812 53.2773L209.836 55.1875H207.949C207.504 55.1875 207.117 55.2383 206.789 55.3398C206.461 55.4414 206.191 55.5859 205.98 55.7734C205.77 55.9531 205.613 56.1641 205.512 56.4062C205.418 56.6484 205.371 56.9141 205.371 57.2031C205.371 57.4922 205.438 57.7539 205.57 57.9883C205.703 58.2148 205.895 58.3945 206.145 58.5273C206.395 58.6523 206.688 58.7148 207.023 58.7148C207.531 58.7148 207.973 58.6133 208.348 58.4102C208.723 58.207 209.012 57.957 209.215 57.6602C209.426 57.3633 209.535 57.082 209.543 56.8164L210.434 58.2461C210.309 58.5664 210.137 58.8984 209.918 59.2422C209.707 59.5859 209.438 59.9102 209.109 60.2148C208.781 60.5117 208.387 60.7578 207.926 60.9531C207.465 61.1406 206.918 61.2344 206.285 61.2344C205.48 61.2344 204.75 61.0742 204.094 60.7539C203.445 60.4258 202.93 59.9766 202.547 59.4062C202.172 58.8281 201.984 58.1719 201.984 57.4375C201.984 56.7734 202.109 56.1836 202.359 55.668C202.609 55.1523 202.977 54.7188 203.461 54.3672C203.953 54.0078 204.566 53.7383 205.301 53.5586C206.035 53.3711 206.887 53.2773 207.855 53.2773H209.812ZM218.742 51.0859V61H215.367V48.3203H218.543L218.742 51.0859ZM222.562 48.2383L222.504 51.3672C222.34 51.3438 222.141 51.3242 221.906 51.3086C221.68 51.2852 221.473 51.2734 221.285 51.2734C220.809 51.2734 220.395 51.3359 220.043 51.4609C219.699 51.5781 219.41 51.7539 219.176 51.9883C218.949 52.2227 218.777 52.5078 218.66 52.8438C218.551 53.1797 218.488 53.5625 218.473 53.9922L217.793 53.7812C217.793 52.9609 217.875 52.207 218.039 51.5195C218.203 50.8242 218.441 50.2188 218.754 49.7031C219.074 49.1875 219.465 48.7891 219.926 48.5078C220.387 48.2266 220.914 48.0859 221.508 48.0859C221.695 48.0859 221.887 48.1016 222.082 48.1328C222.277 48.1562 222.438 48.1914 222.562 48.2383ZM227.531 50.9453V61H224.145V48.3203H227.32L227.531 50.9453ZM227.062 54.2148H226.125C226.125 53.332 226.23 52.5195 226.441 51.7773C226.66 51.0273 226.977 50.3789 227.391 49.832C227.812 49.2773 228.332 48.8477 228.949 48.543C229.566 48.2383 230.281 48.0859 231.094 48.0859C231.656 48.0859 232.172 48.1719 232.641 48.3438C233.109 48.5078 233.512 48.7695 233.848 49.1289C234.191 49.4805 234.457 49.9414 234.645 50.5117C234.832 51.0742 234.926 51.75 234.926 52.5391V61H231.551V52.9141C231.551 52.3359 231.473 51.8906 231.316 51.5781C231.16 51.2656 230.938 51.0469 230.648 50.9219C230.367 50.7969 230.027 50.7344 229.629 50.7344C229.191 50.7344 228.809 50.8242 228.48 51.0039C228.16 51.1836 227.895 51.4336 227.684 51.7539C227.473 52.0664 227.316 52.4336 227.215 52.8555C227.113 53.2773 227.062 53.7305 227.062 54.2148ZM234.609 53.8281L233.402 53.9805C233.402 53.1523 233.504 52.3828 233.707 51.6719C233.918 50.9609 234.227 50.3359 234.633 49.7969C235.047 49.2578 235.559 48.8398 236.168 48.543C236.777 48.2383 237.48 48.0859 238.277 48.0859C238.887 48.0859 239.441 48.1758 239.941 48.3555C240.441 48.5273 240.867 48.8047 241.219 49.1875C241.578 49.5625 241.852 50.0547 242.039 50.6641C242.234 51.2734 242.332 52.0195 242.332 52.9023V61H238.945V52.9023C238.945 52.3164 238.867 51.8711 238.711 51.5664C238.562 51.2539 238.344 51.0391 238.055 50.9219C237.773 50.7969 237.438 50.7344 237.047 50.7344C236.641 50.7344 236.285 50.8164 235.98 50.9805C235.676 51.1367 235.422 51.3555 235.219 51.6367C235.016 51.918 234.863 52.2461 234.762 52.6211C234.66 52.9883 234.609 53.3906 234.609 53.8281ZM251.789 58.1406V52.4922C251.789 52.0859 251.723 51.7383 251.59 51.4492C251.457 51.1523 251.25 50.9219 250.969 50.7578C250.695 50.5938 250.34 50.5117 249.902 50.5117C249.527 50.5117 249.203 50.5781 248.93 50.7109C248.656 50.8359 248.445 51.0195 248.297 51.2617C248.148 51.4961 248.074 51.7734 248.074 52.0938H244.699C244.699 51.5547 244.824 51.043 245.074 50.5586C245.324 50.0742 245.688 49.6484 246.164 49.2812C246.641 48.9062 247.207 48.6133 247.863 48.4023C248.527 48.1914 249.27 48.0859 250.09 48.0859C251.074 48.0859 251.949 48.25 252.715 48.5781C253.48 48.9062 254.082 49.3984 254.52 50.0547C254.965 50.7109 255.188 51.5312 255.188 52.5156V57.9414C255.188 58.6367 255.23 59.207 255.316 59.6523C255.402 60.0898 255.527 60.4727 255.691 60.8008V61H252.281C252.117 60.6562 251.992 60.2266 251.906 59.7109C251.828 59.1875 251.789 58.6641 251.789 58.1406ZM252.234 53.2773L252.258 55.1875H250.371C249.926 55.1875 249.539 55.2383 249.211 55.3398C248.883 55.4414 248.613 55.5859 248.402 55.7734C248.191 55.9531 248.035 56.1641 247.934 56.4062C247.84 56.6484 247.793 56.9141 247.793 57.2031C247.793 57.4922 247.859 57.7539 247.992 57.9883C248.125 58.2148 248.316 58.3945 248.566 58.5273C248.816 58.6523 249.109 58.7148 249.445 58.7148C249.953 58.7148 250.395 58.6133 250.77 58.4102C251.145 58.207 251.434 57.957 251.637 57.6602C251.848 57.3633 251.957 57.082 251.965 56.8164L252.855 58.2461C252.73 58.5664 252.559 58.8984 252.34 59.2422C252.129 59.5859 251.859 59.9102 251.531 60.2148C251.203 60.5117 250.809 60.7578 250.348 60.9531C249.887 61.1406 249.34 61.2344 248.707 61.2344C247.902 61.2344 247.172 61.0742 246.516 60.7539C245.867 60.4258 245.352 59.9766 244.969 59.4062C244.594 58.8281 244.406 58.1719 244.406 57.4375C244.406 56.7734 244.531 56.1836 244.781 55.668C245.031 55.1523 245.398 54.7188 245.883 54.3672C246.375 54.0078 246.988 53.7383 247.723 53.5586C248.457 53.3711 249.309 53.2773 250.277 53.2773H252.234Z" fill="#888888"/>
<path d="M110.062 92.0469L101.742 119H92.9062L105.445 84.875H111.047L110.062 92.0469ZM116.953 119L108.609 92.0469L107.531 84.875H113.203L125.812 119H116.953ZM116.625 106.273V112.625H99.1172V106.273H116.625ZM135.258 115.906L142.055 84.875H146.109L148.312 87.5234L141.07 119H136.594L135.258 115.906ZM133.453 84.875L139.195 116.141L137.719 119H132.539L125.297 84.875H133.453ZM152.039 115.977L157.734 84.875H165.867L158.625 119H153.469L152.039 115.977ZM149.039 84.875L156 116.094L154.594 119H150.117L142.711 87.4766L145.008 84.875H149.039ZM186.68 109.93C186.68 109.398 186.602 108.922 186.445 108.5C186.289 108.062 186 107.656 185.578 107.281C185.156 106.906 184.547 106.531 183.75 106.156C182.969 105.766 181.938 105.359 180.656 104.938C179.156 104.438 177.711 103.875 176.32 103.25C174.93 102.609 173.688 101.867 172.594 101.023C171.5 100.164 170.633 99.1641 169.992 98.0234C169.352 96.8672 169.031 95.5234 169.031 93.9922C169.031 92.5234 169.359 91.2031 170.016 90.0312C170.672 88.8438 171.586 87.8359 172.758 87.0078C173.945 86.1641 175.336 85.5234 176.93 85.0859C178.523 84.6328 180.266 84.4062 182.156 84.4062C184.656 84.4062 186.859 84.8438 188.766 85.7188C190.688 86.5781 192.188 87.8047 193.266 89.3984C194.359 90.9766 194.906 92.8438 194.906 95H186.727C186.727 94.1406 186.547 93.3828 186.188 92.7266C185.844 92.0703 185.32 91.5547 184.617 91.1797C183.914 90.8047 183.031 90.6172 181.969 90.6172C180.938 90.6172 180.07 90.7734 179.367 91.0859C178.664 91.3984 178.133 91.8203 177.773 92.3516C177.414 92.8672 177.234 93.4375 177.234 94.0625C177.234 94.5781 177.375 95.0469 177.656 95.4688C177.953 95.875 178.367 96.2578 178.898 96.6172C179.445 96.9766 180.102 97.3203 180.867 97.6484C181.648 97.9766 182.523 98.2969 183.492 98.6094C185.305 99.1875 186.914 99.8359 188.32 100.555C189.742 101.258 190.938 102.062 191.906 102.969C192.891 103.859 193.633 104.875 194.133 106.016C194.648 107.156 194.906 108.445 194.906 109.883C194.906 111.414 194.609 112.773 194.016 113.961C193.422 115.148 192.57 116.156 191.461 116.984C190.352 117.797 189.023 118.414 187.477 118.836C185.93 119.258 184.203 119.469 182.297 119.469C180.547 119.469 178.82 119.25 177.117 118.812C175.43 118.359 173.898 117.672 172.523 116.75C171.148 115.812 170.047 114.617 169.219 113.164C168.406 111.695 168 109.953 168 107.938H176.25C176.25 108.938 176.383 109.781 176.648 110.469C176.914 111.156 177.305 111.711 177.82 112.133C178.336 112.539 178.969 112.836 179.719 113.023C180.469 113.195 181.328 113.281 182.297 113.281C183.344 113.281 184.188 113.133 184.828 112.836C185.469 112.523 185.938 112.117 186.234 111.617C186.531 111.102 186.68 110.539 186.68 109.93ZM222.188 119H214.617L214.664 112.672H222.188C223.75 112.672 225.07 112.297 226.148 111.547C227.242 110.797 228.07 109.68 228.633 108.195C229.211 106.695 229.5 104.852 229.5 102.664V101.188C229.5 99.5469 229.336 98.1094 229.008 96.875C228.695 95.625 228.227 94.5859 227.602 93.7578C226.977 92.9141 226.195 92.2812 225.258 91.8594C224.336 91.4375 223.273 91.2266 222.07 91.2266H214.477V84.875H222.07C224.383 84.875 226.5 85.2734 228.422 86.0703C230.359 86.8516 232.031 87.9766 233.438 89.4453C234.859 90.8984 235.953 92.625 236.719 94.625C237.5 96.6094 237.891 98.8125 237.891 101.234V102.664C237.891 105.07 237.5 107.273 236.719 109.273C235.953 111.273 234.867 113 233.461 114.453C232.055 115.906 230.391 117.031 228.469 117.828C226.562 118.609 224.469 119 222.188 119ZM219.328 84.875V119H211.102V84.875H219.328ZM254.086 119.469C252.023 119.469 250.18 119.148 248.555 118.508C246.93 117.852 245.555 116.953 244.43 115.812C243.32 114.672 242.469 113.359 241.875 111.875C241.297 110.391 241.008 108.82 241.008 107.164V106.273C241.008 104.414 241.266 102.695 241.781 101.117C242.297 99.5234 243.062 98.1328 244.078 96.9453C245.094 95.7578 246.367 94.8359 247.898 94.1797C249.43 93.5078 251.211 93.1719 253.242 93.1719C255.039 93.1719 256.648 93.4609 258.07 94.0391C259.492 94.6172 260.695 95.4453 261.68 96.5234C262.68 97.6016 263.438 98.9062 263.953 100.438C264.484 101.969 264.75 103.688 264.75 105.594V108.805H244.031V103.859H257.039V103.25C257.055 102.406 256.906 101.688 256.594 101.094C256.297 100.5 255.859 100.047 255.281 99.7344C254.703 99.4219 254 99.2656 253.172 99.2656C252.312 99.2656 251.602 99.4531 251.039 99.8281C250.492 100.203 250.062 100.719 249.75 101.375C249.453 102.016 249.242 102.758 249.117 103.602C248.992 104.445 248.93 105.336 248.93 106.273V107.164C248.93 108.102 249.055 108.953 249.305 109.719C249.57 110.484 249.945 111.141 250.43 111.688C250.93 112.219 251.523 112.633 252.211 112.93C252.914 113.227 253.711 113.375 254.602 113.375C255.68 113.375 256.742 113.172 257.789 112.766C258.836 112.359 259.734 111.688 260.484 110.75L264.07 115.016C263.555 115.75 262.82 116.461 261.867 117.148C260.93 117.836 259.805 118.398 258.492 118.836C257.18 119.258 255.711 119.469 254.086 119.469ZM275.93 98.5156V128.75H268.031V93.6406H275.391L275.93 98.5156ZM291.492 106.016V106.508C291.492 108.352 291.281 110.062 290.859 111.641C290.438 113.219 289.812 114.594 288.984 115.766C288.156 116.938 287.125 117.852 285.891 118.508C284.672 119.148 283.258 119.469 281.648 119.469C280.133 119.469 278.828 119.133 277.734 118.461C276.641 117.789 275.727 116.859 274.992 115.672C274.258 114.484 273.664 113.125 273.211 111.594C272.758 110.062 272.398 108.445 272.133 106.742V106.109C272.398 104.281 272.758 102.586 273.211 101.023C273.664 99.4453 274.258 98.0703 274.992 96.8984C275.727 95.7266 276.633 94.8125 277.711 94.1562C278.805 93.5 280.109 93.1719 281.625 93.1719C283.234 93.1719 284.648 93.4766 285.867 94.0859C287.102 94.6953 288.133 95.5703 288.961 96.7109C289.805 97.8359 290.438 99.1875 290.859 100.766C291.281 102.344 291.492 104.094 291.492 106.016ZM283.594 106.508V106.016C283.594 105.031 283.523 104.133 283.383 103.32C283.242 102.492 283.016 101.773 282.703 101.164C282.406 100.555 282.008 100.086 281.508 99.7578C281.008 99.4297 280.391 99.2656 279.656 99.2656C278.812 99.2656 278.102 99.3984 277.523 99.6641C276.961 99.9141 276.508 100.305 276.164 100.836C275.836 101.352 275.602 102 275.461 102.781C275.336 103.547 275.281 104.445 275.297 105.477V107.398C275.266 108.586 275.383 109.633 275.648 110.539C275.914 111.43 276.375 112.125 277.031 112.625C277.688 113.125 278.578 113.375 279.703 113.375C280.453 113.375 281.078 113.203 281.578 112.859C282.078 112.5 282.477 112.008 282.773 111.383C283.07 110.742 283.281 110.008 283.406 109.18C283.531 108.352 283.594 107.461 283.594 106.508ZM303.352 83V119H295.43V83H303.352ZM307.242 106.578V106.086C307.242 104.227 307.508 102.516 308.039 100.953C308.57 99.375 309.352 98.0078 310.383 96.8516C311.414 95.6953 312.688 94.7969 314.203 94.1562C315.719 93.5 317.469 93.1719 319.453 93.1719C321.453 93.1719 323.211 93.5 324.727 94.1562C326.258 94.7969 327.539 95.6953 328.57 96.8516C329.602 98.0078 330.383 99.375 330.914 100.953C331.445 102.516 331.711 104.227 331.711 106.086V106.578C331.711 108.422 331.445 110.133 330.914 111.711C330.383 113.273 329.602 114.641 328.57 115.812C327.539 116.969 326.266 117.867 324.75 118.508C323.234 119.148 321.484 119.469 319.5 119.469C317.516 119.469 315.758 119.148 314.227 118.508C312.695 117.867 311.414 116.969 310.383 115.812C309.352 114.641 308.57 113.273 308.039 111.711C307.508 110.133 307.242 108.422 307.242 106.578ZM315.141 106.086V106.578C315.141 107.531 315.211 108.422 315.352 109.25C315.492 110.078 315.727 110.805 316.055 111.43C316.383 112.039 316.828 112.516 317.391 112.859C317.953 113.203 318.656 113.375 319.5 113.375C320.328 113.375 321.016 113.203 321.562 112.859C322.125 112.516 322.57 112.039 322.898 111.43C323.227 110.805 323.461 110.078 323.602 109.25C323.742 108.422 323.812 107.531 323.812 106.578V106.086C323.812 105.164 323.742 104.297 323.602 103.484C323.461 102.656 323.227 101.93 322.898 101.305C322.57 100.664 322.125 100.164 321.562 99.8047C321 99.4453 320.297 99.2656 319.453 99.2656C318.625 99.2656 317.93 99.4453 317.367 99.8047C316.82 100.164 316.383 100.664 316.055 101.305C315.727 101.93 315.492 102.656 315.352 103.484C315.211 104.297 315.141 105.164 315.141 106.086ZM342.633 116.023L349.195 93.6406H357.68L347.484 122.773C347.266 123.414 346.977 124.102 346.617 124.836C346.258 125.586 345.766 126.297 345.141 126.969C344.516 127.641 343.711 128.188 342.727 128.609C341.758 129.031 340.555 129.242 339.117 129.242C338.352 129.242 337.789 129.203 337.43 129.125C337.086 129.062 336.555 128.945 335.836 128.773V123.125C336.039 123.125 336.211 123.125 336.352 123.125C336.508 123.125 336.68 123.125 336.867 123.125C337.711 123.125 338.383 123.039 338.883 122.867C339.398 122.695 339.789 122.445 340.055 122.117C340.336 121.789 340.555 121.391 340.711 120.922L342.633 116.023ZM340.969 93.6406L345.961 111.383L346.828 119.75H341.531L332.508 93.6406H340.969ZM367.711 99.0078V119H359.812V93.6406H367.219L367.711 99.0078ZM366.75 105.453L364.945 105.5C364.945 103.719 365.156 102.078 365.578 100.578C366 99.0781 366.625 97.7734 367.453 96.6641C368.281 95.5547 369.297 94.6953 370.5 94.0859C371.719 93.4766 373.125 93.1719 374.719 93.1719C375.828 93.1719 376.836 93.3438 377.742 93.6875C378.648 94.0156 379.43 94.5391 380.086 95.2578C380.742 95.9609 381.242 96.8828 381.586 98.0234C381.945 99.1484 382.125 100.5 382.125 102.078V119H374.227V103.086C374.227 102.008 374.102 101.195 373.852 100.648C373.617 100.102 373.273 99.7344 372.82 99.5469C372.367 99.3594 371.812 99.2656 371.156 99.2656C370.469 99.2656 369.852 99.4219 369.305 99.7344C368.758 100.047 368.289 100.484 367.898 101.047C367.523 101.594 367.234 102.242 367.031 102.992C366.844 103.742 366.75 104.562 366.75 105.453ZM381.234 105.453L379.031 105.5C379.031 103.719 379.227 102.078 379.617 100.578C380.023 99.0781 380.625 97.7734 381.422 96.6641C382.234 95.5547 383.242 94.6953 384.445 94.0859C385.648 93.4766 387.047 93.1719 388.641 93.1719C389.797 93.1719 390.859 93.3438 391.828 93.6875C392.797 94.0312 393.633 94.5859 394.336 95.3516C395.039 96.1172 395.586 97.1328 395.977 98.3984C396.367 99.6484 396.562 101.195 396.562 103.039V119H388.641V103.039C388.641 101.992 388.516 101.203 388.266 100.672C388.031 100.125 387.688 99.7578 387.234 99.5703C386.781 99.3672 386.242 99.2656 385.617 99.2656C384.867 99.2656 384.219 99.4219 383.672 99.7344C383.125 100.047 382.664 100.484 382.289 101.047C381.93 101.594 381.664 102.242 381.492 102.992C381.32 103.742 381.234 104.562 381.234 105.453ZM413.367 119.469C411.305 119.469 409.461 119.148 407.836 118.508C406.211 117.852 404.836 116.953 403.711 115.812C402.602 114.672 401.75 113.359 401.156 111.875C400.578 110.391 400.289 108.82 400.289 107.164V106.273C400.289 104.414 400.547 102.695 401.062 101.117C401.578 99.5234 402.344 98.1328 403.359 96.9453C404.375 95.7578 405.648 94.8359 407.18 94.1797C408.711 93.5078 410.492 93.1719 412.523 93.1719C414.32 93.1719 415.93 93.4609 417.352 94.0391C418.773 94.6172 419.977 95.4453 420.961 96.5234C421.961 97.6016 422.719 98.9062 423.234 100.438C423.766 101.969 424.031 103.688 424.031 105.594V108.805H403.312V103.859H416.32V103.25C416.336 102.406 416.188 101.688 415.875 101.094C415.578 100.5 415.141 100.047 414.562 99.7344C413.984 99.4219 413.281 99.2656 412.453 99.2656C411.594 99.2656 410.883 99.4531 410.32 99.8281C409.773 100.203 409.344 100.719 409.031 101.375C408.734 102.016 408.523 102.758 408.398 103.602C408.273 104.445 408.211 105.336 408.211 106.273V107.164C408.211 108.102 408.336 108.953 408.586 109.719C408.852 110.484 409.227 111.141 409.711 111.688C410.211 112.219 410.805 112.633 411.492 112.93C412.195 113.227 412.992 113.375 413.883 113.375C414.961 113.375 416.023 113.172 417.07 112.766C418.117 112.359 419.016 111.688 419.766 110.75L423.352 115.016C422.836 115.75 422.102 116.461 421.148 117.148C420.211 117.836 419.086 118.398 417.773 118.836C416.461 119.258 414.992 119.469 413.367 119.469ZM435 99.0547V119H427.102V93.6406H434.508L435 99.0547ZM434.062 105.453L432.211 105.5C432.211 103.562 432.445 101.836 432.914 100.32C433.383 98.7891 434.047 97.4922 434.906 96.4297C435.766 95.3672 436.789 94.5625 437.977 94.0156C439.18 93.4531 440.516 93.1719 441.984 93.1719C443.156 93.1719 444.227 93.3438 445.195 93.6875C446.18 94.0312 447.023 94.5859 447.727 95.3516C448.445 96.1172 448.992 97.1328 449.367 98.3984C449.758 99.6484 449.953 101.195 449.953 103.039V119H442.008V103.016C442.008 102 441.867 101.227 441.586 100.695C441.305 100.148 440.898 99.7734 440.367 99.5703C439.836 99.3672 439.188 99.2656 438.422 99.2656C437.609 99.2656 436.922 99.4219 436.359 99.7344C435.797 100.047 435.344 100.484 435 101.047C434.672 101.594 434.43 102.242 434.273 102.992C434.133 103.742 434.062 104.562 434.062 105.453ZM467.695 93.6406V99.125H452.414V93.6406H467.695ZM455.625 87.3359H463.523V110.727C463.523 111.398 463.602 111.922 463.758 112.297C463.914 112.656 464.18 112.914 464.555 113.07C464.945 113.211 465.461 113.281 466.102 113.281C466.555 113.281 466.93 113.273 467.227 113.258C467.523 113.227 467.805 113.188 468.07 113.141V118.789C467.398 119.008 466.695 119.172 465.961 119.281C465.227 119.406 464.445 119.469 463.617 119.469C461.93 119.469 460.484 119.203 459.281 118.672C458.094 118.141 457.188 117.305 456.562 116.164C455.938 115.023 455.625 113.539 455.625 111.711V87.3359Z" fill="black"/>
<path d="M1134 0H1348C1356.28 0 1363 6.71573 1363 15V148C1363 156.284 1356.28 163 1348 163H1134V0Z" fill="#058789"/>
<path d="M1212.5 117.5L1212.5 45.5L1284.5 45.5L1284.5 117.5L1212.5 117.5Z" fill="white" fill-opacity="0.01"/>
<path d="M1221.5 81.5125L1221.5 108.5L1275.5 108.5L1275.5 81.5" stroke="white" stroke-width="7.24" stroke-linecap="round" stroke-linejoin="round"/>
<path d="M1262 68L1248.5 54.5L1235 68" stroke="white" stroke-width="7.24" stroke-linecap="round" stroke-linejoin="round"/>
<path d="M1248.49 93.5L1248.49 54.5" stroke="white" stroke-width="7.24" stroke-linecap="round" stroke-linejoin="round"/>
</svg>
