<svg width="1363" height="163" viewBox="0 0 1363 163" fill="none" xmlns="http://www.w3.org/2000/svg">
<path d="M0 15C0 6.71573 6.71573 0 15 0H37V163H15C6.71573 163 0 156.284 0 148V15Z" fill="#424242"/>
<rect width="1097" height="163" transform="translate(37)" fill="#F0F0F0"/>
<path d="M101.906 53.9219L94.3945 51.2383V48.0859L104.602 52.375V54.6367L101.906 53.9219ZM94.3945 56.1719L101.918 53.4297L104.602 52.7852V55.0352L94.3945 59.3242V56.1719ZM122.789 55.3398H126.293C126.223 56.4883 125.906 57.5078 125.344 58.3984C124.789 59.2891 124.012 59.9844 123.012 60.4844C122.02 60.9844 120.824 61.2344 119.426 61.2344C118.332 61.2344 117.352 61.0469 116.484 60.6719C115.617 60.2891 114.875 59.7422 114.258 59.0312C113.648 58.3203 113.184 57.4609 112.863 56.4531C112.543 55.4453 112.383 54.3164 112.383 53.0664V51.8828C112.383 50.6328 112.547 49.5039 112.875 48.4961C113.211 47.4805 113.688 46.6172 114.305 45.9062C114.93 45.1953 115.676 44.6484 116.543 44.2656C117.41 43.8828 118.379 43.6914 119.449 43.6914C120.871 43.6914 122.07 43.9492 123.047 44.4648C124.031 44.9805 124.793 45.6914 125.332 46.5977C125.879 47.5039 126.207 48.5352 126.316 49.6914H122.801C122.762 49.0039 122.625 48.4219 122.391 47.9453C122.156 47.4609 121.801 47.0977 121.324 46.8555C120.855 46.6055 120.23 46.4805 119.449 46.4805C118.863 46.4805 118.352 46.5898 117.914 46.8086C117.477 47.0273 117.109 47.3594 116.812 47.8047C116.516 48.25 116.293 48.8125 116.145 49.4922C116.004 50.1641 115.934 50.9531 115.934 51.8594V53.0664C115.934 53.9492 116 54.7266 116.133 55.3984C116.266 56.0625 116.469 56.625 116.742 57.0859C117.023 57.5391 117.383 57.8828 117.82 58.1172C118.266 58.3438 118.801 58.457 119.426 58.457C120.16 58.457 120.766 58.3398 121.242 58.1055C121.719 57.8711 122.082 57.5234 122.332 57.0625C122.59 56.6016 122.742 56.0273 122.789 55.3398ZM131.953 43V61H128.566V43H131.953ZM140.578 61.2344C139.594 61.2344 138.711 61.0781 137.93 60.7656C137.148 60.4453 136.484 60.0039 135.938 59.4414C135.398 58.8789 134.984 58.2266 134.695 57.4844C134.406 56.7344 134.262 55.9375 134.262 55.0938V54.625C134.262 53.6641 134.398 52.7852 134.672 51.9883C134.945 51.1914 135.336 50.5 135.844 49.9141C136.359 49.3281 136.984 48.8789 137.719 48.5664C138.453 48.2461 139.281 48.0859 140.203 48.0859C141.102 48.0859 141.898 48.2344 142.594 48.5312C143.289 48.8281 143.871 49.25 144.34 49.7969C144.816 50.3438 145.176 51 145.418 51.7656C145.66 52.5234 145.781 53.3672 145.781 54.2969V55.7031H135.703V53.4531H142.465V53.1953C142.465 52.7266 142.379 52.3086 142.207 51.9414C142.043 51.5664 141.793 51.2695 141.457 51.0508C141.121 50.832 140.691 50.7227 140.168 50.7227C139.723 50.7227 139.34 50.8203 139.02 51.0156C138.699 51.2109 138.438 51.4844 138.234 51.8359C138.039 52.1875 137.891 52.6016 137.789 53.0781C137.695 53.5469 137.648 54.0625 137.648 54.625V55.0938C137.648 55.6016 137.719 56.0703 137.859 56.5C138.008 56.9297 138.215 57.3008 138.48 57.6133C138.754 57.9258 139.082 58.168 139.465 58.3398C139.855 58.5117 140.297 58.5977 140.789 58.5977C141.398 58.5977 141.965 58.4805 142.488 58.2461C143.02 58.0039 143.477 57.6406 143.859 57.1562L145.5 58.9375C145.234 59.3203 144.871 59.6875 144.41 60.0391C143.957 60.3906 143.41 60.6797 142.77 60.9062C142.129 61.125 141.398 61.2344 140.578 61.2344ZM151.852 58.5391L154.664 48.3203H158.191L153.914 61H151.781L151.852 58.5391ZM149.918 48.3203L152.742 58.5508L152.801 61H150.656L146.379 48.3203H149.918ZM165.375 61.2344C164.391 61.2344 163.508 61.0781 162.727 60.7656C161.945 60.4453 161.281 60.0039 160.734 59.4414C160.195 58.8789 159.781 58.2266 159.492 57.4844C159.203 56.7344 159.059 55.9375 159.059 55.0938V54.625C159.059 53.6641 159.195 52.7852 159.469 51.9883C159.742 51.1914 160.133 50.5 160.641 49.9141C161.156 49.3281 161.781 48.8789 162.516 48.5664C163.25 48.2461 164.078 48.0859 165 48.0859C165.898 48.0859 166.695 48.2344 167.391 48.5312C168.086 48.8281 168.668 49.25 169.137 49.7969C169.613 50.3438 169.973 51 170.215 51.7656C170.457 52.5234 170.578 53.3672 170.578 54.2969V55.7031H160.5V53.4531H167.262V53.1953C167.262 52.7266 167.176 52.3086 167.004 51.9414C166.84 51.5664 166.59 51.2695 166.254 51.0508C165.918 50.832 165.488 50.7227 164.965 50.7227C164.52 50.7227 164.137 50.8203 163.816 51.0156C163.496 51.2109 163.234 51.4844 163.031 51.8359C162.836 52.1875 162.688 52.6016 162.586 53.0781C162.492 53.5469 162.445 54.0625 162.445 54.625V55.0938C162.445 55.6016 162.516 56.0703 162.656 56.5C162.805 56.9297 163.012 57.3008 163.277 57.6133C163.551 57.9258 163.879 58.168 164.262 58.3398C164.652 58.5117 165.094 58.5977 165.586 58.5977C166.195 58.5977 166.762 58.4805 167.285 58.2461C167.816 58.0039 168.273 57.6406 168.656 57.1562L170.297 58.9375C170.031 59.3203 169.668 59.6875 169.207 60.0391C168.754 60.3906 168.207 60.6797 167.566 60.9062C166.926 61.125 166.195 61.2344 165.375 61.2344ZM175.875 51.0859V61H172.5V48.3203H175.676L175.875 51.0859ZM179.695 48.2383L179.637 51.3672C179.473 51.3438 179.273 51.3242 179.039 51.3086C178.812 51.2852 178.605 51.2734 178.418 51.2734C177.941 51.2734 177.527 51.3359 177.176 51.4609C176.832 51.5781 176.543 51.7539 176.309 51.9883C176.082 52.2227 175.91 52.5078 175.793 52.8438C175.684 53.1797 175.621 53.5625 175.605 53.9922L174.926 53.7812C174.926 52.9609 175.008 52.207 175.172 51.5195C175.336 50.8242 175.574 50.2188 175.887 49.7031C176.207 49.1875 176.598 48.7891 177.059 48.5078C177.52 48.2266 178.047 48.0859 178.641 48.0859C178.828 48.0859 179.02 48.1016 179.215 48.1328C179.41 48.1562 179.57 48.1914 179.695 48.2383ZM190.992 43.9375V61H187.477V43.9375H190.992ZM201.211 43.9375L194.449 52.3633L190.547 56.5586L189.914 53.2305L192.551 49.6211L196.898 43.9375H201.211ZM197.215 61L192.188 53.1133L194.789 50.9336L201.375 61H197.215ZM209.367 58.1406V52.4922C209.367 52.0859 209.301 51.7383 209.168 51.4492C209.035 51.1523 208.828 50.9219 208.547 50.7578C208.273 50.5938 207.918 50.5117 207.48 50.5117C207.105 50.5117 206.781 50.5781 206.508 50.7109C206.234 50.8359 206.023 51.0195 205.875 51.2617C205.727 51.4961 205.652 51.7734 205.652 52.0938H202.277C202.277 51.5547 202.402 51.043 202.652 50.5586C202.902 50.0742 203.266 49.6484 203.742 49.2812C204.219 48.9062 204.785 48.6133 205.441 48.4023C206.105 48.1914 206.848 48.0859 207.668 48.0859C208.652 48.0859 209.527 48.25 210.293 48.5781C211.059 48.9062 211.66 49.3984 212.098 50.0547C212.543 50.7109 212.766 51.5312 212.766 52.5156V57.9414C212.766 58.6367 212.809 59.207 212.895 59.6523C212.98 60.0898 213.105 60.4727 213.27 60.8008V61H209.859C209.695 60.6562 209.57 60.2266 209.484 59.7109C209.406 59.1875 209.367 58.6641 209.367 58.1406ZM209.812 53.2773L209.836 55.1875H207.949C207.504 55.1875 207.117 55.2383 206.789 55.3398C206.461 55.4414 206.191 55.5859 205.98 55.7734C205.77 55.9531 205.613 56.1641 205.512 56.4062C205.418 56.6484 205.371 56.9141 205.371 57.2031C205.371 57.4922 205.438 57.7539 205.57 57.9883C205.703 58.2148 205.895 58.3945 206.145 58.5273C206.395 58.6523 206.688 58.7148 207.023 58.7148C207.531 58.7148 207.973 58.6133 208.348 58.4102C208.723 58.207 209.012 57.957 209.215 57.6602C209.426 57.3633 209.535 57.082 209.543 56.8164L210.434 58.2461C210.309 58.5664 210.137 58.8984 209.918 59.2422C209.707 59.5859 209.438 59.9102 209.109 60.2148C208.781 60.5117 208.387 60.7578 207.926 60.9531C207.465 61.1406 206.918 61.2344 206.285 61.2344C205.48 61.2344 204.75 61.0742 204.094 60.7539C203.445 60.4258 202.93 59.9766 202.547 59.4062C202.172 58.8281 201.984 58.1719 201.984 57.4375C201.984 56.7734 202.109 56.1836 202.359 55.668C202.609 55.1523 202.977 54.7188 203.461 54.3672C203.953 54.0078 204.566 53.7383 205.301 53.5586C206.035 53.3711 206.887 53.2773 207.855 53.2773H209.812ZM218.742 51.0859V61H215.367V48.3203H218.543L218.742 51.0859ZM222.562 48.2383L222.504 51.3672C222.34 51.3438 222.141 51.3242 221.906 51.3086C221.68 51.2852 221.473 51.2734 221.285 51.2734C220.809 51.2734 220.395 51.3359 220.043 51.4609C219.699 51.5781 219.41 51.7539 219.176 51.9883C218.949 52.2227 218.777 52.5078 218.66 52.8438C218.551 53.1797 218.488 53.5625 218.473 53.9922L217.793 53.7812C217.793 52.9609 217.875 52.207 218.039 51.5195C218.203 50.8242 218.441 50.2188 218.754 49.7031C219.074 49.1875 219.465 48.7891 219.926 48.5078C220.387 48.2266 220.914 48.0859 221.508 48.0859C221.695 48.0859 221.887 48.1016 222.082 48.1328C222.277 48.1562 222.438 48.1914 222.562 48.2383ZM227.531 50.9453V61H224.145V48.3203H227.32L227.531 50.9453ZM227.062 54.2148H226.125C226.125 53.332 226.23 52.5195 226.441 51.7773C226.66 51.0273 226.977 50.3789 227.391 49.832C227.812 49.2773 228.332 48.8477 228.949 48.543C229.566 48.2383 230.281 48.0859 231.094 48.0859C231.656 48.0859 232.172 48.1719 232.641 48.3438C233.109 48.5078 233.512 48.7695 233.848 49.1289C234.191 49.4805 234.457 49.9414 234.645 50.5117C234.832 51.0742 234.926 51.75 234.926 52.5391V61H231.551V52.9141C231.551 52.3359 231.473 51.8906 231.316 51.5781C231.16 51.2656 230.938 51.0469 230.648 50.9219C230.367 50.7969 230.027 50.7344 229.629 50.7344C229.191 50.7344 228.809 50.8242 228.48 51.0039C228.16 51.1836 227.895 51.4336 227.684 51.7539C227.473 52.0664 227.316 52.4336 227.215 52.8555C227.113 53.2773 227.062 53.7305 227.062 54.2148ZM234.609 53.8281L233.402 53.9805C233.402 53.1523 233.504 52.3828 233.707 51.6719C233.918 50.9609 234.227 50.3359 234.633 49.7969C235.047 49.2578 235.559 48.8398 236.168 48.543C236.777 48.2383 237.48 48.0859 238.277 48.0859C238.887 48.0859 239.441 48.1758 239.941 48.3555C240.441 48.5273 240.867 48.8047 241.219 49.1875C241.578 49.5625 241.852 50.0547 242.039 50.6641C242.234 51.2734 242.332 52.0195 242.332 52.9023V61H238.945V52.9023C238.945 52.3164 238.867 51.8711 238.711 51.5664C238.562 51.2539 238.344 51.0391 238.055 50.9219C237.773 50.7969 237.438 50.7344 237.047 50.7344C236.641 50.7344 236.285 50.8164 235.98 50.9805C235.676 51.1367 235.422 51.3555 235.219 51.6367C235.016 51.918 234.863 52.2461 234.762 52.6211C234.66 52.9883 234.609 53.3906 234.609 53.8281ZM251.789 58.1406V52.4922C251.789 52.0859 251.723 51.7383 251.59 51.4492C251.457 51.1523 251.25 50.9219 250.969 50.7578C250.695 50.5938 250.34 50.5117 249.902 50.5117C249.527 50.5117 249.203 50.5781 248.93 50.7109C248.656 50.8359 248.445 51.0195 248.297 51.2617C248.148 51.4961 248.074 51.7734 248.074 52.0938H244.699C244.699 51.5547 244.824 51.043 245.074 50.5586C245.324 50.0742 245.688 49.6484 246.164 49.2812C246.641 48.9062 247.207 48.6133 247.863 48.4023C248.527 48.1914 249.27 48.0859 250.09 48.0859C251.074 48.0859 251.949 48.25 252.715 48.5781C253.48 48.9062 254.082 49.3984 254.52 50.0547C254.965 50.7109 255.188 51.5312 255.188 52.5156V57.9414C255.188 58.6367 255.23 59.207 255.316 59.6523C255.402 60.0898 255.527 60.4727 255.691 60.8008V61H252.281C252.117 60.6562 251.992 60.2266 251.906 59.7109C251.828 59.1875 251.789 58.6641 251.789 58.1406ZM252.234 53.2773L252.258 55.1875H250.371C249.926 55.1875 249.539 55.2383 249.211 55.3398C248.883 55.4414 248.613 55.5859 248.402 55.7734C248.191 55.9531 248.035 56.1641 247.934 56.4062C247.84 56.6484 247.793 56.9141 247.793 57.2031C247.793 57.4922 247.859 57.7539 247.992 57.9883C248.125 58.2148 248.316 58.3945 248.566 58.5273C248.816 58.6523 249.109 58.7148 249.445 58.7148C249.953 58.7148 250.395 58.6133 250.77 58.4102C251.145 58.207 251.434 57.957 251.637 57.6602C251.848 57.3633 251.957 57.082 251.965 56.8164L252.855 58.2461C252.73 58.5664 252.559 58.8984 252.34 59.2422C252.129 59.5859 251.859 59.9102 251.531 60.2148C251.203 60.5117 250.809 60.7578 250.348 60.9531C249.887 61.1406 249.34 61.2344 248.707 61.2344C247.902 61.2344 247.172 61.0742 246.516 60.7539C245.867 60.4258 245.352 59.9766 244.969 59.4062C244.594 58.8281 244.406 58.1719 244.406 57.4375C244.406 56.7734 244.531 56.1836 244.781 55.668C245.031 55.1523 245.398 54.7188 245.883 54.3672C246.375 54.0078 246.988 53.7383 247.723 53.5586C248.457 53.3711 249.309 53.2773 250.277 53.2773H252.234Z" fill="#888888"/>
<path d="M112.125 84.875V119H103.898V84.875H112.125ZM122.391 84.875V91.2266H93.8672V84.875H122.391ZM135.68 119.469C133.617 119.469 131.773 119.148 130.148 118.508C128.523 117.852 127.148 116.953 126.023 115.812C124.914 114.672 124.062 113.359 123.469 111.875C122.891 110.391 122.602 108.82 122.602 107.164V106.273C122.602 104.414 122.859 102.695 123.375 101.117C123.891 99.5234 124.656 98.1328 125.672 96.9453C126.688 95.7578 127.961 94.8359 129.492 94.1797C131.023 93.5078 132.805 93.1719 134.836 93.1719C136.633 93.1719 138.242 93.4609 139.664 94.0391C141.086 94.6172 142.289 95.4453 143.273 96.5234C144.273 97.6016 145.031 98.9062 145.547 100.438C146.078 101.969 146.344 103.688 146.344 105.594V108.805H125.625V103.859H138.633V103.25C138.648 102.406 138.5 101.688 138.188 101.094C137.891 100.5 137.453 100.047 136.875 99.7344C136.297 99.4219 135.594 99.2656 134.766 99.2656C133.906 99.2656 133.195 99.4531 132.633 99.8281C132.086 100.203 131.656 100.719 131.344 101.375C131.047 102.016 130.836 102.758 130.711 103.602C130.586 104.445 130.523 105.336 130.523 106.273V107.164C130.523 108.102 130.648 108.953 130.898 109.719C131.164 110.484 131.539 111.141 132.023 111.688C132.523 112.219 133.117 112.633 133.805 112.93C134.508 113.227 135.305 113.375 136.195 113.375C137.273 113.375 138.336 113.172 139.383 112.766C140.43 112.359 141.328 111.688 142.078 110.75L145.664 115.016C145.148 115.75 144.414 116.461 143.461 117.148C142.523 117.836 141.398 118.398 140.086 118.836C138.773 119.258 137.305 119.469 135.68 119.469ZM160.266 113.375C161 113.375 161.625 113.242 162.141 112.977C162.672 112.695 163.07 112.305 163.336 111.805C163.617 111.289 163.75 110.672 163.734 109.953H171.164C171.18 111.859 170.711 113.531 169.758 114.969C168.82 116.391 167.539 117.5 165.914 118.297C164.305 119.078 162.484 119.469 160.453 119.469C158.469 119.469 156.734 119.148 155.25 118.508C153.766 117.852 152.523 116.945 151.523 115.789C150.539 114.617 149.797 113.25 149.297 111.688C148.812 110.125 148.57 108.43 148.57 106.602V106.062C148.57 104.234 148.812 102.539 149.297 100.977C149.797 99.3984 150.539 98.0312 151.523 96.875C152.523 95.7031 153.758 94.7969 155.227 94.1562C156.711 93.5 158.438 93.1719 160.406 93.1719C162.516 93.1719 164.375 93.5703 165.984 94.3672C167.609 95.1641 168.883 96.3203 169.805 97.8359C170.727 99.3516 171.18 101.188 171.164 103.344H163.734C163.75 102.578 163.633 101.891 163.383 101.281C163.133 100.672 162.742 100.188 162.211 99.8281C161.695 99.4531 161.031 99.2656 160.219 99.2656C159.406 99.2656 158.75 99.4453 158.25 99.8047C157.75 100.164 157.367 100.664 157.102 101.305C156.852 101.93 156.68 102.648 156.586 103.461C156.508 104.273 156.469 105.141 156.469 106.062V106.602C156.469 107.539 156.508 108.422 156.586 109.25C156.68 110.062 156.859 110.781 157.125 111.406C157.391 112.016 157.773 112.5 158.273 112.859C158.773 113.203 159.438 113.375 160.266 113.375ZM182.273 83V119H174.375V83H182.273ZM181.336 105.453L179.484 105.5C179.484 103.719 179.703 102.078 180.141 100.578C180.578 99.0781 181.203 97.7734 182.016 96.6641C182.828 95.5547 183.805 94.6953 184.945 94.0859C186.086 93.4766 187.352 93.1719 188.742 93.1719C189.992 93.1719 191.133 93.3516 192.164 93.7109C193.211 94.0703 194.109 94.6484 194.859 95.4453C195.625 96.2422 196.211 97.2812 196.617 98.5625C197.039 99.8438 197.25 101.406 197.25 103.25V119H189.305V103.203C189.305 102.172 189.156 101.375 188.859 100.812C188.578 100.234 188.172 99.8359 187.641 99.6172C187.109 99.3828 186.461 99.2656 185.695 99.2656C184.773 99.2656 184.023 99.4219 183.445 99.7344C182.867 100.047 182.422 100.484 182.109 101.047C181.812 101.594 181.609 102.242 181.5 102.992C181.391 103.742 181.336 104.562 181.336 105.453ZM231.539 109.93C231.539 109.398 231.461 108.922 231.305 108.5C231.148 108.062 230.859 107.656 230.438 107.281C230.016 106.906 229.406 106.531 228.609 106.156C227.828 105.766 226.797 105.359 225.516 104.938C224.016 104.438 222.57 103.875 221.18 103.25C219.789 102.609 218.547 101.867 217.453 101.023C216.359 100.164 215.492 99.1641 214.852 98.0234C214.211 96.8672 213.891 95.5234 213.891 93.9922C213.891 92.5234 214.219 91.2031 214.875 90.0312C215.531 88.8438 216.445 87.8359 217.617 87.0078C218.805 86.1641 220.195 85.5234 221.789 85.0859C223.383 84.6328 225.125 84.4062 227.016 84.4062C229.516 84.4062 231.719 84.8438 233.625 85.7188C235.547 86.5781 237.047 87.8047 238.125 89.3984C239.219 90.9766 239.766 92.8438 239.766 95H231.586C231.586 94.1406 231.406 93.3828 231.047 92.7266C230.703 92.0703 230.18 91.5547 229.477 91.1797C228.773 90.8047 227.891 90.6172 226.828 90.6172C225.797 90.6172 224.93 90.7734 224.227 91.0859C223.523 91.3984 222.992 91.8203 222.633 92.3516C222.273 92.8672 222.094 93.4375 222.094 94.0625C222.094 94.5781 222.234 95.0469 222.516 95.4688C222.812 95.875 223.227 96.2578 223.758 96.6172C224.305 96.9766 224.961 97.3203 225.727 97.6484C226.508 97.9766 227.383 98.2969 228.352 98.6094C230.164 99.1875 231.773 99.8359 233.18 100.555C234.602 101.258 235.797 102.062 236.766 102.969C237.75 103.859 238.492 104.875 238.992 106.016C239.508 107.156 239.766 108.445 239.766 109.883C239.766 111.414 239.469 112.773 238.875 113.961C238.281 115.148 237.43 116.156 236.32 116.984C235.211 117.797 233.883 118.414 232.336 118.836C230.789 119.258 229.062 119.469 227.156 119.469C225.406 119.469 223.68 119.25 221.977 118.812C220.289 118.359 218.758 117.672 217.383 116.75C216.008 115.812 214.906 114.617 214.078 113.164C213.266 111.695 212.859 109.953 212.859 107.938H221.109C221.109 108.938 221.242 109.781 221.508 110.469C221.773 111.156 222.164 111.711 222.68 112.133C223.195 112.539 223.828 112.836 224.578 113.023C225.328 113.195 226.188 113.281 227.156 113.281C228.203 113.281 229.047 113.133 229.688 112.836C230.328 112.523 230.797 112.117 231.094 111.617C231.391 111.102 231.539 110.539 231.539 109.93ZM256.992 93.6406V99.125H241.711V93.6406H256.992ZM244.922 87.3359H252.82V110.727C252.82 111.398 252.898 111.922 253.055 112.297C253.211 112.656 253.477 112.914 253.852 113.07C254.242 113.211 254.758 113.281 255.398 113.281C255.852 113.281 256.227 113.273 256.523 113.258C256.82 113.227 257.102 113.188 257.367 113.141V118.789C256.695 119.008 255.992 119.172 255.258 119.281C254.523 119.406 253.742 119.469 252.914 119.469C251.227 119.469 249.781 119.203 248.578 118.672C247.391 118.141 246.484 117.305 245.859 116.164C245.234 115.023 244.922 113.539 244.922 111.711V87.3359ZM273.305 112.625V102.172C273.305 101.453 273.203 100.836 273 100.32C272.797 99.8047 272.477 99.4062 272.039 99.125C271.602 98.8281 271.016 98.6797 270.281 98.6797C269.688 98.6797 269.18 98.7812 268.758 98.9844C268.336 99.1875 268.016 99.4922 267.797 99.8984C267.578 100.305 267.469 100.82 267.469 101.445H259.57C259.57 100.273 259.828 99.1875 260.344 98.1875C260.875 97.1719 261.625 96.2891 262.594 95.5391C263.578 94.7891 264.75 94.2109 266.109 93.8047C267.484 93.3828 269.016 93.1719 270.703 93.1719C272.719 93.1719 274.516 93.5078 276.094 94.1797C277.688 94.8516 278.945 95.8594 279.867 97.2031C280.789 98.5312 281.25 100.203 281.25 102.219V112.602C281.25 114.258 281.344 115.516 281.531 116.375C281.719 117.219 281.984 117.961 282.328 118.602V119H274.406C274.031 118.219 273.75 117.266 273.562 116.141C273.391 115 273.305 113.828 273.305 112.625ZM274.266 103.508L274.312 107.727H270.82C270.086 107.727 269.461 107.828 268.945 108.031C268.445 108.234 268.039 108.516 267.727 108.875C267.43 109.219 267.211 109.609 267.07 110.047C266.945 110.484 266.883 110.945 266.883 111.43C266.883 111.898 266.992 112.32 267.211 112.695C267.445 113.055 267.758 113.336 268.148 113.539C268.539 113.742 268.977 113.844 269.461 113.844C270.336 113.844 271.078 113.68 271.688 113.352C272.312 113.008 272.789 112.594 273.117 112.109C273.445 111.625 273.609 111.172 273.609 110.75L275.344 113.984C275.031 114.609 274.672 115.242 274.266 115.883C273.875 116.523 273.383 117.117 272.789 117.664C272.211 118.195 271.5 118.633 270.656 118.977C269.812 119.305 268.789 119.469 267.586 119.469C266.023 119.469 264.586 119.148 263.273 118.508C261.977 117.867 260.938 116.977 260.156 115.836C259.375 114.68 258.984 113.352 258.984 111.852C258.984 110.539 259.219 109.367 259.688 108.336C260.172 107.305 260.898 106.43 261.867 105.711C262.836 104.992 264.07 104.445 265.57 104.07C267.07 103.695 268.836 103.508 270.867 103.508H274.266ZM296.344 113.375C297.078 113.375 297.703 113.242 298.219 112.977C298.75 112.695 299.148 112.305 299.414 111.805C299.695 111.289 299.828 110.672 299.812 109.953H307.242C307.258 111.859 306.789 113.531 305.836 114.969C304.898 116.391 303.617 117.5 301.992 118.297C300.383 119.078 298.562 119.469 296.531 119.469C294.547 119.469 292.812 119.148 291.328 118.508C289.844 117.852 288.602 116.945 287.602 115.789C286.617 114.617 285.875 113.25 285.375 111.688C284.891 110.125 284.648 108.43 284.648 106.602V106.062C284.648 104.234 284.891 102.539 285.375 100.977C285.875 99.3984 286.617 98.0312 287.602 96.875C288.602 95.7031 289.836 94.7969 291.305 94.1562C292.789 93.5 294.516 93.1719 296.484 93.1719C298.594 93.1719 300.453 93.5703 302.062 94.3672C303.688 95.1641 304.961 96.3203 305.883 97.8359C306.805 99.3516 307.258 101.188 307.242 103.344H299.812C299.828 102.578 299.711 101.891 299.461 101.281C299.211 100.672 298.82 100.188 298.289 99.8281C297.773 99.4531 297.109 99.2656 296.297 99.2656C295.484 99.2656 294.828 99.4453 294.328 99.8047C293.828 100.164 293.445 100.664 293.18 101.305C292.93 101.93 292.758 102.648 292.664 103.461C292.586 104.273 292.547 105.141 292.547 106.062V106.602C292.547 107.539 292.586 108.422 292.664 109.25C292.758 110.062 292.938 110.781 293.203 111.406C293.469 112.016 293.852 112.5 294.352 112.859C294.852 113.203 295.516 113.375 296.344 113.375ZM318.586 82.9766V119H310.688V82.9766H318.586ZM334.805 93.6406L323.789 106.555L318.023 112.32L314.578 107.305L319.383 101.047L325.336 93.6406H334.805ZM326.344 119L319.57 107.445L325.406 103.297L335.391 119H326.344ZM350.156 111.875C350.156 111.438 350.008 111.062 349.711 110.75C349.43 110.422 348.93 110.125 348.211 109.859C347.492 109.578 346.484 109.297 345.188 109.016C343.953 108.75 342.789 108.398 341.695 107.961C340.617 107.523 339.672 106.992 338.859 106.367C338.047 105.742 337.406 105 336.938 104.141C336.484 103.281 336.258 102.297 336.258 101.188C336.258 100.109 336.484 99.0938 336.938 98.1406C337.406 97.1719 338.086 96.3203 338.977 95.5859C339.883 94.8359 340.984 94.25 342.281 93.8281C343.578 93.3906 345.055 93.1719 346.711 93.1719C348.992 93.1719 350.961 93.5234 352.617 94.2266C354.273 94.9141 355.547 95.8828 356.438 97.1328C357.344 98.3672 357.797 99.7969 357.797 101.422H349.898C349.898 100.781 349.789 100.234 349.57 99.7812C349.367 99.3281 349.031 98.9844 348.562 98.75C348.094 98.5 347.469 98.375 346.688 98.375C346.141 98.375 345.641 98.4766 345.188 98.6797C344.75 98.8828 344.398 99.1641 344.133 99.5234C343.867 99.8828 343.734 100.305 343.734 100.789C343.734 101.133 343.812 101.445 343.969 101.727C344.141 101.992 344.398 102.242 344.742 102.477C345.086 102.695 345.523 102.898 346.055 103.086C346.586 103.258 347.227 103.414 347.977 103.555C349.68 103.867 351.273 104.312 352.758 104.891C354.242 105.469 355.445 106.289 356.367 107.352C357.305 108.414 357.773 109.844 357.773 111.641C357.773 112.766 357.516 113.805 357 114.758C356.484 115.695 355.742 116.523 354.773 117.242C353.805 117.945 352.641 118.492 351.281 118.883C349.922 119.273 348.391 119.469 346.688 119.469C344.266 119.469 342.219 119.039 340.547 118.18C338.875 117.305 337.609 116.211 336.75 114.898C335.906 113.57 335.484 112.227 335.484 110.867H342.844C342.875 111.648 343.062 112.289 343.406 112.789C343.766 113.289 344.242 113.656 344.836 113.891C345.43 114.125 346.117 114.242 346.898 114.242C347.617 114.242 348.211 114.141 348.68 113.938C349.164 113.734 349.531 113.461 349.781 113.117C350.031 112.758 350.156 112.344 350.156 111.875Z" fill="black"/>
<path d="M1134 0H1348C1356.28 0 1363 6.71573 1363 15V148C1363 156.284 1356.28 163 1348 163H1134V0Z" fill="#058789"/>
<path fill-rule="evenodd" clip-rule="evenodd" d="M1219.98 53C1219.85 53 1219.73 53.0527 1219.64 53.1464C1219.55 53.2402 1219.5 53.3674 1219.5 53.5V109.5C1219.5 109.633 1219.55 109.76 1219.64 109.854C1219.73 109.947 1219.85 110 1219.98 110H1277.02C1277.15 110 1277.27 109.947 1277.36 109.854C1277.45 109.76 1277.5 109.633 1277.5 109.5V64C1277.5 63.8674 1277.45 63.7402 1277.36 63.6464C1277.27 63.5527 1277.15 63.5 1277.02 63.5H1248.5C1247.65 63.5 1246.84 63.1045 1246.29 62.4206L1238.77 53H1219.98ZM1215.58 48.9038C1216.74 47.6848 1218.33 47 1219.98 47H1240.11C1240.97 47 1241.77 47.3955 1242.32 48.0794L1249.85 57.5H1277.02C1278.67 57.5 1280.26 58.1848 1281.42 59.4038C1282.59 60.6228 1283.25 62.2761 1283.25 64V109.5C1283.25 111.224 1282.59 112.877 1281.42 114.096C1280.26 115.315 1278.67 116 1277.02 116H1219.98C1218.33 116 1216.74 115.315 1215.58 114.096C1214.41 112.877 1213.75 111.224 1213.75 109.5V53.5C1213.75 51.7761 1214.41 50.1228 1215.58 48.9038Z" fill="white"/>
<path fill-rule="evenodd" clip-rule="evenodd" d="M1244.16 75.5251C1245.47 76.892 1245.47 79.108 1244.16 80.4749L1238.15 86.75L1244.16 93.0251C1245.47 94.392 1245.47 96.608 1244.16 97.9749C1242.85 99.3417 1240.73 99.3417 1239.42 97.9749L1231.03 89.2249C1229.72 87.858 1229.72 85.642 1231.03 84.2751L1239.42 75.5251C1240.73 74.1583 1242.85 74.1583 1244.16 75.5251Z" fill="white"/>
<path fill-rule="evenodd" clip-rule="evenodd" d="M1252.12 97.9749C1250.81 96.608 1250.81 94.392 1252.12 93.0251L1258.13 86.75L1252.12 80.4749C1250.81 79.108 1250.81 76.892 1252.12 75.5251C1253.43 74.1583 1255.55 74.1583 1256.86 75.5251L1265.25 84.2751C1266.56 85.642 1266.56 87.858 1265.25 89.2249L1256.86 97.9749C1255.55 99.3417 1253.43 99.3417 1252.12 97.9749Z" fill="white"/>
</svg>
